{
  "accessors": [
    {
      "bufferView": 2,
      "componentType": 5126,
      "count": 1094,
      "max": [
        1.6637619733810425,
        3.028580904006958,
        4.907320022583008
      ],
      "min": [
        -1.6637619733810425,
        -1.6357840299606323,
        0.0038449999410659075
      ],
      "type": "VEC3"
    },
    {
      "bufferView": 2,
      "byteOffset": 13128,
      "componentType": 5126,
      "count": 1094,
      "max": [
        0.9998681545257568,
        0.9998570084571838,
        0.9971011281013489
      ],
      "min": [
        -0.9998670816421509,
        -0.9993712306022644,
        -0.9999737739562988
      ],
      "type": "VEC3"
    },
    {
      "bufferView": 1,
      "componentType": 5126,
      "count": 1094,
      "max": [
        0.9933170080184937,
        0.9964600205421448
      ],
      "min": [
        0.0032649999484419823,
        0.0087890001013875
      ],
      "type": "VEC2"
    },
    {
      "bufferView": 0,
      "componentType": 5125,
      "count": 4170,
      "type": "SCALAR"
    },
    {
      "bufferView": 2,
      "byteOffset": 26256,
      "componentType": 5126,
      "count": 26,
      "max": [
        0.7908610105514526,
        -0.6945009827613831,
        3.9939770698547363
      ],
      "min": [
        -0.7908610105514526,
        -1.1718369722366333,
        3.60851788520813
      ],
      "type": "VEC3"
    },
    {
      "bufferView": 2,
      "byteOffset": 26568,
      "componentType": 5126,
      "count": 26,
      "max": [
        0.7423335909843445,
        -0.5446298122406006,
        0.5705407857894897
      ],
      "min": [
        -0.742333173751831,
        -0.8039529919624329,
        0.3745848536491394
      ],
      "type": "VEC3"
    },
    {
      "bufferView": 1,
      "byteOffset": 8752,
      "componentType": 5126,
      "count": 26,
      "max": [
        0.25463899970054626,
        0.9543150067329407
      ],
      "min": [
        -0.0036619999445974827,
        0.7928469777107239
      ],
      "type": "VEC2"
    },
    {
      "bufferView": 0,
      "byteOffset": 16680,
      "componentType": 5125,
      "count": 84,
      "type": "SCALAR"
    },
    {
      "bufferView": 2,
      "byteOffset": 26880,
      "componentType": 5126,
      "count": 40,
      "max": [
        0.9637479782104492,
        -0.5419600009918213,
        3.6219489574432373
      ],
      "min": [
        -0.9637489914894104,
        -1.1583729982376099,
        2.955488920211792
      ],
      "type": "VEC3"
    },
    {
      "bufferView": 2,
      "byteOffset": 27360,
      "componentType": 5126,
      "count": 40,
      "max": [
        0.9750301837921143,
        -0.192007377743721,
        0.5263227224349976
      ],
      "min": [
        -0.9750301837921143,
        -0.773120641708374,
        -0.25483661890029907
      ],
      "type": "VEC3"
    },
    {
      "bufferView": 1,
      "byteOffset": 8960,
      "componentType": 5126,
      "count": 40,
      "max": [
        0.8610529899597168,
        0.9600520133972168
      ],
      "min": [
        0.18075600266456604,
        0.7762449979782104
      ],
      "type": "VEC2"
    },
    {
      "bufferView": 0,
      "byteOffset": 17016,
      "componentType": 5125,
      "count": 144,
      "type": "SCALAR"
    },
    {
      "bufferView": 2,
      "byteOffset": 27840,
      "componentType": 5126,
      "count": 30,
      "max": [
        0.4155209958553314,
        -1.2279549837112427,
        3.7219159603118896
      ],
      "min": [
        -0.4155209958553314,
        -1.4033739566802979,
        3.192199945449829
      ],
      "type": "VEC3"
    },
    {
      "bufferView": 2,
      "byteOffset": 28200,
      "componentType": 5126,
      "count": 30,
      "max": [
        0.4259670674800873,
        -0.6558358073234558,
        0.6508046388626099
      ],
      "min": [
        -0.42596614360809326,
        -0.9975639581680298,
        -0.0924026146531105
      ],
      "type": "VEC3"
    },
    {
      "bufferView": 1,
      "byteOffset": 9280,
      "componentType": 5126,
      "count": 30,
      "max": [
        0.2642819881439209,
        0.9943240284919739
      ],
      "min": [
        -0.01431300025433302,
        0.7678220272064209
      ],
      "type": "VEC2"
    },
    {
      "bufferView": 0,
      "byteOffset": 17592,
      "componentType": 5125,
      "count": 126,
      "type": "SCALAR"
    }
  ],
  "asset": {
    "extras": {
      "author": "gaddiellartey2010 (https://sketchfab.com/gaddiellartey2010)",
      "license": "CC-BY-4.0 (http://creativecommons.org/licenses/by/4.0/)",
      "source": "https://sketchfab.com/3d-models/pikachu-bdd57b2bf2374bb89251c083cb2d834e",
      "title": "Pikachu"
    },
    "generator": "Sketchfab-15.25.0",
    "version": "2.0"
  },
  "bufferViews": [
    {
      "buffer": 0,
      "byteLength": 18096,
      "name": "floatBufferViews",
      "target": 34963
    },
    {
      "buffer": 0,
      "byteLength": 9520,
      "byteOffset": 18096,
      "byteStride": 8,
      "name": "floatBufferViews",
      "target": 34962
    },
    {
      "buffer": 0,
      "byteLength": 28560,
      "byteOffset": 27616,
      "byteStride": 12,
      "name": "floatBufferViews",
      "target": 34962
    }
  ],
  "buffers": [
    {
      "byteLength": 56176,
      "uri": "scene.bin"
    }
  ],
  "images": [
    {
      "uri": "textures/PikachuDh_PikachuDh.png_baseColor.png"
    },
    {
      "uri": "textures/PikachuEyeDh_PikachuEyeDh.png_baseColor.png"
    },
    {
      "uri": "textures/PikachuHohoDh_PikachuHohoDh.png_baseColor.png"
    },
    {
      "uri": "textures/PikachuMouthDh_PikachuMouthDh.png_baseColor.png"
    }
  ],
  "materials": [
    {
      "doubleSided": true,
      "name": "PikachuDh_PikachuDh.png",
      "pbrMetallicRoughness": {
        "baseColorTexture": {
          "index": 0
        },
        "metallicFactor": 0.0,
        "roughnessFactor": 0.8434915419926713
      }
    },
    {
      "doubleSided": true,
      "name": "PikachuEyeDh_PikachuEyeDh.png",
      "pbrMetallicRoughness": {
        "baseColorTexture": {
          "index": 1
        },
        "metallicFactor": 0.0,
        "roughnessFactor": 0.8434915419926713
      }
    },
    {
      "doubleSided": true,
      "name": "PikachuHohoDh_PikachuHohoDh.png",
      "pbrMetallicRoughness": {
        "baseColorTexture": {
          "index": 2
        },
        "metallicFactor": 0.0,
        "roughnessFactor": 0.8434915419926713
      }
    },
    {
      "doubleSided": true,
      "name": "PikachuMouthDh_PikachuMouthDh.png",
      "pbrMetallicRoughness": {
        "baseColorTexture": {
          "index": 3
        },
        "metallicFactor": 0.0,
        "roughnessFactor": 0.8434915419926713
      }
    }
  ],
  "meshes": [
    {
      "name": "Object_0",
      "primitives": [
        {
          "attributes": {
            "NORMAL": 1,
            "POSITION": 0,
            "TEXCOORD_0": 2
          },
          "indices": 3,
          "material": 0,
          "mode": 4
        }
      ]
    },
    {
      "name": "Object_1",
      "primitives": [
        {
          "attributes": {
            "NORMAL": 5,
            "POSITION": 4,
            "TEXCOORD_0": 6
          },
          "indices": 7,
          "material": 1,
          "mode": 4
        }
      ]
    },
    {
      "name": "Object_2",
      "primitives": [
        {
          "attributes": {
            "NORMAL": 9,
            "POSITION": 8,
            "TEXCOORD_0": 10
          },
          "indices": 11,
          "material": 2,
          "mode": 4
        }
      ]
    },
    {
      "name": "Object_3",
      "primitives": [
        {
          "attributes": {
            "NORMAL": 13,
            "POSITION": 12,
            "TEXCOORD_0": 14
          },
          "indices": 15,
          "material": 3,
          "mode": 4
        }
      ]
    }
  ],
  "nodes": [
    {
      "children": [
        1
      ],
      "matrix": [
        1.0,
        0.0,
        0.0,
        0.0,
        0.0,
        2.220446049250313e-16,
        -1.0,
        0.0,
        0.0,
        1.0,
        2.220446049250313e-16,
        0.0,
        0.0,
        0.0,
        0.0,
        1.0
      ],
      "name": "Sketchfab_model"
    },
    {
      "children": [
        2,
        3,
        4,
        5
      ],
      "name": "Pikachu.obj.cleaner.materialmerger.gles"
    },
    {
      "mesh": 0,
      "name": "Object_2"
    },
    {
      "mesh": 1,
      "name": "Object_3"
    },
    {
      "mesh": 2,
      "name": "Object_4"
    },
    {
      "mesh": 3,
      "name": "Object_5"
    }
  ],
  "samplers": [
    {
      "magFilter": 9729,
      "minFilter": 9987,
      "wrapS": 10497,
      "wrapT": 10497
    }
  ],
  "scene": 0,
  "scenes": [
    {
      "name": "Sketchfab_Scene",
      "nodes": [
        0
      ]
    }
  ],
  "textures": [
    {
      "sampler": 0,
      "source": 0
    },
    {
      "sampler": 0,
      "source": 1
    },
    {
      "sampler": 0,
      "source": 2
    },
    {
      "sampler": 0,
      "source": 3
    }
  ]
}
