<svg width="1024" height="1024" xmlns="http://www.w3.org/2000/svg" desc="Created by KTab" version="1.2">
	<circle cx="512.0" cy="512.0" r="3" fill="none" stroke="red" stroke-width="2"/>
	<path d="M 1024.0 512.0 L 0.0 512.0" stroke="blue" stroke-width="1"/>
	<circle cx="245.95699595742042" cy="512.0" r="3" fill="none" stroke="red" stroke-width="2"/>
	<circle cx="778.0430040425796" cy="512.0" r="3" fill="none" stroke="red" stroke-width="2"/>
	<circle cx="204.8" cy="512.0" r="3" fill="none" stroke="green" stroke-width="2"/>
	<circle cx="819.2" cy="512.0" r="3" fill="none" stroke="green" stroke-width="2"/>
	<circle cx="512.0" cy="358.4" r="3" fill="none" stroke="green" stroke-width="2"/>
	<circle cx="512.0" cy="665.6" r="3" fill="none" stroke="green" stroke-width="2"/>
	<path d="M 512.0 0.0 L 512.0 1024.0" stroke="blue" stroke-width="1"/>
	<circle cx="378.9784979787102" cy="512.0000000000001" r="3" fill="none" stroke="red" stroke-width="2"/>
	<circle cx="553.1569959574203" cy="512.0000000000002" r="3" fill="none" stroke="red" stroke-width="2"/>
	<circle cx="798.6215020212899" cy="512.0" r="3" fill="none" stroke="orange" stroke-width="2"/>
	<circle cx="686.1784979787102" cy="512.0000000000001" r="3" fill="none" stroke="orange" stroke-width="2"/>
	<circle cx="665.5999999999999" cy="378.97849797871004" r="3" fill="none" stroke="green" stroke-width="2"/>
	<circle cx="665.5999999999999" cy="645.02150202129" r="3" fill="none" stroke="green" stroke-width="2"/>
	<circle cx="358.4000000000001" cy="645.02150202129" r="3" fill="none" stroke="green" stroke-width="2"/>
	<circle cx="358.4000000000001" cy="378.9784979787098" r="3" fill="none" stroke="green" stroke-width="2"/>
	<circle cx="588.8" cy="363.27743950563513" r="3" fill="none" stroke="green" stroke-width="2"/>
	<circle cx="588.8" cy="660.7225604943649" r="3" fill="none" stroke="green" stroke-width="2"/>
	<circle cx="435.20000000000005" cy="660.7225604943649" r="3" fill="none" stroke="green" stroke-width="2"/>
	<circle cx="435.20000000000005" cy="363.27743950563513" r="3" fill="none" stroke="green" stroke-width="2"/>
	<circle cx="550.3999999999999" cy="359.6047244826793" r="3" fill="none" stroke="green" stroke-width="2"/>
	<circle cx="550.3999999999999" cy="664.3952755173207" r="3" fill="none" stroke="green" stroke-width="2"/>
	<circle cx="473.60000000000014" cy="664.3952755173207" r="3" fill="none" stroke="green" stroke-width="2"/>
	<circle cx="473.6" cy="359.60472448267933" r="3" fill="none" stroke="green" stroke-width="2"/>
	<circle cx="531.1999999999998" cy="358.7002935423552" r="3" fill="none" stroke="green" stroke-width="2"/>
	<circle cx="531.1999999999998" cy="665.2997064576448" r="3" fill="none" stroke="green" stroke-width="2"/>
	<circle cx="492.8000000000002" cy="665.2997064576448" r="3" fill="none" stroke="green" stroke-width="2"/>
	<circle cx="492.8000000000002" cy="358.7002935423552" r="3" fill="none" stroke="green" stroke-width="2"/>
	<circle cx="569.5999999999998" cy="361.1241570031832" r="3" fill="none" stroke="green" stroke-width="2"/>
	<circle cx="569.5999999999998" cy="662.8758429968168" r="3" fill="none" stroke="green" stroke-width="2"/>
	<circle cx="454.4" cy="662.8758429968166" r="3" fill="none" stroke="green" stroke-width="2"/>
	<circle cx="454.40000000000066" cy="361.124157003183" r="3" fill="none" stroke="green" stroke-width="2"/>
	<circle cx="627.2" cy="369.6089890477631" r="3" fill="none" stroke="green" stroke-width="2"/>
	<circle cx="627.2" cy="654.3910109522369" r="3" fill="none" stroke="green" stroke-width="2"/>
	<circle cx="396.79999999999995" cy="654.3910109522369" r="3" fill="none" stroke="green" stroke-width="2"/>
	<circle cx="396.79999999999995" cy="369.6089890477631" r="3" fill="none" stroke="green" stroke-width="2"/>
	<circle cx="608.0" cy="366.0926321257216" r="3" fill="none" stroke="green" stroke-width="2"/>
	<circle cx="608.0" cy="657.9073678742784" r="3" fill="none" stroke="green" stroke-width="2"/>
	<circle cx="416.0" cy="657.9073678742784" r="3" fill="none" stroke="green" stroke-width="2"/>
	<circle cx="416.0" cy="366.0926321257216" r="3" fill="none" stroke="green" stroke-width="2"/>
	<circle cx="646.3999999999999" cy="373.88005212859355" r="3" fill="none" stroke="green" stroke-width="2"/>
	<circle cx="646.3999999999999" cy="650.1199478714065" r="3" fill="none" stroke="green" stroke-width="2"/>
	<circle cx="377.6000000000006" cy="650.1199478714067" r="3" fill="none" stroke="green" stroke-width="2"/>
	<circle cx="377.5999999999997" cy="373.880052128594" r="3" fill="none" stroke="green" stroke-width="2"/>
	<circle cx="752.6892489893551" cy="511.99999999999994" r="3" fill="none" stroke="orange" stroke-width="2"/>
	<circle cx="742.3999999999999" cy="410.40314965511965" r="3" fill="none" stroke="green" stroke-width="2"/>
	<circle cx="742.3999999999999" cy="613.5968503448803" r="3" fill="none" stroke="green" stroke-width="2"/>
	<circle cx="281.60000000000036" cy="613.5968503448803" r="3" fill="none" stroke="green" stroke-width="2"/>
	<circle cx="281.60000000000014" cy="410.4031496551197" r="3" fill="none" stroke="green" stroke-width="2"/>
	<circle cx="703.9999999999999" cy="392.0960384307507" r="3" fill="none" stroke="green" stroke-width="2"/>
	<circle cx="703.9999999999999" cy="631.9039615692493" r="3" fill="none" stroke="green" stroke-width="2"/>
	<circle cx="320.0" cy="631.9039615692498" r="3" fill="none" stroke="green" stroke-width="2"/>
	<circle cx="320.00000000000034" cy="392.09603843075024" r="3" fill="none" stroke="green" stroke-width="2"/>
	<circle cx="684.8" cy="385.00393706889963" r="3" fill="none" stroke="green" stroke-width="2"/>
	<circle cx="684.8" cy="638.9960629311004" r="3" fill="none" stroke="green" stroke-width="2"/>
	<circle cx="339.2000000000005" cy="638.9960629311008" r="3" fill="none" stroke="green" stroke-width="2"/>
	<circle cx="339.2000000000005" cy="385.0039370688992" r="3" fill="none" stroke="green" stroke-width="2"/>
	<circle cx="723.2" cy="400.45807962922663" r="3" fill="none" stroke="green" stroke-width="2"/>
	<circle cx="723.2" cy="623.5419203707734" r="3" fill="none" stroke="green" stroke-width="2"/>
	<circle cx="300.79999999999995" cy="623.5419203707738" r="3" fill="none" stroke="green" stroke-width="2"/>
	<circle cx="300.8000000000002" cy="400.4580796292264" r="3" fill="none" stroke="green" stroke-width="2"/>
	<circle cx="785.9446244946776" cy="512.0" r="3" fill="none" stroke="orange" stroke-width="2"/>
	<circle cx="811.2983795479022" cy="512.0" r="3" fill="none" stroke="orange" stroke-width="2"/>
	<circle cx="815.2491897739511" cy="512.0" r="3" fill="none" stroke="orange" stroke-width="2"/>
	<circle cx="852.4553755053226" cy="512.0" r="3" fill="none" stroke="orange" stroke-width="2"/>
	<circle cx="245.95699595742042" cy="512.0" r="539.9876285372571" fill="none" stroke="gray" stroke-width="2" stroke-dashoffset="0.0" stroke-dasharray="3392.8423336840424,0.0"/>
</svg>