<svg xmlns="http://www.w3.org/2000/svg" desc="Created by KTab - Version 1.1.2" height="428" version="1.1" width="583">
	<path d="M 351.5 70.0 Q 358.8 69.8 361.0 74.5 L 363.5 84.0 L 373.5 89.0 L 380.0 93.5 Q 380.9 98.9 378.5 101.0 L 377.0 105.5 L 377.0 114.5 L 381.5 120.0 L 384.5 125.0 L 386.5 129.0 L 392.5 135.0 L 401.0 136.5 Q 399.5 142.0 402.0 143.5 L 407.0 150.5 L 404.5 151.0 Q 395.8 147.8 391.0 140.5 L 386.0 133.5 L 383.5 127.0 L 381.0 128.5 L 380.5 135.0 Q 374.3 130.7 372.5 122.0 L 369.0 111.5 L 370.0 107.5 L 370.0 97.5 Q 368.6 91.4 363.5 89.0 L 360.0 83.5 L 359.0 80.5 Q 358.1 73.3 352.5 71.0 L 351.5 70.0 Z" desc="l 1 p 1" fill="gray" opacity="1.0" stroke="gray" stroke-width="1"/>
	<path d="M 48.5 76.0 L 59.0 82.5 L 63.5 84.0 L 69.5 85.0 L 78.5 82.0 Q 82.0 79.5 89.5 81.0 L 101.0 89.5 L 103.0 100.5 L 102.0 105.5 L 104.0 106.5 L 108.5 112.0 L 115.0 114.5 L 116.5 118.0 L 120.0 119.5 Q 119.3 123.3 121.5 124.0 Q 126.6 123.4 128.0 126.5 L 127.5 130.0 Q 125.2 132.7 119.5 132.0 L 110.5 130.0 L 103.0 128.5 Q 105.3 127.3 102.5 126.0 Q 94.4 125.6 92.0 119.5 L 89.0 113.5 Q 86.3 111.8 88.0 105.5 Q 88.4 96.6 82.5 94.0 L 67.5 96.0 Q 60.1 94.9 57.0 89.5 L 48.5 80.0 L 45.0 77.5 L 48.5 76.0 Z" desc="l 8 p 0" fill="red" opacity="1.0" stroke="red" stroke-width="1"/>
	<path d="M 387.5 100.0 L 389.5 111.0 L 391.5 116.0 L 395.5 121.0 L 397.0 121.5 L 397.5 123.0 L 398.0 120.5 L 397.0 115.5 L 401.0 118.5 L 402.0 123.5 L 403.0 127.5 L 406.0 130.5 L 402.0 133.5 L 401.5 135.0 Q 394.6 135.9 392.0 132.5 L 386.0 126.5 L 386.5 124.0 L 392.5 126.0 L 393.0 124.5 L 386.5 115.0 Q 383.3 111.7 385.0 103.5 L 387.5 100.0 Z" desc="l 8 p 1" fill="yellow" opacity="1.0" stroke="rgb(246,123,23)" stroke-width="1"/>
	<path d="M 314.5 110.0 L 322.5 111.0 Q 328.3 111.7 331.0 115.5 Q 334.1 120.4 343.5 119.0 Q 345.5 116.0 351.5 117.0 L 359.0 119.5 L 362.5 124.0 Q 364.8 125.8 364.0 130.5 Q 363.0 137.0 366.5 139.0 L 375.5 148.0 L 397.0 158.5 Q 396.3 160.8 392.5 160.0 L 382.5 160.0 Q 371.6 157.9 366.0 150.5 L 362.5 145.0 L 360.5 139.0 L 354.5 131.0 Q 351.5 128.0 344.5 129.0 Q 333.8 129.8 330.0 123.5 L 322.5 115.0 L 317.5 113.0 L 314.5 110.0 Z" desc="l 8 p 2" fill="red" opacity="1.0" stroke="red" stroke-width="1"/>
	<path d="M 147.5 120.0 Q 156.5 121.0 160.0 127.5 L 161.0 136.5 Q 160.1 141.9 162.5 144.0 L 165.5 142.0 Q 165.0 149.0 167.5 153.0 Q 171.5 153.5 172.0 150.5 L 174.0 143.5 Q 173.5 138.5 177.5 138.0 L 180.5 137.0 L 180.0 138.5 L 178.0 148.5 Q 181.0 150.5 180.0 156.5 Q 176.8 165.8 169.5 171.0 L 165.0 174.5 Q 164.0 180.0 167.5 181.0 Q 171.3 183.3 170.0 190.5 L 159.0 201.5 Q 152.4 203.9 154.0 214.5 L 155.5 215.0 L 163.0 208.5 L 164.0 212.5 L 159.5 220.0 L 157.0 224.5 L 156.0 232.5 L 163.0 235.5 L 164.5 239.0 Q 169.0 240.0 170.0 237.5 L 171.0 232.5 L 166.0 225.5 L 168.5 227.0 Q 172.9 231.1 182.5 230.0 L 189.5 227.0 Q 189.3 234.2 194.0 236.5 L 185.5 244.0 Q 182.5 250.0 171.5 248.0 L 161.5 246.0 L 159.5 245.0 L 153.0 241.5 L 147.5 231.0 L 146.0 225.5 L 146.0 213.5 L 156.0 191.5 L 159.0 182.5 L 161.0 175.5 L 161.0 164.5 L 160.0 160.5 Q 161.8 154.3 159.0 152.5 L 155.5 143.0 L 151.5 136.0 L 139.0 127.5 L 139.5 122.0 Q 142.3 126.2 148.5 127.0 L 149.0 123.5 Q 146.0 122.5 147.5 120.0 Z" desc="l 8 p 3" fill="red" opacity="1.0" stroke="red" stroke-width="1"/>
	<path d="M 131.5 126.0 L 135.0 126.5 L 132.5 133.0 L 131.0 132.5 L 129.0 127.5 L 131.5 126.0 Z" desc="l 8 p 4" fill="orange" opacity="1.0" stroke="rgb(246,123,23)" stroke-width="1"/>
	<path d="M 136.5 128.0 L 149.0 136.5 L 144.0 139.5 L 143.5 141.0 L 134.0 134.5 Q 133.0 129.0 136.5 128.0 Z" desc="l 8 p 5" fill="orange" opacity="1.0" stroke="rgb(246,123,23)" stroke-width="1"/>
	<path d="M 405.5 132.0 L 409.0 133.5 Q 410.8 135.8 415.5 135.0 Q 422.8 134.2 425.0 138.5 L 432.0 144.5 L 433.0 152.5 L 431.5 156.0 L 423.5 160.0 L 419.5 158.0 Q 414.3 158.8 413.5 155.0 L 404.0 145.5 Q 401.3 143.2 402.0 137.5 L 405.5 132.0 Z" desc="l 8 p 6" fill="orange" opacity="1.0" stroke="rgb(246,123,23)" stroke-width="1"/>
	<path d="M 132.5 134.0 L 134.5 137.0 L 137.0 138.5 L 130.5 141.0 L 129.0 138.5 L 132.5 134.0 Z" desc="l 8 p 7" fill="orange" opacity="1.0" stroke="rgb(246,123,23)" stroke-width="1"/>
	<path d="M 124.5 135.0 L 128.0 137.5 L 129.5 142.0 L 131.0 142.5 Q 129.8 147.8 132.5 149.0 L 133.0 147.5 L 132.0 142.5 L 135.5 141.0 L 137.0 141.5 L 138.5 139.0 L 144.0 142.5 Q 143.3 146.3 145.5 147.0 L 146.0 145.5 L 145.0 140.5 L 150.5 137.0 L 154.0 142.5 L 150.0 143.5 L 149.0 146.5 L 151.0 147.5 L 151.5 144.0 L 155.0 145.5 L 157.0 150.5 L 159.0 154.5 L 153.0 159.5 L 153.5 162.0 L 156.5 158.0 L 158.5 157.0 L 159.5 165.0 L 160.0 177.5 L 157.5 183.0 L 151.0 178.5 L 150.0 172.5 Q 151.8 168.3 153.5 171.0 L 158.5 173.0 L 159.0 171.5 L 151.5 169.0 Q 151.0 172.5 146.5 172.0 L 143.5 173.0 L 140.0 167.5 L 141.5 165.0 Q 145.5 164.5 146.0 167.5 L 147.5 170.0 L 148.0 168.5 L 147.0 164.5 Q 147.8 162.3 151.5 163.0 L 155.5 169.0 L 156.0 166.5 L 152.5 162.0 Q 147.3 160.8 146.0 163.5 L 145.5 165.0 L 140.5 164.0 L 139.5 166.0 L 139.0 160.5 L 141.5 156.0 Q 145.5 155.5 146.0 158.5 L 146.5 160.0 L 147.0 157.5 L 146.5 156.0 L 149.0 153.5 L 148.5 150.0 L 147.0 150.5 L 148.0 152.5 L 144.5 155.0 L 142.0 153.5 L 140.5 147.0 L 140.0 152.5 L 141.0 154.5 L 138.5 158.0 L 134.5 152.0 L 129.0 149.5 L 128.5 148.0 L 124.5 149.0 Q 123.8 146.3 119.5 147.0 Q 113.8 147.8 113.0 143.5 L 112.0 139.5 Q 112.8 137.3 116.5 138.0 L 121.5 140.0 L 124.5 135.0 Z" desc="l 8 p 8" fill="orange" opacity="1.0" stroke="rgb(246,123,23)" stroke-width="1"/>
	<path d="M 476.5 137.0 L 479.0 137.5 L 478.0 145.5 L 480.5 147.0 Q 485.6 142.6 496.5 144.0 L 495.5 146.0 L 492.0 148.5 L 492.5 154.0 L 503.5 153.0 L 509.0 157.5 L 516.5 167.0 L 518.0 167.5 L 513.5 168.0 L 506.5 162.0 Q 504.8 159.2 499.5 160.0 L 498.0 165.5 Q 503.9 165.6 506.0 169.5 L 510.0 179.5 L 508.5 182.0 L 502.5 173.0 Q 497.3 171.8 496.0 174.5 L 499.5 179.0 Q 502.5 180.5 501.0 186.5 L 499.0 187.5 L 494.5 182.0 L 488.5 181.0 L 482.5 183.0 L 480.0 181.5 Q 479.5 177.5 482.5 177.0 L 487.5 178.0 L 486.5 176.0 L 484.0 175.5 L 484.5 174.0 Q 489.9 174.9 492.0 172.5 L 489.5 172.0 L 486.5 173.0 L 486.0 171.5 L 487.5 167.0 Q 492.1 166.4 493.5 169.0 L 494.0 167.5 L 487.0 165.5 L 489.5 162.0 L 493.0 161.5 L 488.5 161.0 L 486.5 162.0 L 485.0 159.5 L 487.5 156.0 L 491.0 154.5 L 489.5 154.0 L 486.0 155.5 L 484.5 158.0 L 481.0 154.5 L 480.0 151.5 L 483.0 150.5 L 479.5 150.0 L 478.5 153.0 L 475.5 152.0 L 467.5 152.0 L 466.0 152.5 Q 465.2 146.7 468.5 145.0 L 469.5 149.0 L 470.5 144.0 L 472.0 143.5 L 474.5 138.0 L 476.5 137.0 Z" desc="l 8 p 9" fill="red" opacity="1.0" stroke="red" stroke-width="1"/>
	<path d="M 435.5 141.0 L 439.0 143.5 L 442.5 150.0 Q 444.8 149.3 444.0 145.5 L 443.0 142.5 L 444.5 142.0 L 448.0 144.5 L 449.0 153.5 L 448.0 155.5 L 449.5 156.0 L 452.5 151.0 L 453.0 155.5 L 447.5 163.0 L 446.5 159.0 L 445.5 162.0 Q 444.8 159.3 440.5 160.0 L 437.0 162.5 L 435.5 165.0 L 426.5 169.0 L 423.5 168.0 L 421.0 169.5 L 420.0 173.5 L 421.0 175.5 L 419.5 179.0 L 414.5 184.0 L 404.5 185.0 L 407.0 181.5 L 411.0 175.5 L 409.5 175.0 L 407.5 176.0 L 401.0 173.5 L 402.5 171.0 L 398.0 174.5 Q 404.8 174.2 408.0 177.5 Q 407.3 179.8 403.5 179.0 L 394.5 181.0 Q 390.8 177.7 382.5 179.0 L 374.5 182.0 L 367.5 183.0 L 358.5 178.0 L 345.5 170.0 Q 341.5 164.0 330.5 165.0 Q 316.5 167.5 313.0 159.5 Q 309.8 151.7 303.0 147.5 L 312.5 147.0 L 318.0 151.5 L 321.5 156.0 Q 324.7 158.3 331.5 157.0 L 337.5 154.0 L 342.5 157.0 L 350.5 158.0 L 352.5 158.0 L 356.0 161.5 L 359.5 166.0 L 366.5 170.0 L 372.5 171.0 L 385.5 172.0 L 392.5 167.0 L 397.5 165.0 L 406.0 168.5 L 403.0 170.5 L 404.5 171.0 L 409.0 168.5 L 403.0 165.5 Q 406.8 161.8 415.0 162.5 L 414.0 159.5 L 418.5 159.0 L 422.0 161.5 L 423.0 163.5 L 420.0 164.5 L 424.5 165.0 L 424.0 163.5 L 423.0 161.5 Q 430.1 161.1 433.0 156.5 L 435.5 141.0 Z" desc="l 8 p 10" fill="red" opacity="1.0" stroke="red" stroke-width="1"/>
	<path d="M 110.5 144.0 L 115.0 147.5 L 111.5 152.0 Q 104.2 160.2 86.5 158.0 L 77.0 153.5 Q 74.3 150.7 67.5 152.0 L 52.5 158.0 L 52.5 157.0 L 65.0 148.5 Q 67.5 143.5 76.5 145.0 L 85.0 149.5 Q 88.3 152.7 96.5 151.0 L 100.0 149.5 L 100.5 147.0 L 102.0 146.5 L 102.5 145.0 L 108.5 146.0 L 110.5 144.0 Z" desc="l 1 p 2" fill="gray" opacity="1.0" stroke="gray" stroke-width="1"/>
	<path d="M 468.5 153.0 Q 476.0 151.5 479.0 154.5 L 484.0 159.5 Q 487.0 162.5 486.0 169.5 L 478.5 179.0 L 474.0 178.5 Q 475.0 172.0 471.5 170.0 L 464.5 169.0 Q 458.8 170.3 456.0 174.5 Q 454.7 181.3 457.0 184.5 L 448.5 185.0 Q 446.5 182.0 440.5 183.0 L 437.0 185.5 L 436.0 194.5 Q 443.5 203.0 457.5 205.0 L 465.5 206.0 Q 473.8 206.8 477.0 212.5 L 478.0 220.5 L 475.5 224.0 Q 472.3 226.8 466.0 226.5 L 465.0 230.5 L 461.5 234.0 L 455.5 235.0 L 459.0 230.5 Q 458.0 225.5 461.0 224.5 L 459.5 224.0 L 448.5 228.0 L 449.0 226.5 L 452.0 220.5 L 450.5 220.0 Q 448.5 223.0 442.5 222.0 L 445.0 218.5 L 447.0 213.5 Q 434.8 213.2 429.0 206.5 L 426.5 200.0 L 423.0 203.5 Q 421.3 206.8 414.5 205.0 L 402.5 197.0 L 405.0 200.5 L 403.5 203.0 L 402.5 201.0 L 400.5 204.0 Q 394.3 205.3 393.0 201.5 Q 396.0 199.0 395.5 193.0 Q 399.5 192.5 400.0 195.5 L 400.5 197.0 L 402.0 196.5 L 399.5 193.0 L 398.0 189.5 L 398.0 182.5 Q 399.7 179.2 405.5 180.0 L 402.0 184.5 L 402.5 186.0 L 413.5 185.0 Q 418.5 185.5 419.0 181.5 Q 421.6 176.6 428.0 175.5 L 429.5 173.0 Q 437.2 173.7 440.0 169.5 L 440.5 168.0 L 446.5 167.0 Q 452.9 167.9 454.5 164.0 L 460.0 159.5 L 462.5 156.0 L 468.5 153.0 Z" desc="l 8 p 11" fill="orange" opacity="1.0" stroke="rgb(246,123,23)" stroke-width="1"/>
	<path d="M 256.5 164.0 L 269.5 164.0 Q 275.3 163.2 277.0 166.5 L 283.0 172.5 L 283.5 174.0 Q 291.3 172.3 293.0 176.5 L 294.5 180.0 Q 302.8 178.7 306.5 182.0 L 317.0 187.5 L 320.5 199.0 Q 328.6 198.9 331.0 204.5 L 333.0 214.5 L 323.5 226.0 Q 318.1 229.1 308.5 228.0 L 300.5 225.0 L 295.0 223.5 L 296.0 220.5 L 296.0 212.5 L 293.5 209.0 L 292.0 208.5 Q 295.6 205.6 294.0 197.5 Q 292.5 190.6 287.5 187.0 L 280.5 183.0 L 274.5 182.0 L 261.5 182.0 Q 260.3 184.3 255.5 183.0 Q 247.0 184.5 243.0 190.5 Q 238.3 195.3 240.0 206.5 L 243.5 211.0 Q 248.8 209.8 250.0 212.5 L 251.5 215.0 L 258.5 217.0 L 269.5 217.0 L 273.0 214.5 L 276.0 207.5 L 271.5 201.0 L 264.5 200.0 L 257.0 203.5 Q 255.8 209.8 259.5 211.0 L 265.0 210.5 L 264.5 208.0 L 263.5 210.0 Q 258.8 210.8 258.0 207.5 Q 257.3 203.8 259.5 203.0 L 268.5 201.0 L 274.0 205.5 L 275.0 208.5 L 271.5 214.0 Q 270.1 216.6 265.5 216.0 L 256.5 216.0 L 251.0 212.5 Q 248.4 211.1 249.0 206.5 L 248.5 201.0 L 247.5 210.0 Q 242.8 210.8 242.0 207.5 Q 239.7 204.3 241.0 197.5 Q 243.3 190.8 248.5 187.0 Q 253.3 183.3 262.0 183.5 L 277.5 183.0 L 290.0 191.5 Q 293.9 195.6 293.0 204.5 L 291.5 207.0 Q 291.8 197.2 285.5 194.0 L 279.5 191.0 L 274.5 190.0 L 265.5 190.0 Q 254.5 192.0 249.0 199.5 L 249.5 201.0 Q 256.7 189.7 276.5 191.0 Q 284.5 193.5 289.0 199.5 L 290.0 206.5 Q 287.3 208.3 291.5 210.0 L 294.0 211.5 Q 296.3 214.7 295.0 221.5 L 293.0 226.5 L 290.5 230.0 Q 287.3 232.3 280.5 231.0 L 278.5 230.0 Q 277.0 234.5 269.5 233.0 L 263.5 231.0 L 253.5 224.0 Q 250.6 232.1 237.5 230.0 L 234.0 228.5 Q 233.6 221.9 229.5 219.0 L 223.0 214.5 L 224.0 209.5 L 227.5 206.0 L 229.5 207.0 L 230.0 205.5 L 225.5 204.0 L 221.5 203.0 L 215.0 199.5 Q 210.3 194.7 212.0 183.5 Q 213.3 177.8 217.5 175.0 Q 221.5 171.0 229.5 171.0 L 241.5 171.0 L 245.5 173.0 Q 246.0 167.5 250.5 166.0 L 256.5 164.0 Z" desc="l 1 p 3" fill="gray" opacity="1.0" stroke="rgb(246,123,23)" stroke-width="1"/>
	<path d="M 435.5 166.0 L 439.0 167.5 L 438.5 169.0 Q 435.5 172.0 429.5 172.0 L 429.0 169.5 L 435.5 166.0 Z" desc="l 8 p 12" fill="orange" opacity="1.0" stroke="rgb(246,123,23)" stroke-width="1"/>
	<path d="M 351.5 168.0 Q 356.3 166.8 357.5 169.0 L 363.0 172.5 Q 364.4 175.6 369.5 175.0 L 379.5 175.0 Q 381.0 172.5 386.5 174.0 L 388.5 175.0 L 391.0 173.5 L 391.5 172.0 L 392.0 174.5 L 386.5 176.0 L 381.5 175.0 L 377.5 176.0 L 365.5 176.0 L 356.0 169.5 L 353.5 169.0 Q 350.5 169.5 351.5 168.0 Z" desc="l 0 p 2" fill="white" opacity="1.0" stroke="rgb(246,123,23)" stroke-width="1"/>
	<path d="M 465.5 170.0 Q 470.6 169.4 472.0 172.5 L 473.0 180.5 L 471.0 181.5 L 470.5 178.0 L 463.5 177.0 L 459.5 185.0 Q 455.8 182.8 457.0 175.5 Q 459.8 171.3 465.5 170.0 Z" desc="l 8 p 13" fill="orange" opacity="1.0" stroke="rgb(246,123,23)" stroke-width="1"/>
	<path d="M 139.5 171.0 Q 143.0 172.0 142.0 177.5 L 138.5 179.0 L 138.0 174.5 L 139.5 171.0 Z" desc="l 8 p 14" fill="orange" opacity="1.0" stroke="rgb(246,123,23)" stroke-width="1"/>
	<path d="M 145.5 173.0 L 149.0 173.5 L 150.0 179.5 L 147.5 181.0 L 143.0 177.5 Q 142.5 173.5 145.5 173.0 Z" desc="l 8 p 15" fill="orange" opacity="1.0" stroke="rgb(246,123,23)" stroke-width="1"/>
	<path d="M 464.5 178.0 Q 469.3 177.3 470.0 180.5 L 467.5 185.0 L 462.0 183.5 L 464.5 178.0 Z" desc="l 8 p 16" fill="green" opacity="1.0" stroke="rgb(246,123,23)" stroke-width="1"/>
	<path d="M 140.5 179.0 L 147.0 182.5 Q 145.8 187.3 148.0 188.5 L 141.5 190.0 Q 137.4 188.1 137.0 182.5 L 138.5 180.0 L 140.5 179.0 Z" desc="l 8 p 17" fill="orange" opacity="1.0" stroke="rgb(246,123,23)" stroke-width="1"/>
	<path d="M 149.5 181.0 L 157.0 184.5 L 153.5 193.0 L 150.0 190.5 Q 147.3 188.2 148.0 182.5 L 149.5 181.0 Z" desc="l 8 p 18" fill="orange" opacity="1.0" stroke="rgb(246,123,23)" stroke-width="1"/>
	<path d="M 135.5 183.0 L 137.0 187.5 L 133.5 188.0 L 135.0 185.5 L 135.5 183.0 Z" desc="l 8 p 19" fill="orange" opacity="1.0" stroke="rgb(246,123,23)" stroke-width="1"/>
	<path d="M 441.5 184.0 L 447.0 185.5 L 442.0 188.5 L 440.5 197.0 Q 435.8 195.8 437.0 188.5 L 439.5 185.0 L 441.5 184.0 Z" desc="l 8 p 20" fill="orange" opacity="1.0" stroke="rgb(246,123,23)" stroke-width="1"/>
	<path d="M 461.5 185.0 L 466.0 186.5 L 462.5 192.0 L 459.0 186.5 L 461.5 185.0 Z" desc="l 8 p 21" fill="white" opacity="1.0" stroke="rgb(246,123,23)" stroke-width="1"/>
	<path d="M 450.5 186.0 L 456.0 186.5 L 454.5 190.0 L 452.5 187.0 Q 449.5 187.5 450.5 186.0 Z" desc="l 8 p 22" fill="orange" opacity="1.0" stroke="rgb(246,123,23)" stroke-width="1"/>
	<path d="M 134.5 189.0 Q 140.0 188.0 141.0 191.5 L 140.5 195.0 Q 134.5 196.5 133.0 193.5 Q 132.3 189.8 134.5 189.0 Z" desc="l 8 p 23" fill="orange" opacity="1.0" stroke="rgb(246,123,23)" stroke-width="1"/>
	<path d="M 131.5 190.0 L 133.0 196.5 L 131.5 199.0 L 127.5 201.0 L 127.0 199.5 L 131.5 190.0 Z" desc="l 8 p 24" fill="orange" opacity="1.0" stroke="rgb(246,123,23)" stroke-width="1"/>
	<path d="M 143.5 190.0 L 149.0 190.5 L 151.5 194.0 L 153.0 194.5 L 150.5 200.0 L 143.0 195.5 L 142.0 192.5 L 143.5 190.0 Z" desc="l 8 p 25" fill="orange" opacity="1.0" stroke="rgb(246,123,23)" stroke-width="1"/>
	<path d="M 391.5 193.0 L 394.0 193.5 Q 394.8 199.3 391.5 201.0 L 385.5 202.0 L 385.0 200.5 L 389.5 194.0 L 391.5 193.0 Z" desc="l 8 p 26" fill="orange" opacity="1.0" stroke="rgb(246,123,23)" stroke-width="1"/>
	<path d="M 134.5 196.0 Q 141.3 194.3 143.0 197.5 L 140.0 199.5 L 139.5 205.0 Q 133.8 205.8 133.0 201.5 L 134.0 199.5 L 134.0 197.5 L 134.5 196.0 Z" desc="l 8 p 27" fill="orange" opacity="1.0" stroke="rgb(246,123,23)" stroke-width="1"/>
	<path d="M 383.5 196.0 L 386.0 196.5 L 383.5 202.0 L 378.5 210.0 L 376.0 211.5 L 374.0 221.5 L 375.0 221.5 L 376.0 216.5 L 378.5 211.0 L 380.0 221.5 L 383.0 228.5 L 388.0 235.5 L 389.0 239.5 Q 386.5 241.0 388.0 246.5 L 390.0 247.5 L 389.0 241.5 L 390.5 238.0 L 397.5 244.0 L 395.5 240.0 L 404.5 241.0 Q 408.3 240.3 409.0 242.5 L 410.0 246.5 L 407.5 250.0 L 411.0 247.5 L 411.5 246.0 Q 418.5 244.5 420.0 248.5 L 419.5 256.0 Q 412.0 256.0 409.0 251.5 L 398.5 244.0 L 398.0 245.5 L 413.0 256.5 L 415.5 262.0 L 418.5 263.0 L 417.5 261.0 L 415.0 259.5 L 415.5 257.0 Q 430.6 256.9 436.0 266.5 L 428.5 268.0 Q 426.5 264.0 418.5 266.0 L 418.0 272.5 Q 421.3 273.8 420.0 279.5 L 418.5 280.0 Q 411.9 274.6 411.0 263.5 Q 409.8 257.8 405.5 255.0 L 401.5 254.0 L 399.0 255.5 L 398.5 260.0 L 395.0 255.5 L 392.5 250.0 L 391.0 255.5 L 390.5 261.0 L 387.5 257.0 L 386.0 256.5 Q 381.3 253.7 383.0 244.5 Q 385.3 243.3 384.0 238.5 Q 382.8 234.8 376.5 236.0 L 374.5 241.0 Q 372.3 239.3 373.0 234.5 Q 375.5 233.0 374.0 227.5 L 372.5 227.0 L 369.5 231.0 L 366.5 232.0 L 367.0 230.5 Q 371.5 226.0 370.0 215.5 Q 367.5 214.0 369.0 208.5 L 383.5 196.0 Z" desc="l 8 p 28" fill="red" opacity="1.0" stroke="rgb(246,123,23)" stroke-width="1"/>
	<path d="M 464.5 198.0 L 470.0 202.5 L 469.5 206.0 L 465.0 204.5 L 464.5 198.0 Z" desc="l 8 p 29" fill="white" opacity="1.0" stroke="rgb(246,123,23)" stroke-width="1"/>
	<path d="M 142.5 199.0 Q 147.8 197.8 149.0 200.5 Q 149.6 207.1 145.5 209.0 L 141.0 205.5 Q 139.8 200.3 142.5 199.0 Z" desc="l 8 p 30" fill="orange" opacity="1.0" stroke="rgb(246,123,23)" stroke-width="1"/>
	<path d="M 130.5 200.0 L 132.0 200.5 L 135.0 206.5 Q 132.8 207.8 134.0 212.5 L 137.0 216.5 L 139.0 221.5 Q 136.3 222.8 136.5 227.0 L 133.0 225.5 L 132.0 219.5 L 133.5 217.0 L 131.0 218.5 Q 132.5 224.5 129.5 226.0 L 122.0 222.5 L 122.5 219.0 L 123.5 221.0 Q 128.8 222.3 130.0 219.5 L 129.0 214.5 L 130.5 212.0 L 132.0 211.5 L 127.0 207.5 Q 126.0 201.0 130.5 200.0 Z" desc="l 8 p 31" fill="orange" opacity="1.0" stroke="rgb(246,123,23)" stroke-width="1"/>
	<path d="M 473.5 200.0 L 477.0 202.5 Q 478.0 207.0 475.5 208.0 L 471.0 205.5 L 471.5 203.0 L 473.0 202.5 L 473.5 200.0 Z" desc="l 8 p 32" fill="white" opacity="1.0" stroke="rgb(246,123,23)" stroke-width="1"/>
	<path d="M 390.5 202.0 L 397.0 205.5 Q 396.6 212.1 392.5 215.0 Q 387.5 215.5 387.0 211.5 L 387.5 203.0 L 390.5 202.0 Z" desc="l 8 p 33" fill="orange" opacity="1.0" stroke="rgb(246,123,23)" stroke-width="1"/>
	<path d="M 384.5 203.0 L 386.0 203.5 Q 383.8 214.3 390.0 216.5 L 388.0 219.5 L 391.5 217.0 L 393.0 217.5 L 393.5 219.0 L 398.0 221.5 Q 398.8 226.3 395.5 227.0 L 393.0 226.5 L 393.5 225.0 L 390.5 226.0 L 387.0 223.5 L 388.0 220.5 Q 381.7 221.3 380.0 217.5 Q 378.7 210.7 381.5 208.0 L 384.5 203.0 Z" desc="l 8 p 34" fill="orange" opacity="1.0" stroke="rgb(246,123,23)" stroke-width="1"/>
	<path d="M 480.5 204.0 Q 483.5 204.5 483.0 208.5 L 480.5 214.0 L 478.0 212.5 L 476.0 209.5 L 480.0 207.5 L 480.5 204.0 Z" desc="l 8 p 35" fill="white" opacity="1.0" stroke="rgb(246,123,23)" stroke-width="1"/>
	<path d="M 125.5 205.0 Q 125.6 210.4 129.0 212.5 L 128.0 217.5 Q 130.3 218.8 127.5 220.0 L 124.0 219.5 L 122.0 215.5 L 125.5 205.0 Z" desc="l 8 p 36" fill="orange" opacity="1.0" stroke="rgb(246,123,23)" stroke-width="1"/>
	<path d="M 398.5 205.0 L 401.0 205.5 Q 399.7 214.8 403.0 219.5 L 397.5 220.0 L 394.0 217.5 L 398.5 205.0 Z" desc="l 8 p 37" fill="orange" opacity="1.0" stroke="rgb(246,123,23)" stroke-width="1"/>
	<path d="M 137.5 206.0 L 146.0 210.5 L 145.5 212.0 L 138.5 211.0 Q 136.8 214.8 135.0 211.5 Q 134.3 206.8 137.5 206.0 Z" desc="l 8 p 38" fill="orange" opacity="1.0" stroke="rgb(246,123,23)" stroke-width="1"/>
	<path d="M 344.5 209.0 L 349.5 215.0 Q 352.8 216.8 353.0 221.5 Q 353.9 229.6 358.0 234.5 Q 355.0 239.5 356.0 248.5 Q 357.5 255.0 362.5 258.0 L 367.0 259.5 Q 370.0 263.0 369.5 270.0 L 370.0 262.5 L 367.5 258.0 L 366.0 257.5 Q 367.3 250.7 365.0 247.5 L 369.5 251.0 L 372.0 252.5 L 373.5 258.0 Q 375.8 259.8 375.0 264.5 Q 374.2 271.8 377.5 275.0 L 382.0 275.5 L 382.5 279.0 L 383.0 274.5 L 382.0 272.5 L 385.0 274.5 L 387.5 280.0 L 391.0 279.5 L 391.5 272.0 L 398.0 275.5 L 402.5 286.0 L 404.0 286.5 L 408.5 292.0 L 413.0 293.5 L 404.5 294.0 L 397.5 292.0 L 394.0 290.5 L 398.0 287.5 L 397.5 283.0 L 395.5 288.0 L 390.5 290.0 L 382.5 285.0 L 376.0 280.5 L 364.0 268.5 L 346.0 232.5 Q 348.8 229.8 348.0 223.5 L 346.5 223.0 L 347.0 224.5 Q 347.5 230.0 344.5 232.0 L 334.5 221.0 L 332.0 219.5 L 335.5 213.0 L 338.0 214.5 L 340.5 219.0 L 344.5 220.0 L 345.0 216.5 Q 342.2 214.7 344.5 209.0 Z" desc="l 8 p 39" fill="red" opacity="1.0" stroke="rgb(246,123,23)" stroke-width="1"/>
	<path d="M 505.5 210.0 Q 512.1 209.4 514.0 213.5 L 510.0 216.5 L 509.0 220.5 L 513.0 223.5 L 512.5 225.0 L 509.0 226.5 L 507.5 236.0 L 504.0 235.5 L 503.0 230.5 L 502.0 221.5 Q 503.6 218.6 509.0 219.5 L 502.5 219.0 L 501.0 222.5 L 501.0 229.5 Q 504.0 231.5 503.0 237.5 Q 502.3 239.8 498.5 239.0 L 494.5 230.0 Q 491.4 227.1 492.0 220.5 L 495.5 216.0 L 499.0 213.5 L 500.5 211.0 L 505.5 210.0 Z" desc="l 8 p 40" fill="orange" opacity="1.0" stroke="rgb(246,123,23)" stroke-width="1"/>
	<path d="M 139.5 212.0 L 145.0 213.5 L 144.5 223.0 L 139.0 219.5 L 138.0 213.5 L 139.5 212.0 Z" desc="l 8 p 41" fill="orange" opacity="1.0" stroke="rgb(246,123,23)" stroke-width="1"/>
	<path d="M 514.5 215.0 Q 516.8 215.8 516.0 219.5 L 514.5 222.0 L 511.0 219.5 L 512.5 216.0 L 514.5 215.0 Z" desc="l 8 p 42" fill="orange" opacity="1.0" stroke="rgb(246,123,23)" stroke-width="1"/>
	<path d="M 517.5 218.0 L 522.5 219.0 Q 526.5 218.5 527.0 221.5 L 526.5 227.0 L 521.5 226.0 L 519.5 229.0 L 514.0 224.5 L 517.5 218.0 Z" desc="l 8 p 43" fill="orange" opacity="1.0" stroke="rgb(246,123,23)" stroke-width="1"/>
	<path d="M 330.5 221.0 L 338.0 226.5 L 336.0 227.5 L 334.5 231.0 L 331.0 228.5 L 333.5 232.0 L 335.0 232.5 L 334.5 236.0 L 328.5 237.0 L 325.0 229.5 Q 326.4 226.9 331.0 227.5 L 330.5 221.0 Z" desc="l 8 p 44" fill="orange" opacity="1.0" stroke="rgb(246,123,23)" stroke-width="1"/>
	<path d="M 381.5 221.0 L 386.0 221.5 L 386.5 225.0 L 392.0 228.5 L 390.5 233.0 L 385.0 229.5 L 382.0 224.5 L 381.5 221.0 Z" desc="l 8 p 45" fill="orange" opacity="1.0" stroke="rgb(246,123,23)" stroke-width="1"/>
	<path d="M 399.5 221.0 Q 406.0 220.0 407.0 224.5 L 408.0 227.5 L 405.5 231.0 Q 399.7 231.8 398.0 228.5 L 399.5 221.0 Z" desc="l 8 p 46" fill="orange" opacity="1.0" stroke="rgb(246,123,23)" stroke-width="1"/>
	<path d="M 140.5 222.0 L 145.0 224.5 Q 143.8 229.3 146.0 230.5 L 149.0 236.5 L 147.5 242.0 L 144.0 241.5 L 141.5 238.0 L 140.0 238.5 Q 145.5 241.0 141.0 243.5 L 139.5 247.0 Q 134.5 247.5 134.0 243.5 Q 133.0 239.0 135.5 238.0 L 140.0 237.5 Q 137.0 236.5 138.0 231.5 L 143.5 231.0 L 145.0 231.5 L 144.5 230.0 L 138.0 229.5 Q 136.8 223.3 140.5 222.0 Z" desc="l 8 p 47" fill="orange" opacity="1.0" stroke="rgb(246,123,23)" stroke-width="1"/>
	<path d="M 328.5 223.0 L 329.0 226.5 L 323.5 228.0 L 323.5 227.0 L 328.5 223.0 Z" desc="l 8 p 48" fill="orange" opacity="1.0" stroke="rgb(246,123,23)" stroke-width="1"/>
	<path d="M 131.5 226.0 L 137.0 228.5 L 136.5 237.0 L 134.0 236.5 L 131.5 233.0 Q 129.0 232.0 130.0 227.5 L 131.5 226.0 Z" desc="l 8 p 49" fill="orange" opacity="1.0" stroke="rgb(246,123,23)" stroke-width="1"/>
	<path d="M 522.5 227.0 L 526.0 228.5 L 522.5 236.0 L 521.0 228.5 L 522.5 227.0 Z" desc="l 8 p 50" fill="orange" opacity="1.0" stroke="rgb(246,123,23)" stroke-width="1"/>
	<path d="M 337.5 228.0 Q 342.5 227.5 343.0 231.5 L 347.0 238.5 L 339.5 240.0 Q 335.8 238.0 337.5 236.0 L 336.0 235.5 Q 335.1 230.1 337.5 228.0 Z" desc="l 8 p 51" fill="orange" opacity="1.0" stroke="rgb(246,123,23)" stroke-width="1"/>
	<path d="M 393.5 228.0 L 397.0 228.5 Q 400.0 230.5 399.0 236.5 L 397.5 239.0 L 392.5 238.0 L 389.0 234.5 L 392.0 233.5 L 393.5 228.0 Z" desc="l 8 p 52" fill="orange" opacity="1.0" stroke="rgb(246,123,23)" stroke-width="1"/>
	<path d="M 409.5 228.0 L 411.0 228.5 L 411.5 230.0 L 418.0 234.5 L 411.5 238.0 L 408.0 229.5 L 409.5 228.0 Z" desc="l 8 p 53" fill="orange" opacity="1.0" stroke="rgb(246,123,23)" stroke-width="1"/>
	<path d="M 308.5 229.0 L 315.0 229.5 Q 312.0 230.5 313.0 235.5 Q 315.8 236.3 315.0 240.5 L 312.5 239.0 L 310.0 237.5 Q 310.6 231.0 308.5 229.0 Z" desc="l 8 p 54" fill="orange" opacity="1.0" stroke="rgb(246,123,23)" stroke-width="1"/>
	<path d="M 317.5 229.0 Q 322.8 227.8 324.0 230.5 L 326.0 236.5 Q 325.3 238.8 321.5 238.0 L 318.5 237.0 Q 314.5 237.5 314.0 234.5 Q 313.5 229.5 317.5 229.0 Z" desc="l 8 p 55" fill="orange" opacity="1.0" stroke="rgb(246,123,23)" stroke-width="1"/>
	<path d="M 400.5 232.0 Q 407.3 230.3 409.0 233.5 L 408.0 237.5 L 408.5 239.0 L 402.5 240.0 L 399.0 238.5 L 400.5 232.0 Z" desc="l 8 p 56" fill="orange" opacity="1.0" stroke="rgb(246,123,23)" stroke-width="1"/>
	<path d="M 130.5 234.0 Q 134.3 235.3 133.0 241.5 L 132.0 241.5 L 130.5 234.0 Z" desc="l 8 p 57" fill="orange" opacity="1.0" stroke="rgb(246,123,23)" stroke-width="1"/>
	<path d="M 418.5 236.0 L 424.0 238.5 L 422.5 241.0 L 416.0 240.5 L 417.0 238.5 L 416.5 237.0 L 418.5 236.0 Z" desc="l 8 p 58" fill="orange" opacity="1.0" stroke="rgb(246,123,23)" stroke-width="1"/>
	<path d="M 195.5 237.0 L 205.0 243.5 L 202.5 247.0 L 195.5 248.0 Q 191.5 247.5 192.0 242.5 L 192.5 241.0 L 191.0 241.5 Q 190.0 248.0 194.5 249.0 L 196.0 249.5 L 194.5 254.0 L 191.5 255.0 L 185.0 250.5 Q 184.0 245.5 187.0 244.5 L 193.5 238.0 L 195.5 237.0 Z" desc="l 8 p 59" fill="orange" opacity="1.0" stroke="rgb(246,123,23)" stroke-width="1"/>
	<path d="M 331.5 237.0 L 336.0 237.5 L 338.5 241.0 L 340.0 241.5 L 338.5 249.0 L 332.0 246.5 Q 329.3 244.2 330.0 238.5 L 331.5 237.0 Z" desc="l 8 p 60" fill="orange" opacity="1.0" stroke="rgb(246,123,23)" stroke-width="1"/>
	<path d="M 495.5 237.0 L 497.5 240.0 L 501.0 240.5 L 502.0 243.5 L 496.5 244.0 L 494.0 238.5 L 495.5 237.0 Z" desc="l 8 p 61" fill="orange" opacity="1.0" stroke="rgb(246,123,23)" stroke-width="1"/>
	<path d="M 505.5 237.0 Q 512.1 236.4 514.0 240.5 Q 515.5 243.5 521.5 242.0 Q 527.5 240.5 529.0 243.5 Q 530.0 248.0 527.5 249.0 L 526.0 249.5 L 524.5 253.0 L 520.5 255.0 L 516.0 251.5 L 513.5 247.0 Q 504.5 248.5 503.0 242.5 L 505.5 237.0 Z" desc="l 8 p 62" fill="orange" opacity="1.0" stroke="rgb(246,123,23)" stroke-width="1"/>
	<path d="M 149.5 238.0 L 153.5 244.0 L 158.0 246.5 L 157.5 248.0 Q 155.1 244.4 149.0 244.5 L 149.5 238.0 Z" desc="l 8 p 63" fill="orange" opacity="1.0" stroke="rgb(246,123,23)" stroke-width="1"/>
	<path d="M 317.5 238.0 L 322.0 239.5 L 323.0 244.5 L 326.5 249.0 L 331.0 251.5 L 330.0 255.5 Q 332.8 257.3 328.5 259.0 L 320.0 247.5 L 317.5 244.0 Q 315.3 243.3 316.0 239.5 L 317.5 238.0 Z" desc="l 8 p 64" fill="orange" opacity="1.0" stroke="rgb(246,123,23)" stroke-width="1"/>
	<path d="M 326.5 238.0 L 329.0 238.5 Q 327.8 243.3 330.0 244.5 L 331.0 249.5 L 328.5 248.0 L 325.0 245.5 L 323.0 241.5 L 324.5 239.0 L 326.5 238.0 Z" desc="l 8 p 65" fill="orange" opacity="1.0" stroke="rgb(246,123,23)" stroke-width="1"/>
	<path d="M 414.5 238.0 L 415.0 242.5 L 413.5 245.0 L 411.0 244.5 L 409.0 240.5 L 414.5 238.0 Z" desc="l 8 p 66" fill="orange" opacity="1.0" stroke="rgb(246,123,23)" stroke-width="1"/>
	<path d="M 425.5 239.0 L 433.0 242.5 L 431.5 246.0 L 428.5 245.0 L 424.5 242.0 L 424.0 243.5 L 429.0 247.5 Q 428.5 251.5 423.5 251.0 L 421.0 249.5 Q 421.5 245.5 418.5 245.0 L 415.0 244.5 L 416.5 242.0 Q 423.3 243.8 425.0 240.5 L 425.5 239.0 Z" desc="l 8 p 67" fill="orange" opacity="1.0" stroke="rgb(246,123,23)" stroke-width="1"/>
	<path d="M 342.5 240.0 Q 347.8 238.8 349.0 241.5 L 353.0 249.5 L 348.0 251.5 L 347.5 253.0 L 340.0 247.5 L 342.5 240.0 Z" desc="l 8 p 68" fill="orange" opacity="1.0" stroke="rgb(246,123,23)" stroke-width="1"/>
	<path d="M 143.5 243.0 L 148.0 243.5 L 148.0 249.5 L 147.0 253.5 L 145.5 258.0 L 137.0 248.5 L 139.5 248.0 L 141.5 252.0 L 143.0 251.5 L 141.0 247.5 L 143.5 243.0 Z" desc="l 8 p 69" fill="orange" opacity="1.0" stroke="rgb(246,123,23)" stroke-width="1"/>
	<path d="M 434.5 243.0 L 444.0 245.5 Q 444.5 249.5 441.5 250.0 L 438.5 246.0 L 434.0 244.5 L 434.5 243.0 Z" desc="l 8 p 70" fill="orange" opacity="1.0" stroke="rgb(246,123,23)" stroke-width="1"/>
	<path d="M 493.5 243.0 Q 495.0 246.1 500.0 245.5 L 501.0 252.5 L 494.5 253.0 L 492.0 251.5 L 493.5 243.0 Z" desc="l 8 p 71" fill="orange" opacity="1.0" stroke="rgb(246,123,23)" stroke-width="1"/>
	<path d="M 206.5 244.0 Q 208.8 246.7 214.5 246.0 L 224.0 246.5 Q 224.8 250.3 222.5 251.0 L 218.5 256.0 L 215.0 254.5 L 214.5 247.0 L 210.5 252.0 Q 205.1 252.9 203.0 250.5 L 202.5 249.0 L 202.0 251.5 L 207.0 253.5 L 204.5 258.0 Q 199.8 258.8 198.0 256.5 L 196.0 253.5 L 197.5 249.0 Q 203.3 249.8 205.0 246.5 L 206.5 244.0 Z" desc="l 8 p 72" fill="orange" opacity="1.0" stroke="rgb(246,123,23)" stroke-width="1"/>
	<path d="M 501.5 245.0 L 510.0 249.5 L 507.5 253.0 Q 501.8 253.8 501.0 249.5 L 501.5 245.0 Z" desc="l 8 p 73" fill="orange" opacity="1.0" stroke="rgb(246,123,23)" stroke-width="1"/>
	<path d="M 149.5 246.0 L 152.5 247.0 L 158.0 249.5 L 157.5 254.0 L 153.5 255.0 L 149.0 251.5 L 149.5 246.0 Z" desc="l 8 p 74" fill="orange" opacity="1.0" stroke="rgb(246,123,23)" stroke-width="1"/>
	<path d="M 433.5 246.0 Q 438.3 246.3 440.0 249.5 L 435.5 255.0 L 432.5 256.0 L 430.0 247.5 L 433.5 246.0 Z" desc="l 8 p 75" fill="orange" opacity="1.0" stroke="rgb(246,123,23)" stroke-width="1"/>
	<path d="M 445.5 246.0 Q 453.0 246.5 456.0 251.5 L 452.5 256.0 L 451.0 255.5 L 450.5 251.0 L 445.0 249.5 L 445.5 246.0 Z" desc="l 8 p 76" fill="orange" opacity="1.0" stroke="rgb(246,123,23)" stroke-width="1"/>
	<path d="M 159.5 247.0 L 161.5 248.0 L 164.5 247.0 L 169.0 248.5 L 167.0 249.5 L 165.5 254.0 L 161.5 255.0 Q 157.3 253.3 159.5 247.0 Z" desc="l 8 p 77" fill="orange" opacity="1.0" stroke="rgb(246,123,23)" stroke-width="1"/>
	<path d="M 182.5 248.0 L 184.0 248.5 Q 183.3 253.3 186.5 254.0 L 191.0 256.5 L 190.5 259.0 Q 182.0 257.0 180.0 261.5 L 180.5 263.0 Q 182.0 258.5 189.5 260.0 L 195.0 264.5 L 196.0 271.5 L 189.5 281.0 L 178.5 285.0 L 178.0 283.5 L 183.0 279.5 L 181.5 279.0 L 177.0 282.5 L 176.5 284.0 L 171.0 281.5 L 172.5 279.0 L 179.5 277.0 L 184.5 278.0 L 188.0 275.5 L 187.5 273.0 L 185.5 276.0 L 181.5 277.0 L 179.0 275.5 L 177.5 270.0 L 177.0 274.5 Q 179.3 275.8 176.5 277.0 L 171.5 278.0 L 168.0 264.5 Q 169.9 260.5 175.5 260.0 Q 178.8 261.8 179.0 266.5 L 176.0 268.5 L 177.5 269.0 L 180.0 267.5 Q 180.9 260.6 176.5 259.0 Q 169.3 258.8 167.0 263.5 L 166.5 267.0 L 162.0 266.5 L 161.0 263.5 L 165.0 261.5 L 164.5 260.0 L 162.0 258.5 L 163.5 255.0 L 169.5 257.0 L 167.0 253.5 L 168.5 250.0 L 174.5 249.0 L 177.0 250.5 L 177.5 249.0 L 182.5 248.0 Z" desc="l 8 p 78" fill="orange" opacity="1.0" stroke="rgb(246,123,23)" stroke-width="1"/>
	<path d="M 304.5 248.0 L 316.0 260.5 L 320.0 267.5 L 322.0 272.5 L 323.0 276.5 Q 332.4 297.6 349.5 311.0 L 354.0 313.5 L 349.5 314.0 L 336.5 308.0 L 336.0 310.5 L 339.5 315.0 L 341.0 315.5 L 342.0 317.5 L 338.5 318.0 L 332.5 312.0 Q 330.5 308.0 322.5 310.0 L 317.0 312.5 L 318.5 315.0 L 324.0 318.5 L 323.5 320.0 L 313.5 319.0 L 310.5 320.0 Q 306.5 319.5 306.0 322.5 L 304.5 325.0 L 300.5 326.0 L 297.0 323.5 Q 293.4 321.6 294.0 315.5 L 298.5 308.0 Q 300.8 306.3 300.0 301.5 L 297.5 296.0 L 293.5 291.0 L 290.0 289.5 L 291.0 286.5 Q 290.3 282.8 292.5 282.0 Q 294.2 284.8 299.5 284.0 L 304.0 280.5 Q 303.9 274.1 299.5 272.0 L 296.0 271.5 L 297.5 269.0 L 300.0 267.5 Q 303.6 265.6 303.0 259.5 L 298.0 252.5 L 304.5 248.0 Z" desc="l 1 p 5" fill="rgb(255,255,255)" opacity="1.0" stroke="rgb(246,123,23)" stroke-width="1"/>
	<path d="M 332.5 249.0 L 341.0 250.5 Q 337.8 252.3 338.0 257.5 Q 340.8 259.3 336.5 261.0 L 331.0 253.5 L 332.5 249.0 Z" desc="l 8 p 79" fill="orange" opacity="1.0" stroke="rgb(246,123,23)" stroke-width="1"/>
	<path d="M 428.5 250.0 Q 431.8 250.8 431.0 255.5 Q 430.5 258.5 426.5 258.0 L 421.0 255.5 L 421.5 251.0 L 426.5 252.0 L 428.5 250.0 Z" desc="l 8 p 80" fill="orange" opacity="1.0" stroke="rgb(246,123,23)" stroke-width="1"/>
	<path d="M 443.5 250.0 L 450.0 252.5 Q 450.8 258.3 447.5 260.0 Q 439.8 260.7 437.0 256.5 L 441.5 251.0 L 443.5 250.0 Z" desc="l 8 p 81" fill="orange" opacity="1.0" stroke="rgb(246,123,23)" stroke-width="1"/>
	<path d="M 213.5 251.0 Q 212.9 256.0 216.0 257.5 Q 214.8 261.3 208.5 260.0 L 207.0 256.5 L 208.5 253.0 Q 212.8 253.8 213.5 251.0 Z" desc="l 8 p 82" fill="orange" opacity="1.0" stroke="rgb(246,123,23)" stroke-width="1"/>
	<path d="M 350.5 251.0 L 354.0 251.5 L 360.0 265.5 L 358.5 266.0 L 352.0 260.5 L 348.0 258.5 Q 347.2 252.7 350.5 251.0 Z" desc="l 8 p 83" fill="orange" opacity="1.0" stroke="rgb(246,123,23)" stroke-width="1"/>\
	<path d="M 264.5 252.0 L 269.0 254.5 L 270.5 257.0 L 272.0 257.5 L 273.0 263.5 L 268.0 267.5 L 270.0 268.5 Q 268.4 279.6 274.5 283.0 L 283.5 284.0 Q 288.8 282.8 290.0 285.5 L 288.5 289.0 Q 286.0 286.0 280.0 286.5 L 272.5 285.0 Q 271.0 282.5 265.5 284.0 Q 262.2 286.7 255.5 286.0 L 252.5 283.0 Q 250.0 282.0 251.0 277.5 L 258.0 272.5 L 268.0 268.5 L 265.5 268.0 L 257.5 271.0 L 250.0 276.5 Q 248.8 283.2 252.0 285.5 L 248.5 286.0 L 245.0 283.5 Q 242.2 281.8 243.0 276.5 L 244.5 274.0 Q 259.0 272.5 265.0 262.5 L 266.0 255.5 L 264.5 252.0 Z" desc="l 1 p 6" fill="rgb(255,255,255)" opacity="1.0" stroke="rgb(246,123,23)" stroke-width="1"/>
	<path d="M 341.5 252.0 L 347.0 254.5 Q 348.1 260.6 345.5 263.0 L 340.5 258.0 Q 337.8 256.8 340.0 255.5 L 341.5 252.0 Z" desc="l 8 p 84" fill="orange" opacity="1.0" stroke="rgb(246,123,23)" stroke-width="1"/>
	<path d="M 457.5 252.0 L 466.0 257.5 L 463.5 262.0 L 457.0 261.5 Q 458.0 256.5 455.0 255.5 L 457.5 252.0 Z" desc="l 8 p 85" fill="orange" opacity="1.0" stroke="rgb(246,123,23)" stroke-width="1"/>
	<path d="M 526.5 252.0 L 527.0 254.5 L 522.5 262.0 L 522.0 255.5 L 526.0 253.5 L 526.5 252.0 Z" desc="l 8 p 86" fill="orange" opacity="1.0" stroke="rgb(246,123,23)" stroke-width="1"/>
	<path d="M 492.5 253.0 L 496.0 254.5 L 492.5 259.0 L 492.5 253.0 Z" desc="l 8 p 87" fill="orange" opacity="1.0" stroke="rgb(246,123,23)" stroke-width="1"/>
	<path d="M 502.5 253.0 L 508.0 254.5 L 507.5 257.0 L 506.0 256.5 L 505.5 259.0 L 500.0 257.5 L 498.5 255.0 L 498.0 256.5 L 499.5 259.0 L 501.0 259.5 L 500.5 265.0 L 495.0 263.5 Q 493.9 255.9 498.5 254.0 L 502.5 253.0 Z" desc="l 8 p 88" fill="orange" opacity="1.0" stroke="rgb(246,123,23)" stroke-width="1"/>
	<path d="M 148.5 254.0 L 152.0 255.5 Q 152.6 261.4 156.5 264.0 L 159.0 263.5 L 155.0 260.5 L 154.0 256.5 Q 154.8 254.3 158.5 255.0 L 161.0 256.5 L 162.0 260.5 Q 159.3 261.8 159.5 266.0 Q 150.5 265.0 147.0 258.5 Q 146.3 254.8 148.5 254.0 Z" desc="l 8 p 89" fill="orange" opacity="1.0" stroke="rgb(246,123,23)" stroke-width="1"/>
	<path d="M 292.5 254.0 Q 299.8 252.8 301.0 257.5 L 302.0 262.5 Q 301.5 265.5 297.5 265.0 L 293.0 261.5 Q 293.5 255.5 292.5 254.0 Z" desc="l 8 p 90" fill="orange" opacity="1.0" stroke="rgb(246,123,23)" stroke-width="1"/>
	<path d="M 194.5 255.0 L 197.0 256.5 L 197.5 258.0 L 200.0 259.5 L 199.5 262.0 Q 193.3 263.3 192.0 259.5 L 192.5 256.0 L 194.5 255.0 Z" desc="l 8 p 91" fill="orange" opacity="1.0" stroke="rgb(246,123,23)" stroke-width="1"/>
	<path d="M 271.5 255.0 L 279.0 255.5 L 280.5 258.0 L 283.0 259.5 Q 284.0 264.0 281.5 265.0 L 277.0 263.5 L 276.5 260.0 L 275.5 263.0 L 274.0 262.5 Q 274.8 257.8 272.5 256.0 L 271.5 255.0 Z" desc="l 8 p 92" fill="orange" opacity="1.0" stroke="rgb(246,123,23)" stroke-width="1"/>
	<path d="M 280.5 255.0 Q 288.7 253.3 292.0 256.5 Q 293.7 265.2 289.5 268.0 Q 284.8 268.8 284.0 265.5 Q 285.8 258.8 282.5 257.0 L 280.5 255.0 Z" desc="l 8 p 93" fill="orange" opacity="1.0" stroke="rgb(246,123,23)" stroke-width="1"/>
	<path d="M 434.5 256.0 L 436.0 256.5 L 436.5 258.0 L 446.0 261.5 L 445.5 266.0 L 438.5 267.0 L 432.5 261.0 Q 428.0 259.0 431.5 257.0 L 434.5 256.0 Z" desc="l 8 p 94" fill="orange" opacity="1.0" stroke="rgb(246,123,23)" stroke-width="1"/>
	<path d="M 452.5 257.0 L 456.0 258.5 L 455.5 265.0 L 447.0 264.5 L 447.5 261.0 L 450.0 259.5 L 450.5 258.0 L 452.5 257.0 Z" desc="l 8 p 95" fill="orange" opacity="1.0" stroke="rgb(246,123,23)" stroke-width="1"/>
	<path d="M 331.5 258.0 L 336.0 263.5 Q 333.8 264.8 335.0 269.5 L 337.5 274.0 L 342.0 276.5 Q 341.0 282.5 345.0 283.5 L 343.5 286.0 Q 333.7 275.8 330.0 259.5 L 331.5 258.0 Z" desc="l 8 p 96" fill="orange" opacity="1.0" stroke="rgb(246,123,23)" stroke-width="1"/>
	<path d="M 201.5 259.0 L 206.5 260.0 L 212.0 261.5 Q 210.4 266.9 202.5 266.0 Q 199.9 263.7 201.5 259.0 Z" desc="l 8 p 97" fill="orange" opacity="1.0" stroke="rgb(246,123,23)" stroke-width="1"/>
	<path d="M 466.5 259.0 L 475.5 272.0 Q 479.4 275.6 478.0 284.5 L 476.5 287.0 L 471.5 288.0 L 467.0 280.5 Q 470.3 278.8 469.5 273.0 Q 473.3 273.8 474.0 271.5 L 473.5 270.0 L 469.5 272.0 L 465.0 270.5 Q 463.3 262.3 466.5 259.0 Z" desc="l 8 p 98" fill="orange" opacity="1.0" stroke="rgb(246,123,23)" stroke-width="1"/>
	<path d="M 507.5 259.0 L 512.0 262.5 L 513.0 264.5 L 508.0 267.5 L 507.5 270.0 L 504.0 268.5 L 502.0 261.5 L 507.5 259.0 Z" desc="l 8 p 99" fill="orange" opacity="1.0" stroke="rgb(246,123,23)" stroke-width="1"/>
	<path d="M 339.5 260.0 L 345.0 264.5 L 346.0 269.5 L 343.0 271.5 L 341.5 274.0 L 337.0 271.5 L 336.0 265.5 L 339.5 260.0 Z" desc="l 8 p 100" fill="orange" opacity="1.0" stroke="rgb(246,123,23)" stroke-width="1"/>
	<path d="M 492.5 260.0 L 494.0 260.5 L 495.0 265.5 L 493.5 268.0 Q 489.8 268.8 489.0 266.5 L 492.5 260.0 Z" desc="l 8 p 101" fill="orange" opacity="1.0" stroke="rgb(246,123,23)" stroke-width="1"/>
	<path d="M 348.5 261.0 L 351.5 262.0 L 357.0 266.5 Q 354.3 269.8 354.5 276.0 L 352.0 275.5 L 346.0 265.5 L 348.5 261.0 Z" desc="l 8 p 102" fill="orange" opacity="1.0" stroke="rgb(246,123,23)" stroke-width="1"/>
	<path d="M 196.5 263.0 L 200.0 263.5 L 202.0 267.5 L 197.5 268.0 L 196.5 263.0 Z" desc="l 8 p 103" fill="orange" opacity="1.0" stroke="rgb(246,123,23)" stroke-width="1"/>
	<path d="M 457.5 263.0 L 464.0 263.5 Q 465.5 271.5 461.5 274.0 L 455.0 271.5 L 454.0 266.5 L 457.0 265.5 L 457.5 263.0 Z" desc="l 8 p 104" fill="orange" opacity="1.0" stroke="rgb(246,123,23)" stroke-width="1"/>
	<path d="M 274.5 264.0 L 277.0 265.5 L 273.0 270.5 L 278.5 271.0 L 282.5 268.0 L 283.0 269.5 L 279.0 272.5 L 286.5 273.0 L 291.0 269.5 L 289.0 272.5 L 291.5 273.0 L 294.5 271.0 L 295.5 275.0 L 296.5 273.0 Q 301.5 272.5 302.0 276.5 L 303.0 279.5 Q 301.3 282.8 296.5 283.0 L 292.5 280.0 L 288.5 283.0 L 286.5 282.0 Q 284.8 284.8 278.5 283.0 L 273.0 279.5 Q 269.7 275.8 271.0 267.5 L 274.5 264.0 Z" desc="l 1 p 7" fill="rgb(255,255,255)" opacity="1.0" stroke="rgb(246,123,23)" stroke-width="1"/>
	<path d="M 293.5 264.0 L 298.0 266.5 L 297.5 268.0 L 292.5 271.0 L 292.0 269.5 L 293.5 264.0 Z" desc="l 8 p 105" fill="orange" opacity="1.0" stroke="rgb(246,123,23)" stroke-width="1"/>
	<path d="M 278.5 265.0 L 282.0 266.5 L 276.5 270.0 L 277.0 268.5 L 278.5 265.0 Z" desc="l 8 p 106" fill="orange" opacity="1.0" stroke="rgb(246,123,23)" stroke-width="1"/>
	<path d="M 447.5 266.0 L 453.0 266.5 L 454.0 272.5 L 452.5 275.0 L 448.5 274.0 L 442.0 271.5 L 440.0 268.5 Q 445.3 268.8 447.5 266.0 Z" desc="l 8 p 107" fill="orange" opacity="1.0" stroke="rgb(246,123,23)" stroke-width="1"/>
	<path d="M 496.5 266.0 L 499.0 266.5 L 499.5 268.0 L 502.5 267.0 L 503.0 269.5 Q 498.5 273.5 499.5 283.0 Q 500.3 291.3 497.0 295.5 L 486.5 309.0 L 482.5 310.0 L 475.5 312.0 L 478.5 308.0 Q 482.3 308.8 483.0 306.5 Q 489.5 299.5 492.0 288.5 L 499.0 268.5 L 497.0 269.5 L 495.5 274.0 L 494.0 274.5 L 495.0 276.5 L 491.5 286.0 Q 487.5 286.5 487.0 283.5 Q 486.0 277.0 490.5 276.0 L 492.0 275.5 L 492.5 274.0 L 494.0 273.5 L 492.0 272.5 L 492.5 269.0 L 495.0 268.5 L 496.5 266.0 Z" desc="l 8 p 108" fill="orange" opacity="1.0" stroke="rgb(246,123,23)" stroke-width="1"/>
	<path d="M 511.5 266.0 Q 517.3 265.3 518.0 269.5 Q 515.3 271.8 509.5 271.0 L 509.0 268.5 L 511.5 266.0 Z" desc="l 8 p 109" fill="orange" opacity="1.0" stroke="rgb(246,123,23)" stroke-width="1"/>
	<path d="M 487.5 267.0 L 491.0 269.5 L 490.5 275.0 L 486.5 276.0 Q 484.3 274.3 485.0 269.5 L 487.5 267.0 Z" desc="l 8 p 110" fill="orange" opacity="1.0" stroke="rgb(246,123,23)" stroke-width="1"/>
	<path d="M 284.5 268.0 L 288.0 269.5 Q 287.5 272.5 283.5 272.0 L 284.0 270.5 L 284.5 268.0 Z" desc="l 8 p 111" fill="orange" opacity="1.0" stroke="rgb(246,123,23)" stroke-width="1"/>
	<path d="M 358.5 268.0 Q 365.7 269.8 369.0 275.5 L 365.0 277.5 L 364.5 280.0 L 358.0 279.5 Q 355.3 277.2 356.0 271.5 L 358.5 268.0 Z" desc="l 8 p 112" fill="orange" opacity="1.0" stroke="rgb(246,123,23)" stroke-width="1"/>
	<path d="M 345.5 271.0 Q 349.5 270.5 350.0 273.5 L 352.0 277.5 L 350.5 282.0 Q 344.3 283.3 343.0 279.5 L 343.5 276.0 L 346.5 277.0 L 345.5 275.0 L 343.0 274.5 L 345.5 271.0 Z" desc="l 8 p 113" fill="orange" opacity="1.0" stroke="rgb(246,123,23)" stroke-width="1"/>
	<path d="M 464.5 272.0 L 468.0 272.5 Q 469.0 279.0 465.5 281.0 Q 460.8 281.8 460.0 278.5 L 460.5 275.0 L 464.0 273.5 L 464.5 272.0 Z" desc="l 8 p 114" fill="orange" opacity="1.0" stroke="rgb(246,123,23)" stroke-width="1"/>
	<path d="M 230.5 273.0 L 234.5 274.0 L 243.0 274.5 Q 240.5 276.0 242.0 281.5 L 245.5 286.0 L 252.5 287.0 L 254.5 287.0 L 263.5 286.0 L 270.5 285.0 Q 272.0 288.5 278.5 287.0 L 286.5 289.0 L 295.0 294.5 Q 299.0 297.5 299.0 304.5 L 295.0 312.5 Q 291.8 313.8 293.0 319.5 L 297.5 326.0 L 301.5 327.0 L 304.5 326.0 L 313.0 332.5 L 312.5 336.0 L 306.5 333.0 L 307.5 335.0 L 315.0 340.5 Q 315.9 353.9 307.5 358.0 L 298.5 360.0 Q 294.5 359.5 294.0 362.5 L 293.0 365.5 L 289.5 369.0 L 274.5 368.0 Q 265.0 368.0 260.0 363.5 L 247.5 355.0 L 242.0 359.5 Q 240.0 363.0 233.5 362.0 L 227.5 360.0 Q 221.8 358.8 219.0 354.5 Q 216.2 351.8 217.0 345.5 L 221.5 340.0 L 223.0 339.5 L 224.0 336.5 L 222.0 336.5 Q 221.5 327.5 226.5 324.0 Q 227.9 321.4 232.5 322.0 L 243.0 320.5 L 243.5 318.0 L 252.5 319.0 Q 257.6 321.4 266.5 320.0 L 270.0 317.5 L 273.0 310.5 L 274.0 301.5 Q 267.1 292.9 250.5 294.0 L 247.5 293.0 L 239.5 293.0 Q 231.1 292.9 228.0 287.5 Q 225.5 284.0 227.0 276.5 L 228.5 274.0 L 230.5 273.0 Z" desc="l 8 p 115" fill="red" opacity="1.0" stroke="rgb(246,123,23)" stroke-width="1"/>
	<path d="M 443.5 274.0 L 449.0 276.5 Q 447.9 284.1 452.5 286.0 L 454.0 286.5 L 452.5 292.0 L 443.0 286.5 L 443.5 274.0 Z" desc="l 8 p 116" fill="orange" opacity="1.0" stroke="rgb(246,123,23)" stroke-width="1"/>
	<path d="M 454.5 274.0 Q 458.3 273.3 459.0 275.5 L 460.0 280.5 L 461.0 284.5 Q 460.0 287.0 455.5 286.0 L 451.0 282.5 L 450.0 276.5 L 454.0 275.5 L 454.5 274.0 Z" desc="l 8 p 117" fill="orange" opacity="1.0" stroke="rgb(246,123,23)" stroke-width="1"/>
	<path d="M 167.5 277.0 L 170.0 277.5 Q 171.8 284.8 168.0 286.5 L 169.5 287.0 L 171.5 284.0 L 175.0 285.5 L 174.5 287.0 L 169.5 288.0 Q 163.8 289.3 161.0 293.5 L 160.5 297.0 Q 154.1 296.4 152.0 291.5 L 154.5 288.0 Q 155.8 291.3 161.5 290.0 L 166.0 287.5 L 165.0 280.5 L 167.5 277.0 Z" desc="l 8 p 118" fill="orange" opacity="1.0" stroke="rgb(246,123,23)" stroke-width="1"/>
	<path d="M 353.5 277.0 L 356.0 277.5 Q 358.7 279.8 358.0 285.5 L 353.5 286.0 L 352.0 279.5 L 353.5 277.0 Z" desc="l 8 p 119" fill="orange" opacity="1.0" stroke="rgb(246,123,23)" stroke-width="1"/>
	<path d="M 367.5 277.0 L 371.5 278.0 L 376.0 282.5 L 369.5 284.0 L 367.0 282.5 L 366.0 278.5 L 367.5 277.0 Z" desc="l 8 p 120" fill="orange" opacity="1.0" stroke="rgb(246,123,23)" stroke-width="1"/>
	<path d="M 485.5 277.0 L 487.0 277.5 L 485.0 278.5 L 485.5 277.0 Z" desc="l 8 p 121" fill="orange" opacity="1.0" stroke="rgb(246,123,23)" stroke-width="1"/>
	<path d="M 529.5 279.0 L 530.0 280.5 L 528.0 285.5 L 528.0 294.5 Q 534.0 298.5 532.0 310.5 L 527.5 316.0 L 518.0 321.5 L 517.5 323.0 L 516.0 322.5 L 510.5 316.0 Q 508.3 313.3 503.0 313.5 Q 502.3 307.8 506.5 307.0 L 521.0 299.5 L 523.0 292.5 L 524.0 288.5 L 526.5 282.0 L 528.0 281.5 L 529.5 279.0 Z" desc="l 8 p 122" fill="orange" opacity="1.0" stroke="rgb(246,123,23)" stroke-width="1"/>
	<path d="M 162.5 281.0 L 164.0 281.5 L 165.0 286.5 Q 163.0 289.5 157.5 289.0 L 156.0 286.5 L 162.5 281.0 Z" desc="l 8 p 123" fill="orange" opacity="1.0" stroke="rgb(246,123,23)" stroke-width="1"/>
	<path d="M 360.5 281.0 L 365.0 281.5 L 366.5 284.0 L 368.0 284.5 L 367.5 289.0 Q 362.9 288.4 361.5 291.0 Q 358.0 289.0 359.0 282.5 L 360.5 281.0 Z" desc="l 8 p 124" fill="orange" opacity="1.0" stroke="rgb(246,123,23)" stroke-width="1"/>
	<path d="M 462.5 282.0 L 467.0 282.5 L 470.0 289.5 Q 469.5 293.5 464.5 293.0 L 462.0 291.5 L 460.0 287.5 Q 462.8 286.3 462.5 282.0 Z" desc="l 8 p 125" fill="orange" opacity="1.0" stroke="rgb(246,123,23)" stroke-width="1"/>
	<path d="M 347.5 283.0 L 352.0 284.5 L 353.0 288.5 L 351.5 296.0 L 344.0 287.5 L 345.5 285.0 L 347.0 284.5 L 347.5 283.0 Z" desc="l 8 p 126" fill="orange" opacity="1.0" stroke="rgb(246,123,23)" stroke-width="1"/>
	<path d="M 441.5 283.0 L 444.0 292.5 L 441.5 299.0 Q 435.3 300.3 434.0 296.5 L 433.5 294.0 L 433.0 297.5 Q 433.5 300.5 437.5 300.0 L 442.0 300.5 L 441.5 302.0 Q 437.0 301.0 436.0 303.5 L 435.5 307.0 Q 430.3 308.3 429.0 305.5 Q 427.6 295.6 431.5 291.0 L 434.5 290.0 L 435.0 291.5 L 434.0 293.5 L 436.0 292.5 Q 436.3 285.3 441.5 283.0 Z" desc="l 8 p 127" fill="orange" opacity="1.0" stroke="rgb(246,123,23)" stroke-width="1"/>
	<path d="M 371.5 284.0 Q 377.5 282.5 379.0 285.5 L 379.5 287.0 L 381.5 286.0 L 390.0 291.5 L 388.5 292.0 Q 386.8 289.3 380.5 291.0 L 379.0 291.5 L 378.5 287.0 L 378.0 293.5 L 379.0 295.5 L 379.0 297.5 L 381.5 301.0 L 383.0 301.5 L 380.5 305.0 Q 375.4 305.6 374.0 302.5 L 373.0 297.5 L 378.0 295.5 L 373.5 295.0 L 370.0 293.5 L 369.0 286.5 L 371.5 284.0 Z" desc="l 8 p 128" fill="orange" opacity="1.0" stroke="rgb(246,123,23)" stroke-width="1"/>
	<path d="M 486.5 285.0 L 491.0 287.5 L 487.5 295.0 L 486.0 294.5 L 486.5 285.0 Z" desc="l 8 p 129" fill="orange" opacity="1.0" stroke="rgb(246,123,23)" stroke-width="1"/>
	<path d="M 355.5 287.0 L 358.0 287.5 L 362.0 293.5 Q 356.2 292.7 354.5 296.0 Q 352.0 295.0 353.0 290.5 L 355.5 287.0 Z" desc="l 8 p 130" fill="orange" opacity="1.0" stroke="rgb(246,123,23)" stroke-width="1"/>
	<path d="M 455.5 287.0 L 459.0 288.5 L 461.5 293.0 L 464.0 294.5 L 459.5 300.0 L 455.5 299.0 L 452.0 295.5 L 452.5 293.0 L 454.0 292.5 L 455.5 287.0 Z" desc="l 8 p 131" fill="orange" opacity="1.0" stroke="rgb(246,123,23)" stroke-width="1"/>
	<path d="M 476.5 288.0 L 477.0 295.5 L 474.5 299.0 L 469.0 295.5 L 468.0 293.5 L 473.5 289.0 L 476.5 288.0 Z" desc="l 8 p 132" fill="orange" opacity="1.0" stroke="rgb(246,123,23)" stroke-width="1"/>
	<path d="M 365.5 290.0 L 368.0 290.5 L 370.5 296.0 L 372.0 296.5 L 371.5 300.0 L 366.5 301.0 Q 361.8 299.8 363.0 292.5 L 365.5 290.0 Z" desc="l 8 p 133" fill="orange" opacity="1.0" stroke="rgb(246,123,23)" stroke-width="1"/>
	<path d="M 445.5 290.0 L 451.0 292.5 Q 450.2 297.8 453.0 299.5 Q 451.3 303.8 443.5 302.0 L 443.0 300.5 L 446.0 299.5 L 444.0 298.5 L 445.5 290.0 Z" desc="l 8 p 134" fill="orange" opacity="1.0" stroke="rgb(246,123,23)" stroke-width="1"/>
	<path d="M 381.5 292.0 Q 386.9 291.1 389.0 293.5 Q 388.4 298.6 391.5 300.0 L 393.0 300.5 Q 390.0 301.5 391.0 306.5 L 391.5 308.0 L 386.5 310.0 Q 382.3 309.3 383.0 303.5 L 386.5 302.0 L 391.0 301.5 Q 382.8 302.2 380.0 297.5 Q 379.0 293.0 381.5 292.0 Z" desc="l 8 p 135" fill="orange" opacity="1.0" stroke="rgb(246,123,23)" stroke-width="1"/>
	<path d="M 391.5 292.0 L 401.0 294.5 L 396.5 300.0 L 391.0 297.5 L 390.0 294.5 L 391.5 292.0 Z" desc="l 8 p 136" fill="orange" opacity="1.0" stroke="rgb(246,123,23)" stroke-width="1"/>
	<path d="M 150.5 293.0 Q 153.9 297.6 161.0 298.5 L 160.5 302.0 Q 153.9 302.6 152.0 298.5 L 150.5 295.0 L 150.0 297.5 L 152.5 301.0 L 158.0 303.5 Q 157.4 308.6 160.5 310.0 L 169.0 315.5 L 170.0 317.5 Q 169.5 321.5 164.5 321.0 L 159.0 316.5 L 158.5 319.0 L 156.0 315.5 L 154.0 309.5 Q 151.8 301.8 146.5 297.0 L 145.0 296.5 L 150.5 293.0 Z" desc="l 8 p 137" fill="orange" opacity="1.0" stroke="rgb(246,123,23)" stroke-width="1"/>
	<path d="M 425.5 293.0 L 429.0 293.5 L 428.0 297.5 Q 428.5 302.5 424.5 303.0 Q 416.5 304.5 414.0 300.5 L 415.5 295.0 L 425.5 293.0 Z" desc="l 8 p 138" fill="orange" opacity="1.0" stroke="rgb(246,123,23)" stroke-width="1"/>
	<path d="M 132.5 294.0 Q 139.3 292.7 142.0 295.5 L 146.0 298.5 Q 154.2 306.3 156.0 320.5 Q 155.3 322.8 151.5 322.0 L 148.0 319.5 L 147.0 311.5 Q 148.0 303.5 143.5 301.0 L 136.5 300.0 Q 132.0 301.0 131.0 298.5 L 130.5 297.0 L 129.0 296.5 L 132.5 294.0 Z" desc="l 8 p 139" fill="orange" opacity="1.0" stroke="rgb(246,123,23)" stroke-width="1"/>
	<path d="M 465.5 294.0 L 468.0 295.5 L 470.5 299.0 L 474.0 300.5 L 472.5 304.0 L 462.0 303.5 L 461.0 300.5 L 465.5 294.0 Z" desc="l 8 p 140" fill="orange" opacity="1.0" stroke="rgb(246,123,23)" stroke-width="1"/>
	<path d="M 357.5 295.0 L 362.0 295.5 Q 361.3 301.3 365.5 302.0 Q 370.3 303.3 371.5 301.0 L 374.5 305.0 L 382.0 306.5 L 385.5 311.0 L 388.0 311.5 L 386.5 318.0 L 380.5 319.0 Q 381.4 313.6 378.5 312.0 L 377.0 311.5 L 375.0 307.5 L 375.5 306.0 L 374.0 306.5 L 373.5 308.0 L 363.5 304.0 L 359.5 303.0 L 356.0 299.5 Q 355.3 295.8 357.5 295.0 Z" desc="l 8 p 141" fill="orange" opacity="1.0" stroke="rgb(246,123,23)" stroke-width="1"/>
	<path d="M 402.5 295.0 L 414.0 295.5 Q 413.8 300.3 410.5 302.0 L 403.5 303.0 L 399.0 300.5 L 402.5 295.0 Z" desc="l 8 p 142" fill="orange" opacity="1.0" stroke="rgb(246,123,23)" stroke-width="1"/>
	<path d="M 484.5 296.0 L 488.0 296.5 L 480.5 307.0 L 480.0 305.5 L 484.5 296.0 Z" desc="l 8 p 143" fill="orange" opacity="1.0" stroke="rgb(246,123,23)" stroke-width="1"/>
	<path d="M 127.5 298.0 L 130.0 298.5 L 131.0 300.5 L 126.5 302.0 L 126.0 299.5 L 127.5 298.0 Z" desc="l 8 p 144" fill="orange" opacity="1.0" stroke="rgb(246,123,23)" stroke-width="1"/>
	<path d="M 454.5 300.0 L 460.0 301.5 L 462.0 305.5 L 459.5 309.0 L 463.0 306.5 L 463.5 305.0 L 471.0 305.5 L 464.0 312.5 Q 463.3 315.8 458.5 315.0 L 456.0 310.5 L 459.0 309.5 Q 451.4 309.6 449.0 304.5 L 449.5 303.0 Q 454.0 303.5 454.5 300.0 Z" desc="l 8 p 145" fill="orange" opacity="1.0" stroke="rgb(246,123,23)" stroke-width="1"/>
	<path d="M 396.5 301.0 L 401.0 303.5 L 399.5 310.0 L 393.0 307.5 L 392.0 303.5 L 396.5 301.0 Z" desc="l 8 p 146" fill="orange" opacity="1.0" stroke="rgb(246,123,23)" stroke-width="1"/>
	<path d="M 412.5 302.0 L 417.0 304.5 L 416.0 310.5 L 417.0 310.5 L 419.5 304.0 Q 426.0 305.5 427.5 302.0 L 428.0 307.5 L 426.5 312.0 L 417.5 311.0 L 418.5 313.0 L 427.0 313.5 L 426.5 318.0 L 425.0 318.5 Q 423.8 323.3 426.0 324.5 L 423.5 325.0 L 415.0 319.5 L 416.5 315.0 L 418.0 314.5 L 417.5 313.0 L 415.0 314.5 L 414.0 320.5 L 421.0 324.5 L 413.5 325.0 Q 414.0 317.5 410.5 314.0 L 407.0 311.5 L 408.0 307.5 L 409.5 304.0 L 412.5 305.0 L 413.0 303.5 L 412.5 302.0 Z" desc="l 8 p 147" fill="orange" opacity="1.0" stroke="rgb(246,123,23)" stroke-width="1"/>
	<path d="M 159.5 303.0 L 176.0 304.5 L 178.0 307.5 L 179.0 311.5 L 167.5 313.0 L 160.0 307.5 L 159.5 303.0 Z" desc="l 8 p 148" fill="orange" opacity="1.0" stroke="rgb(246,123,23)" stroke-width="1"/>
	<path d="M 438.5 303.0 L 448.0 303.5 L 449.0 306.5 L 446.0 308.5 L 444.5 312.0 Q 438.0 313.0 437.0 308.5 Q 436.0 304.0 438.5 303.0 Z" desc="l 8 p 149" fill="orange" opacity="1.0" stroke="rgb(246,123,23)" stroke-width="1"/>
	<path d="M 402.5 304.0 L 407.0 304.5 L 405.5 314.0 L 401.0 311.5 Q 399.5 305.5 402.5 304.0 Z" desc="l 8 p 150" fill="orange" opacity="1.0" stroke="rgb(246,123,23)" stroke-width="1"/>
	<path d="M 429.5 308.0 L 436.0 308.5 L 438.0 311.5 Q 434.0 313.0 434.5 319.0 Q 429.4 319.6 428.0 316.5 L 429.0 312.5 L 428.0 309.5 L 429.5 308.0 Z" desc="l 8 p 151" fill="orange" opacity="1.0" stroke="rgb(246,123,23)" stroke-width="1"/>
	<path d="M 448.5 308.0 L 455.0 310.5 L 457.5 316.0 L 460.0 316.5 L 450.5 322.0 L 447.0 319.5 L 446.0 311.5 L 448.5 308.0 Z" desc="l 8 p 152" fill="orange" opacity="1.0" stroke="rgb(246,123,23)" stroke-width="1"/>
	<path d="M 373.5 309.0 L 376.5 313.0 L 379.0 314.5 Q 377.8 319.3 380.0 320.5 L 374.5 322.0 L 370.0 318.5 L 369.0 313.5 L 373.5 309.0 Z" desc="l 8 p 153" fill="orange" opacity="1.0" stroke="rgb(246,123,23)" stroke-width="1"/>
	<path d="M 391.5 309.0 L 400.0 311.5 L 401.5 314.0 L 410.0 315.5 Q 412.8 318.2 412.0 324.5 L 406.5 331.0 L 393.5 334.0 L 393.0 330.5 Q 401.5 330.0 406.0 325.5 Q 407.5 317.5 402.5 316.0 L 396.5 315.0 L 396.0 317.5 L 398.0 320.5 L 395.0 322.5 L 395.5 324.0 L 399.0 321.5 Q 399.8 317.3 397.0 316.5 L 399.5 316.0 L 405.0 320.5 Q 406.0 325.0 403.5 326.0 L 397.0 328.5 L 392.5 329.0 L 392.0 327.5 Q 394.3 326.3 393.0 321.5 L 392.0 321.5 Q 392.8 327.3 389.5 329.0 Q 384.4 329.6 383.0 326.5 L 382.0 320.5 L 385.5 319.0 L 390.0 318.5 Q 387.3 317.8 388.0 313.5 L 391.5 309.0 Z" desc="l 8 p 154" fill="orange" opacity="1.0" stroke="rgb(246,123,23)" stroke-width="1"/>
	<path d="M 323.5 311.0 Q 331.0 309.5 332.5 314.0 Q 334.8 319.3 341.5 320.0 L 343.0 316.5 L 339.0 311.5 L 340.5 311.0 L 347.5 314.0 Q 349.0 316.5 354.5 315.0 L 356.5 315.0 L 358.0 315.5 L 357.5 317.0 L 351.0 320.5 Q 346.4 324.4 336.5 323.0 Q 324.3 320.8 321.0 327.5 Q 321.5 332.5 317.5 333.0 L 314.5 334.0 L 312.5 330.0 L 306.0 325.5 L 309.5 321.0 L 319.5 320.0 L 324.5 321.0 L 325.0 317.5 L 319.0 313.5 L 323.5 311.0 Z" desc="l 8 p 155" fill="red" opacity="1.0" stroke="rgb(246,123,23)" stroke-width="1"/>
	<path d="M 171.5 313.0 Q 176.0 312.0 177.0 314.5 Q 177.8 320.3 173.5 321.0 L 172.5 316.0 L 172.0 322.5 L 173.5 322.0 L 178.0 318.5 L 178.5 315.0 L 184.5 316.0 L 189.0 317.5 L 195.0 321.5 Q 196.7 329.7 193.5 333.0 L 187.5 339.0 Q 182.4 342.4 172.5 341.0 L 168.5 340.0 L 162.5 348.0 L 158.5 350.0 L 151.5 352.0 L 145.5 349.0 L 139.5 348.0 L 133.0 353.5 L 127.5 356.0 L 118.5 356.0 L 106.5 351.0 Q 104.6 346.9 97.5 348.0 L 81.5 348.0 L 72.0 354.5 L 70.5 357.0 L 65.5 360.0 Q 62.0 362.5 54.5 361.0 L 51.0 358.5 L 55.0 355.5 L 57.5 352.0 L 63.0 347.5 L 75.5 334.0 L 84.5 333.0 L 94.5 338.0 Q 98.2 341.3 106.5 340.0 L 110.5 339.0 L 115.5 336.0 L 120.5 332.0 L 124.5 333.0 L 135.5 333.0 L 144.0 330.5 L 144.5 329.0 Q 153.5 330.5 155.0 324.5 L 157.5 320.0 L 160.0 320.5 Q 160.8 325.3 158.5 327.0 L 156.0 328.5 L 161.5 329.0 L 164.0 327.5 L 161.5 327.0 L 160.0 327.5 L 161.5 320.0 Q 162.8 322.8 167.0 322.5 L 164.0 326.5 L 165.5 327.0 L 168.0 323.5 L 172.0 314.5 L 171.5 313.0 Z" desc="l 8 p 156" fill="red" opacity="1.0" stroke="rgb(246,123,23)" stroke-width="1"/>
	<path d="M 438.5 313.0 L 445.0 313.5 Q 444.0 320.0 447.5 322.0 L 449.0 322.5 L 443.5 324.0 L 436.0 319.5 Q 435.0 314.0 438.5 313.0 Z" desc="l 8 p 157" fill="orange" opacity="1.0" stroke="rgb(246,123,23)" stroke-width="1"/>
	<path d="M 367.5 314.0 Q 367.6 319.9 371.5 322.0 L 375.0 323.5 L 374.5 327.0 L 370.5 329.0 L 365.5 330.0 L 366.0 328.5 L 364.5 325.0 Q 362.3 324.3 363.0 320.5 L 364.0 318.5 L 362.0 319.5 Q 360.8 325.3 364.0 326.5 L 356.5 330.0 L 353.0 327.5 Q 353.1 321.1 357.5 319.0 L 359.0 318.5 L 359.5 317.0 L 363.5 316.0 L 364.5 318.0 L 367.5 314.0 Z" desc="l 8 p 158" fill="orange" opacity="1.0" stroke="rgb(246,123,23)" stroke-width="1"/>
	<path d="M 426.5 319.0 L 435.5 321.0 L 442.0 324.5 Q 440.3 327.8 433.5 326.0 L 430.5 325.0 Q 426.5 325.5 426.0 322.5 L 426.5 319.0 Z" desc="l 8 p 159" fill="orange" opacity="1.0" stroke="rgb(246,123,23)" stroke-width="1"/>
	<path d="M 352.5 321.0 L 353.0 322.5 Q 350.8 323.8 352.0 328.5 Q 355.8 330.3 352.5 332.0 L 348.5 333.0 L 344.0 327.5 L 347.5 323.0 L 352.5 321.0 Z" desc="l 8 p 160" fill="orange" opacity="1.0" stroke="rgb(246,123,23)" stroke-width="1"/>
	<path d="M 378.5 322.0 L 381.0 322.5 L 381.0 324.5 L 383.0 328.5 L 378.5 329.0 L 376.0 327.5 Q 375.3 322.8 378.5 322.0 Z" desc="l 8 p 161" fill="orange" opacity="1.0" stroke="rgb(246,123,23)" stroke-width="1"/>
	<path d="M 151.5 323.0 L 154.0 323.5 L 148.5 328.0 L 150.0 325.5 L 151.5 323.0 Z" desc="l 8 p 162" fill="orange" opacity="1.0" stroke="rgb(246,123,23)" stroke-width="1"/>
	<path d="M 327.5 324.0 L 344.0 324.5 L 342.5 329.0 L 334.5 328.0 L 331.0 330.5 L 327.5 332.0 L 325.0 325.5 L 327.5 324.0 Z" desc="l 8 p 163" fill="orange" opacity="1.0" stroke="rgb(246,123,23)" stroke-width="1"/>
	<path d="M 323.5 327.0 L 326.0 332.5 L 320.0 336.5 Q 319.0 339.0 314.5 338.0 L 314.0 335.5 Q 319.6 334.6 322.0 330.5 L 323.5 327.0 Z" desc="l 8 p 164" fill="orange" opacity="1.0" stroke="rgb(246,123,23)" stroke-width="1"/>
	<path d="M 374.5 328.0 Q 376.5 331.0 382.5 330.0 Q 389.3 328.7 392.0 331.5 L 390.5 335.0 Q 378.0 336.5 371.0 332.5 L 370.0 330.5 L 374.5 328.0 Z" desc="l 8 p 165" fill="orange" opacity="1.0" stroke="rgb(246,123,23)" stroke-width="1"/>
	<path d="M 335.5 329.0 L 341.5 330.0 Q 345.5 329.5 346.0 332.5 L 345.5 334.0 Q 338.3 334.3 334.5 338.0 L 332.5 333.0 L 331.0 332.5 L 335.5 329.0 Z" desc="l 8 p 166" fill="orange" opacity="1.0" stroke="rgb(246,123,23)" stroke-width="1"/>
	<path d="M 362.5 329.0 L 364.0 329.5 L 364.5 331.0 L 369.0 331.5 L 356.5 332.0 L 356.5 331.0 L 362.5 329.0 Z" desc="l 1 p 9" fill="rgb(255,255,255)" opacity="1.0" stroke="rgb(246,123,23)" stroke-width="1"/>
	<path d="M 445.5 329.0 L 447.0 337.5 L 451.0 345.5 L 438.5 346.0 L 418.0 334.5 L 427.5 334.0 L 433.5 333.0 L 445.5 329.0 Z" desc="l 1 p 10" fill="rgb(255,255,255)" opacity="1.0" stroke="rgb(246,123,23)" stroke-width="1"/>
	<path d="M 327.5 333.0 L 332.0 334.5 L 331.5 337.0 L 327.5 339.0 L 325.0 335.5 L 327.5 333.0 Z" desc="l 8 p 167" fill="orange" opacity="1.0" stroke="rgb(246,123,23)" stroke-width="1"/>
	<path d="M 351.5 333.0 Q 368.8 330.7 378.0 336.5 L 370.0 342.5 L 369.0 348.5 Q 370.0 355.0 365.5 356.0 L 359.5 357.0 L 358.0 352.5 Q 358.8 346.8 354.5 346.0 L 348.5 344.0 L 339.5 343.0 L 338.0 343.5 L 337.5 342.0 L 335.0 340.5 L 336.5 338.0 L 351.5 333.0 Z" desc="l 1 p 11" fill="rgb(255,255,255)" opacity="1.0" stroke="rgb(246,123,23)" stroke-width="1"/>
	<path d="M 322.5 336.0 L 326.0 338.5 Q 323.3 339.8 323.5 344.0 L 321.0 342.5 L 319.0 339.5 L 322.5 336.0 Z" desc="l 8 p 168" fill="orange" opacity="1.0" stroke="rgb(246,123,23)" stroke-width="1"/>
	<path d="M 331.5 338.0 L 333.0 338.5 L 335.5 343.0 L 337.0 343.5 L 338.5 346.0 Q 339.5 343.0 344.5 344.0 L 350.0 345.5 L 357.0 350.5 L 355.5 354.0 L 347.5 358.0 L 345.5 353.0 L 333.0 350.5 L 338.0 347.5 L 337.5 346.0 L 330.5 350.0 L 328.5 347.0 Q 333.0 348.0 334.0 345.5 L 332.5 345.0 L 327.5 346.0 Q 324.5 345.5 325.0 341.5 L 331.5 338.0 Z" desc="l 8 p 169" fill="orange" opacity="1.0" stroke="rgb(246,123,23)" stroke-width="1"/>
	<path d="M 316.5 339.0 L 318.0 339.5 L 322.0 346.5 Q 320.3 349.8 315.5 350.0 L 315.0 348.5 L 316.0 345.5 L 316.5 339.0 Z" desc="l 8 p 170" fill="orange" opacity="1.0" stroke="rgb(246,123,23)" stroke-width="1"/>
	<path d="M 323.5 346.0 L 329.0 350.5 Q 329.5 355.5 325.5 356.0 Q 320.8 356.8 320.0 353.5 L 319.0 351.5 L 323.5 346.0 Z" desc="l 8 p 171" fill="orange" opacity="1.0" stroke="rgb(246,123,23)" stroke-width="1"/>
	<path d="M 317.5 351.0 L 321.5 357.0 Q 328.0 356.0 329.0 360.5 L 330.0 366.5 Q 328.8 369.3 323.5 368.0 L 318.5 361.0 L 316.0 359.5 L 313.0 354.5 L 314.5 352.0 L 317.5 351.0 Z" desc="l 8 p 172" fill="orange" opacity="1.0" stroke="rgb(246,123,23)" stroke-width="1"/>
	<path d="M 330.5 351.0 L 345.0 354.5 L 346.0 358.5 Q 343.5 365.5 331.5 363.0 L 327.0 356.5 L 330.5 351.0 Z" desc="l 8 p 173" fill="orange" opacity="1.0" stroke="rgb(246,123,23)" stroke-width="1"/>
	<path d="M 355.5 355.0 L 358.0 355.5 L 357.0 362.5 L 352.5 367.0 L 347.5 368.0 L 349.0 365.5 L 350.0 361.5 Q 349.5 357.5 352.5 357.0 L 355.5 355.0 Z" desc="l 8 p 174" fill="orange" opacity="1.0" stroke="rgb(246,123,23)" stroke-width="1"/>
	<path d="M 311.5 356.0 L 314.0 357.5 L 315.0 361.5 L 311.5 362.0 L 308.0 359.5 L 311.5 356.0 Z" desc="l 8 p 175" fill="orange" opacity="1.0" stroke="rgb(246,123,23)" stroke-width="1"/>
	<path d="M 318.5 364.0 L 322.5 369.0 L 324.0 369.5 L 317.5 372.0 L 312.0 369.5 L 318.0 365.5 L 318.5 364.0 Z" desc="l 8 p 176" fill="orange" opacity="1.0" stroke="rgb(246,123,23)" stroke-width="1"/>
	<path d="M 335.5 364.0 L 341.0 364.5 Q 341.5 368.5 338.5 369.0 L 334.5 370.0 L 335.0 368.5 L 335.5 364.0 Z" desc="l 8 p 177" fill="orange" opacity="1.0" stroke="rgb(246,123,23)" stroke-width="1"/>
	<path d="M 109.5 74.0 L 120.5 81.0 Q 127.0 82.5 130.0 87.5 Q 134.0 91.5 134.0 99.5 L 128.0 109.5 Q 125.2 111.2 126.0 116.5 L 138.0 124.5 L 137.5 127.0 Q 136.3 123.8 130.5 125.0 L 127.5 126.0 L 120.0 122.5 L 119.5 119.0 L 115.0 116.5 L 114.0 105.5 L 118.0 97.5 L 120.0 90.5 L 118.5 86.0 L 114.5 80.0 L 110.0 77.5 L 109.5 74.0 Z" desc="l 5 p 0" fill="green" opacity="1.0" stroke="rgb(246,123,23)" stroke-width="1"/>
	<path d="M 68.5 112.0 Q 79.6 110.4 83.0 116.5 Q 85.6 123.9 91.5 128.0 Q 94.4 131.6 102.5 130.0 Q 104.0 127.5 109.5 129.0 L 111.5 132.0 L 118.5 131.0 Q 120.3 133.8 126.5 132.0 L 129.5 131.0 L 130.0 132.5 L 128.5 135.0 L 123.5 134.0 L 120.5 139.0 Q 118.5 136.0 112.5 137.0 L 110.5 137.0 L 101.5 138.0 L 97.5 136.0 L 97.5 137.0 Q 98.9 139.6 103.5 139.0 Q 104.8 136.8 109.5 138.0 Q 112.0 139.0 111.0 143.5 L 106.5 146.0 L 102.5 145.0 L 101.5 147.0 L 99.5 148.0 L 89.5 145.0 L 81.0 139.5 L 79.0 130.5 L 75.5 125.0 L 58.5 127.0 L 47.0 122.5 L 47.5 120.0 L 53.5 119.0 Q 54.3 121.8 58.5 121.0 L 62.5 116.0 L 68.5 112.0 Z" desc="l 5 p 1" fill="green" opacity="1.0" stroke="rgb(246,123,23)" stroke-width="1"/>
	<path d="M 115.5 148.0 Q 122.8 146.8 125.0 150.5 L 124.0 155.5 L 121.5 161.0 L 112.0 165.5 L 110.0 169.5 L 113.0 167.5 L 114.5 165.0 L 123.0 161.5 L 127.5 149.0 L 128.5 151.0 L 135.0 154.5 L 136.0 164.5 L 129.5 174.0 Q 125.8 177.3 117.5 176.0 L 112.5 175.0 Q 104.4 177.9 100.0 184.5 L 99.0 192.5 Q 98.6 201.6 92.5 205.0 L 89.5 206.0 L 89.0 204.5 Q 96.3 200.3 94.0 186.5 Q 91.8 171.8 99.5 167.0 L 106.5 164.0 L 112.0 160.5 L 115.5 148.0 Z" desc="l 5 p 2" fill="green" opacity="1.0" stroke="rgb(246,123,23)" stroke-width="1"/>
	<path d="M 325.5 77.0 L 333.5 79.0 L 340.0 84.5 Q 341.4 95.1 349.5 99.0 Q 357.9 99.6 362.0 104.5 Q 363.5 111.4 368.5 115.0 L 370.0 115.5 Q 371.1 130.4 380.5 137.0 L 382.0 136.5 L 382.5 129.0 Q 387.7 141.3 397.5 149.0 L 405.5 152.0 L 409.5 153.0 L 414.0 157.5 L 411.0 158.5 L 411.5 160.0 L 413.0 160.5 L 412.5 162.0 Q 403.6 161.1 399.5 165.0 L 394.5 164.0 L 387.0 169.5 Q 384.6 172.1 378.5 171.0 L 373.5 170.0 Q 362.4 168.6 357.0 161.5 L 352.5 156.0 Q 347.5 150.0 336.5 150.0 L 331.5 148.0 Q 324.4 147.1 322.0 141.5 L 312.5 131.0 Q 302.8 130.8 298.0 125.5 L 296.0 121.5 L 297.5 121.0 L 304.0 122.5 L 310.5 123.0 Q 315.7 122.8 317.5 126.0 L 324.0 131.5 L 327.5 136.0 L 332.5 138.0 L 336.5 137.0 L 345.5 137.0 L 360.0 142.5 Q 363.1 150.9 369.5 156.0 Q 375.7 160.8 386.0 161.5 Q 381.9 166.9 370.5 165.0 L 366.5 163.0 L 367.5 165.0 L 372.5 166.0 L 381.5 166.0 L 387.0 162.5 Q 388.0 160.0 392.5 161.0 L 397.5 160.0 L 400.5 159.0 L 405.5 161.0 L 404.5 159.0 L 397.5 157.0 L 392.5 155.0 L 383.5 151.0 Q 373.2 146.3 367.0 137.5 Q 364.0 135.5 365.0 129.5 L 366.0 129.5 L 371.5 137.0 L 380.0 142.5 L 380.5 144.0 L 382.0 144.5 L 382.5 146.0 L 391.5 147.0 L 391.5 146.0 Q 385.4 147.1 383.0 144.5 L 382.5 143.0 L 381.0 142.5 L 379.5 140.0 L 368.0 131.5 L 354.5 110.0 L 342.0 105.5 Q 336.3 99.7 334.0 90.5 Q 335.5 81.5 329.5 80.0 Q 324.8 79.2 325.5 77.0 Z" desc="l 13 p 0" fill="green" opacity="1.0" stroke="green" stroke-width="1"/>
	<path d="M 515.5 108.0 L 516.0 110.5 L 507.5 121.0 L 500.5 123.0 L 490.5 124.0 Q 481.5 125.0 477.0 130.5 L 474.5 137.0 L 472.0 138.5 L 470.5 143.0 Q 466.0 139.6 467.0 130.5 Q 469.5 122.5 475.5 118.0 Q 481.8 115.3 492.5 117.0 L 498.0 118.5 L 504.5 119.0 Q 511.4 117.4 514.0 111.5 L 515.5 108.0 Z" desc="l 13 p 1" fill="green" opacity="1.0" stroke="green" stroke-width="1"/>
	<path d="M 311.5 171.0 L 317.0 171.5 L 323.0 173.5 Q 325.1 175.9 330.5 175.0 L 345.5 177.0 Q 347.0 174.5 352.5 176.0 L 359.5 181.0 Q 364.0 185.1 373.5 184.0 Q 379.1 179.6 389.5 180.0 L 393.0 182.5 Q 391.8 185.3 386.5 184.0 Q 381.8 182.8 380.5 185.0 L 375.5 188.0 L 370.5 191.0 Q 368.8 193.8 362.5 192.0 L 358.0 187.5 Q 356.8 184.8 351.5 186.0 L 351.5 187.0 Q 357.5 186.0 358.5 190.0 Q 360.8 195.3 370.5 193.0 L 379.5 187.0 Q 381.5 184.0 387.5 185.0 Q 392.3 186.3 393.5 184.0 L 396.5 182.0 L 397.0 191.5 L 392.5 192.0 Q 388.8 191.3 388.0 193.5 L 375.5 199.0 L 370.0 200.5 Q 367.0 203.5 359.5 202.0 L 355.0 198.5 Q 352.5 189.4 345.5 185.0 Q 342.2 182.3 335.5 183.0 L 330.0 182.5 L 323.5 180.0 L 314.5 175.0 Q 310.0 176.0 309.0 173.5 L 309.5 172.0 L 311.5 171.0 Z" desc="l 13 p 2" fill="green" opacity="1.0" stroke="green" stroke-width="1"/>
	<path d="M 474.5 186.0 Q 477.8 191.2 486.5 191.0 Q 488.0 193.5 493.5 192.0 L 498.5 193.0 L 501.5 195.0 Q 505.3 199.7 515.5 198.0 L 519.5 197.0 L 529.5 197.0 L 535.0 201.5 L 530.5 202.0 L 526.5 201.0 L 517.5 201.0 Q 512.7 205.7 501.5 204.0 L 495.0 198.5 Q 493.3 194.3 485.5 196.0 Q 475.6 195.4 471.0 189.5 L 474.5 186.0 Z" desc="l 13 p 3" fill="green" opacity="1.0" stroke="green" stroke-width="1"/>
	<path d="M 208.5 199.0 L 214.0 199.5 L 215.5 202.0 Q 219.1 205.4 226.0 205.5 Q 220.5 207.0 222.0 215.5 L 223.5 218.0 Q 212.2 216.7 209.0 223.5 Q 207.3 233.3 212.5 236.0 Q 220.5 237.5 223.0 233.5 L 222.5 229.0 L 219.0 229.5 L 222.0 230.5 L 220.5 234.0 L 213.5 235.0 Q 208.7 232.8 210.0 224.5 Q 213.6 217.1 226.5 219.0 L 231.0 222.5 Q 234.6 227.9 233.0 238.5 L 229.5 243.0 Q 228.1 245.6 223.5 245.0 L 211.5 245.0 L 198.0 236.5 L 197.5 229.0 L 196.5 236.0 L 192.0 232.5 L 191.0 226.5 L 193.0 223.5 L 190.0 222.5 Q 186.0 219.5 186.0 212.5 Q 188.1 208.6 194.0 208.5 Q 198.6 209.1 200.0 206.5 Q 199.3 200.8 203.5 200.0 L 208.5 199.0 Z" desc="l 13 p 4" fill="green" opacity="1.0" stroke="green" stroke-width="1"/>
	<path d="M 406.5 202.0 L 410.0 204.5 L 405.5 211.0 L 402.0 210.5 Q 400.8 205.3 403.5 204.0 L 406.5 202.0 Z" desc="l 13 p 5" fill="green" opacity="1.0" stroke="green" stroke-width="1"/>
	<path d="M 403.5 212.0 L 406.0 212.5 L 407.0 216.5 L 410.0 219.5 L 408.5 225.0 L 402.0 213.5 L 403.5 212.0 Z" desc="l 13 p 6" fill="green" opacity="1.0" stroke="green" stroke-width="1"/>
	<path d="M 410.5 221.0 L 419.0 227.5 L 417.5 232.0 L 412.0 228.5 L 411.5 227.0 L 410.0 226.5 L 410.5 221.0 Z" desc="l 13 p 7" fill="green" opacity="1.0" stroke="green" stroke-width="1"/>
	<path d="M 122.5 224.0 L 129.0 228.5 Q 131.0 237.0 126.5 239.0 L 123.0 237.5 L 122.5 224.0 Z" desc="l 13 p 8" fill="green" opacity="1.0" stroke="green" stroke-width="1"/>
	<path d="M 295.5 225.0 L 299.5 226.0 L 307.0 229.5 Q 310.0 232.5 309.0 239.5 L 300.5 250.0 Q 290.0 256.5 270.5 254.0 L 264.5 251.0 Q 263.0 253.5 261.5 250.0 L 253.5 244.0 L 259.5 251.0 L 264.0 254.5 L 265.0 259.5 L 256.5 269.0 L 246.5 272.0 L 232.5 273.0 L 225.0 268.5 Q 224.0 263.0 227.5 262.0 L 231.0 259.5 L 230.5 256.0 L 226.0 252.5 L 225.0 250.5 L 225.0 248.5 L 226.5 246.0 L 233.0 241.5 L 234.5 230.0 L 238.5 231.0 L 247.5 231.0 L 254.5 226.0 L 262.5 232.0 Q 267.5 235.0 276.5 234.0 Q 277.8 230.8 283.5 232.0 Q 290.8 233.3 293.0 229.5 L 295.5 225.0 Z" desc="l 13 p 9" fill="green" opacity="1.0" stroke="green" stroke-width="1"/>
	<path d="M 420.5 229.0 L 433.5 235.0 L 444.0 238.5 L 442.5 244.0 L 429.0 238.5 L 429.5 236.0 L 432.0 235.5 L 428.5 235.0 L 427.5 238.0 Q 421.8 236.8 419.0 232.5 L 420.5 229.0 Z" desc="l 13 p 10" fill="green" opacity="1.0" stroke="green" stroke-width="1"/>
	<path d="M 129.5 238.0 Q 134.2 251.3 144.5 259.0 L 149.5 263.0 Q 152.5 267.0 159.5 267.0 L 163.5 268.0 Q 168.3 267.3 169.0 270.5 L 168.5 275.0 L 164.5 277.0 L 152.0 274.5 L 152.0 272.5 L 149.0 269.5 L 150.0 264.5 L 148.0 265.5 Q 146.8 272.3 151.0 273.5 L 149.5 274.0 L 142.0 269.5 L 135.0 264.5 Q 132.2 262.8 133.0 257.5 L 135.5 254.0 L 138.0 253.5 L 134.5 253.0 L 131.5 259.0 L 125.0 247.5 L 123.0 240.5 Q 128.1 241.1 129.5 238.0 Z" desc="l 13 p 11" fill="green" opacity="1.0" stroke="green" stroke-width="1"/>
	<path d="M 445.5 239.0 L 463.0 244.5 L 457.0 248.5 L 456.5 250.0 L 450.5 246.0 Q 445.8 245.8 444.0 242.5 L 445.5 239.0 Z" desc="l 13 p 12" fill="green" opacity="1.0" stroke="green" stroke-width="1"/>
	<path d="M 310.5 240.0 L 319.0 247.5 Q 327.3 256.7 332.0 269.5 Q 338.9 286.6 351.5 298.0 L 355.0 299.5 L 359.5 305.0 Q 364.3 303.8 365.5 306.0 L 371.0 309.5 L 366.0 313.5 Q 364.8 316.3 359.5 315.0 L 350.0 309.5 Q 349.3 304.8 351.5 303.0 L 355.0 301.5 L 352.5 301.0 L 350.0 302.5 L 348.5 308.0 L 339.5 299.0 Q 334.1 295.9 333.0 288.5 Q 334.3 285.3 339.0 285.5 L 334.5 285.0 L 331.5 289.0 L 326.0 280.5 Q 321.8 276.7 323.0 267.5 L 329.0 264.5 L 325.5 264.0 L 321.5 267.0 L 314.5 257.0 Q 311.3 256.3 312.0 251.5 L 314.5 248.0 L 317.0 247.5 L 313.5 247.0 L 310.5 252.0 L 305.0 247.5 L 310.5 240.0 Z" desc="l 13 p 13" fill="green" opacity="1.0" stroke="green" stroke-width="1"/>
	<path d="M 464.5 245.0 Q 472.3 246.2 476.0 251.5 L 472.0 253.5 L 471.5 255.0 L 470.0 255.5 L 469.5 259.0 L 467.0 257.5 L 464.5 254.0 Q 459.8 253.8 458.0 250.5 L 461.5 246.0 L 464.5 245.0 Z" desc="l 13 p 14" fill="green" opacity="1.0" stroke="green" stroke-width="1"/>
	<path d="M 223.5 252.0 L 225.0 252.5 L 228.5 257.0 L 230.0 257.5 L 227.5 261.0 L 224.0 263.5 L 223.5 267.0 L 215.5 269.0 L 212.5 264.0 L 212.0 267.5 L 216.0 270.5 L 205.5 276.0 Q 202.2 279.2 194.5 278.0 L 195.0 276.5 L 197.5 269.0 Q 206.8 269.8 210.5 265.0 L 220.0 256.5 L 223.5 252.0 Z" desc="l 13 p 15" fill="green" opacity="1.0" stroke="green" stroke-width="1"/>
	<path d="M 475.5 253.0 L 478.0 254.5 L 481.5 263.0 L 483.5 271.0 L 484.0 278.5 L 479.5 279.0 Q 476.6 267.9 470.0 260.5 L 471.5 256.0 L 473.0 255.5 L 473.5 254.0 L 475.5 253.0 Z" desc="l 13 p 16" fill="green" opacity="1.0" stroke="green" stroke-width="1"/>
	<path d="M 480.5 280.0 L 485.0 280.5 L 485.0 289.5 L 484.0 293.5 L 483.0 297.5 L 478.5 306.0 L 473.0 304.5 L 477.0 298.5 L 478.0 292.5 L 478.5 287.0 L 480.5 280.0 Z" desc="l 13 p 17" fill="green" opacity="1.0" stroke="green" stroke-width="1"/>
	<path d="M 132.5 301.0 Q 139.6 300.0 143.0 302.5 Q 146.9 305.1 146.0 312.5 Q 144.8 319.8 148.5 322.0 L 150.0 322.5 L 146.5 327.0 L 143.0 328.5 L 142.5 330.0 L 138.5 331.0 L 141.0 327.5 L 142.0 318.5 L 137.5 311.0 L 133.5 309.0 L 125.5 308.0 L 119.0 313.5 Q 118.2 319.3 121.5 321.0 Q 123.8 323.7 129.5 323.0 L 133.0 320.5 L 132.5 315.0 Q 128.8 314.3 128.0 316.5 L 128.5 318.0 L 131.5 316.0 L 132.0 319.5 L 126.5 322.0 L 121.0 318.5 L 120.0 314.5 Q 122.3 309.3 129.5 309.0 Q 136.1 309.9 139.0 314.5 Q 141.6 317.4 141.0 323.5 Q 139.6 329.6 134.5 332.0 L 125.5 332.0 L 120.0 330.5 L 111.0 323.5 L 109.0 319.5 L 108.0 313.5 Q 108.9 306.9 113.5 304.0 Q 116.2 301.2 122.5 302.0 L 124.5 305.0 L 132.5 301.0 Z" desc="l 13 p 18" fill="green" opacity="1.0" stroke="green" stroke-width="1"/>
	<path d="M 472.5 306.0 Q 476.3 305.3 477.0 307.5 L 462.5 321.0 L 461.0 317.5 L 472.5 306.0 Z" desc="l 13 p 19" fill="green" opacity="1.0" stroke="green" stroke-width="1"/>
	<path d="M 457.5 319.0 L 461.0 320.5 L 460.5 322.0 L 444.5 328.0 L 444.0 326.5 L 457.5 319.0 Z" desc="l 13 p 20" fill="green" opacity="1.0" stroke="green" stroke-width="1"/>
	<path d="M 412.5 326.0 L 422.0 326.5 L 421.5 333.0 L 407.0 332.5 L 412.5 326.0 Z" desc="l 13 p 21" fill="green" opacity="1.0" stroke="green" stroke-width="1"/>
	<path d="M 423.5 326.0 L 443.0 327.5 L 442.5 329.0 L 433.5 332.0 L 423.5 333.0 L 423.5 326.0 Z" desc="l 13 p 22" fill="green" opacity="1.0" stroke="green" stroke-width="1"/>
	<path d="M 401.5 333.0 L 410.5 334.0 Q 422.1 334.9 427.5 342.0 L 434.5 346.0 L 444.5 347.0 Q 451.3 345.7 454.0 348.5 L 456.5 352.0 L 462.0 355.5 L 461.5 358.0 Q 458.3 361.8 450.5 361.0 L 436.0 358.5 L 427.5 357.0 L 417.5 353.0 L 407.5 347.0 Q 402.8 344.8 394.5 346.0 Q 393.3 348.3 388.5 347.0 L 379.0 351.5 Q 377.5 357.0 380.0 358.5 L 381.0 362.5 L 379.5 365.0 L 358.0 363.5 L 360.5 358.0 Q 367.8 358.3 370.0 353.5 Q 368.3 344.8 372.5 342.0 Q 376.8 335.8 387.5 336.0 L 394.0 335.5 L 401.5 333.0 Z" desc="l 13 p 23" fill="green" opacity="1.0" stroke="green" stroke-width="1"/>
	<path d="M 206.5 96.0 L 213.5 101.0 Q 216.2 103.8 222.5 103.0 Q 229.4 102.1 232.0 105.5 L 238.0 111.5 Q 242.4 121.6 250.5 128.0 Q 256.4 130.6 266.5 129.0 L 269.5 128.0 L 277.5 128.0 L 289.0 137.5 Q 293.9 141.6 292.0 152.5 L 289.5 156.0 L 280.0 162.5 L 274.5 165.0 Q 273.3 162.8 268.5 164.0 L 259.5 164.0 L 254.5 163.0 L 250.5 164.0 Q 244.4 162.6 242.0 157.5 L 243.0 150.5 L 247.5 146.0 L 255.0 143.5 L 253.5 139.0 Q 250.5 136.0 243.5 137.0 Q 235.7 138.3 233.5 134.0 L 227.0 127.5 L 226.0 121.5 Q 227.0 117.0 224.5 116.0 L 216.5 113.0 L 209.0 106.5 L 207.0 100.5 L 206.5 96.0 Z" desc="l 13 p 0" fill="green" opacity="1.0" stroke="green" stroke-width="1"/>
	<path d="M 50.5 357.0 L 52.0 357.5 L 51.5 361.0 L 48.0 358.5 L 50.5 357.0 Z" desc="l 13 p 1" fill="green" opacity="1.0" stroke="green" stroke-width="1"/>
	<path d="M 265.5 253.0 L 269.0 254.5 L 270.5 257.0 L 272.0 257.5 L 273.0 263.5 Q 268.9 268.9 260.5 270.0 Q 253.6 271.5 250.0 276.5 Q 248.8 283.2 252.0 285.5 L 248.5 286.0 L 245.0 283.5 Q 242.2 281.8 243.0 276.5 L 244.5 274.0 Q 259.0 272.5 265.0 262.5 L 266.0 255.5 L 265.5 253.0 Z" desc="l 12 p 0" fill="gray" opacity="1.0" stroke="gray" stroke-width="1"/>
	<path d="M 274.5 264.0 L 277.0 265.5 L 273.0 270.5 L 278.5 271.0 L 282.5 268.0 L 283.0 269.5 L 279.0 272.5 L 286.5 273.0 L 290.0 270.5 L 289.0 272.5 L 291.5 273.0 L 294.5 271.0 L 295.5 275.0 L 296.5 273.0 Q 301.5 272.5 302.0 276.5 L 303.0 279.5 Q 301.3 282.8 296.5 283.0 L 292.5 280.0 L 288.5 283.0 L 286.5 282.0 Q 284.8 284.8 278.5 283.0 L 273.0 279.5 Q 269.7 275.8 271.0 267.5 L 274.5 264.0 Z" desc="l 12 p 1" fill="gray" opacity="1.0" stroke="gray" stroke-width="1"/>
	<path d="M 480.5 311.0 Q 486.6 310.4 489.5 313.0 L 493.5 315.0 Q 495.0 312.5 500.5 314.0 L 503.5 315.0 Q 507.8 314.3 508.5 317.0 L 515.0 322.5 L 518.5 327.0 Q 525.4 328.6 528.0 334.5 L 527.0 339.5 L 525.0 344.5 L 517.5 352.0 Q 512.0 354.5 502.5 353.0 L 495.5 350.0 Q 491.3 356.8 480.5 357.0 L 468.5 357.0 L 455.0 348.5 L 454.5 347.0 L 453.0 346.5 L 449.0 340.5 L 448.0 337.5 L 447.0 328.5 L 458.5 325.0 L 462.5 323.0 L 467.0 322.5 L 467.5 321.0 Q 471.3 318.3 479.5 320.0 L 482.5 321.0 L 482.5 320.0 L 477.5 319.0 L 468.5 319.0 L 466.5 320.0 L 467.5 318.0 L 470.5 316.0 L 472.5 316.0 L 480.5 311.0 Z" desc="l 12 p 2" fill="gray" opacity="1.0" stroke="gray" stroke-width="1"/>
	<path d="M 441.5 138.0 L 449.0 143.5 L 450.5 151.0 L 451.5 147.0 Q 455.3 149.3 454.0 156.5 L 448.5 164.0 L 446.0 164.5 L 445.5 167.0 L 440.0 168.5 L 439.5 170.0 L 428.0 174.5 L 427.5 176.0 Q 421.1 176.6 419.0 181.5 Q 418.5 185.5 413.5 185.0 L 402.5 186.0 L 402.0 184.5 L 405.5 180.0 L 400.5 181.0 L 400.0 179.5 L 404.5 179.0 L 408.0 177.5 Q 404.8 174.2 398.0 174.5 L 406.0 168.5 L 399.0 165.5 Q 403.8 161.3 413.0 161.5 L 412.5 160.0 L 411.0 159.5 L 411.5 158.0 Q 419.5 156.0 421.5 160.0 L 423.5 160.0 Q 429.3 159.3 432.0 155.5 L 434.5 139.0 L 440.0 142.5 L 441.5 146.0 L 442.0 143.5 Q 439.6 142.1 441.5 138.0 Z" desc="l 13 p 0" fill="rgb(180,95,16)" opacity="1.0" stroke="rgb(246,123,23)" stroke-width="1"/>
	<path d="M 529.5 279.0 L 530.0 280.5 L 528.0 285.5 L 528.0 294.5 Q 534.0 298.5 532.0 310.5 L 527.5 316.0 L 518.0 321.5 L 517.5 323.0 L 516.0 322.5 L 510.5 316.0 Q 508.3 313.3 503.0 313.5 Q 502.3 307.8 506.5 307.0 L 521.0 299.5 L 523.0 292.5 L 524.0 288.5 L 526.5 282.0 L 528.0 281.5 L 529.5 279.0 Z" desc="l 13 p 1" fill="red" opacity="1.0" stroke="rgb(246,123,23)" stroke-width="1"/>
</svg>
