<svg xmlns="http://www.w3.org/2000/svg" desc="Created by KTab - Version 1.3" height="417" version="1.1" width="598">
  <path d="M 515.5 31.0 Q 526.3 29.3 532.5 32.0 L 538.0 33.5 L 546.0 37.5 L 544.5 46.0 L 540.0 48.5 Q 538.8 54.8 542.5 56.0 L 545.5 57.0 L 549.0 60.5 L 552.0 73.5 L 554.0 90.5 L 556.0 107.5 L 558.0 119.5 L 562.0 140.5 L 563.0 157.5 L 565.0 167.5 L 566.0 176.5 L 574.0 239.5 L 583.5 297.0 L 588.0 326.5 L 584.5 332.0 L 580.5 334.0 Q 579.3 331.8 578.0 334.5 L 579.0 348.5 Q 577.9 354.6 580.5 357.0 Q 587.4 356.1 589.0 360.5 L 590.0 365.5 L 587.5 369.0 L 580.5 371.0 L 572.5 372.0 L 548.5 373.0 L 544.5 372.0 L 535.5 372.0 L 533.5 372.0 L 528.5 370.0 L 525.0 367.5 Q 524.1 360.6 528.5 359.0 L 531.0 358.5 L 529.5 333.0 Q 524.0 333.5 522.0 330.5 L 519.5 327.0 L 493.5 328.0 L 488.5 329.0 L 479.5 330.0 L 458.0 332.5 L 452.5 333.0 L 448.5 334.0 L 441.0 334.5 L 432.5 336.0 L 407.5 337.0 L 392.0 337.5 L 369.5 339.0 L 333.5 340.0 L 320.5 340.0 L 313.5 341.0 L 295.5 343.0 L 292.5 342.0 Q 291.3 344.3 286.5 343.0 L 273.0 343.5 L 241.5 344.0 Q 237.9 341.1 230.5 342.0 Q 223.0 343.5 219.5 341.0 L 217.5 342.0 L 214.5 341.0 L 207.5 341.0 L 182.5 340.0 L 160.5 339.0 L 122.5 339.0 L 119.5 340.0 L 113.0 340.5 L 96.5 341.0 L 87.5 342.0 L 81.0 342.5 L 74.5 344.0 L 72.5 344.0 L 66.0 346.5 L 64.5 349.0 L 55.0 352.5 L 55.0 367.5 L 54.0 376.5 Q 54.5 380.5 51.5 381.0 L 46.0 383.5 L 45.5 385.0 L 38.0 388.5 L 32.5 389.0 L 24.0 385.5 L 22.5 382.0 L 15.0 379.5 L 14.0 372.5 L 13.0 357.5 L 14.0 354.5 Q 7.6 353.4 5.0 348.5 L 4.0 342.5 L 5.0 339.5 L 4.0 336.5 L 5.0 334.5 L 4.0 332.5 L 5.5 324.0 L 6.5 311.0 L 7.0 292.5 L 7.5 258.0 L 8.0 250.5 L 9.0 236.5 Q 11.6 228.6 10.0 216.5 L 10.5 191.0 L 11.0 184.5 L 11.5 161.0 L 13.0 129.5 L 14.0 110.5 Q 12.7 103.7 15.0 100.5 L 14.0 96.5 Q 15.3 90.8 19.5 88.0 L 21.0 87.5 L 23.0 74.5 L 21.0 71.5 Q 18.8 70.3 20.0 65.5 L 22.5 62.0 L 29.0 60.5 L 34.5 60.0 L 48.5 60.0 L 55.0 63.5 L 56.0 71.5 Q 53.3 72.3 54.0 76.5 Q 55.5 82.0 53.0 83.5 Q 60.6 86.4 65.0 92.5 L 66.5 98.0 L 72.0 97.5 L 79.0 95.5 L 89.5 92.0 L 112.0 87.5 L 121.5 86.0 L 134.5 85.0 L 144.5 83.0 L 167.0 82.5 L 174.5 82.0 L 193.5 81.0 Q 200.3 82.3 203.5 80.0 L 250.5 79.0 L 265.0 78.5 L 286.5 77.0 L 299.5 76.0 Q 306.9 76.9 310.5 74.0 L 312.5 74.0 L 338.5 73.0 L 364.5 71.0 L 393.5 69.0 L 423.0 67.5 L 442.0 66.5 L 464.5 66.0 L 480.5 69.0 L 496.5 70.0 L 498.0 64.5 L 501.5 60.0 Q 506.0 58.0 504.0 49.5 L 498.0 41.5 L 503.5 35.0 L 515.5 31.0 Z" desc="l 14 p 0" fill="#fbe5b3" opacity="1.0" stroke="orange" stroke-width="2"/>
  <path d="M 511.5 36.0 L 519.0 37.5 L 517.5 40.0 L 507.0 42.5 L 505.5 45.0 L 503.0 43.5 Q 502.5 39.5 505.5 39.0 L 511.5 36.0 Z" desc="l 0 p 1" fill="#fbe5b3" opacity="1.0" stroke="orange" stroke-width="1"/>
  <path d="M 530.5 36.0 L 534.5 38.0 L 539.0 39.5 L 538.5 42.0 L 533.0 41.5 L 526.5 40.0 L 520.0 37.5 L 526.5 37.0 L 530.5 36.0 Z" desc="l 0 p 2" fill="#fbe5b3" opacity="1.0" stroke="orange" stroke-width="1"/>
  <path d="M 522.5 43.0 L 528.5 44.0 L 532.0 45.5 L 532.5 47.0 L 535.0 48.5 Q 535.8 52.3 533.5 53.0 L 509.5 56.0 L 509.0 47.5 L 514.5 44.0 L 517.5 45.0 L 522.5 43.0 Z" desc="l 0 p 3" fill="#fbe5b3" opacity="1.0" stroke="orange" stroke-width="1"/>
  <path d="M 526.5 58.0 L 534.0 58.5 L 539.0 59.5 L 538.5 61.0 Q 543.8 59.8 545.0 62.5 L 544.5 64.0 L 539.5 63.0 L 526.5 63.0 L 522.5 64.0 L 513.5 65.0 L 509.0 65.5 L 502.5 68.0 L 502.0 66.5 Q 504.8 62.3 510.5 61.0 L 517.5 59.0 L 523.5 59.0 L 526.5 58.0 Z" desc="l 0 p 4" fill="#fbe5b3" opacity="1.0" stroke="orange" stroke-width="1"/>
  <path d="M 41.5 64.0 L 50.0 64.5 L 49.5 68.0 L 41.5 67.0 Q 40.3 69.3 39.0 66.5 L 41.5 64.0 Z" desc="l 0 p 5" fill="#fbe5b3" opacity="1.0" stroke="orange" stroke-width="1"/>
  <path d="M 25.5 65.0 Q 33.8 63.7 38.0 66.5 L 37.5 68.0 L 25.5 69.0 L 25.5 65.0 Z" desc="l 0 p 6" fill="#fbe5b3" opacity="1.0" stroke="orange" stroke-width="1"/>
  <path d="M 527.5 67.0 L 538.5 67.0 Q 543.3 66.3 545.0 68.5 Q 548.6 70.4 548.0 76.5 L 549.0 83.5 L 555.0 126.5 L 559.0 146.5 L 560.0 160.5 L 562.0 181.5 L 565.0 201.5 L 566.0 215.5 L 572.0 249.5 L 583.0 316.5 L 581.5 317.0 L 578.5 315.0 L 571.5 313.0 L 564.5 312.0 L 549.5 311.0 Q 547.8 313.8 541.5 312.0 Q 530.3 312.8 524.0 318.5 L 522.5 321.0 L 521.0 317.5 L 522.0 312.5 L 521.0 307.5 L 520.0 297.5 L 517.5 269.0 L 516.0 245.5 L 515.0 228.5 L 513.0 211.5 L 511.0 194.5 L 510.0 180.5 L 509.0 160.5 L 508.0 153.5 L 506.0 128.5 L 502.0 77.5 L 503.5 73.0 L 509.5 70.0 L 516.0 68.5 L 523.5 68.0 L 525.5 69.0 L 527.5 67.0 Z" desc="l 0 p 7" fill="#fbe5b3" opacity="1.0" stroke="orange" stroke-width="2"/>
  <path d="M 449.5 70.0 L 462.0 70.5 L 477.0 72.5 L 493.5 75.0 L 495.5 74.0 L 498.0 75.5 L 501.0 108.5 L 504.0 146.5 L 505.5 169.0 L 507.0 185.5 Q 505.8 190.3 508.0 191.5 L 510.0 209.5 L 511.5 230.0 L 514.0 265.5 L 515.5 282.0 L 516.0 300.5 L 517.0 310.5 Q 516.1 317.9 519.0 321.5 L 500.5 324.0 L 485.5 325.0 Q 484.3 327.3 479.5 326.0 L 461.0 328.5 L 447.5 331.0 L 445.5 330.0 L 440.5 331.0 L 430.5 332.0 L 413.5 333.0 L 401.0 333.5 L 384.5 335.0 L 379.5 334.0 L 375.5 335.0 L 367.5 335.0 L 338.5 336.0 L 323.0 336.5 L 315.5 338.0 L 256.5 341.0 Q 255.3 338.8 250.5 340.0 L 238.5 339.0 Q 231.0 336.5 219.5 338.0 L 213.5 338.0 L 210.5 337.0 L 207.5 338.0 L 205.5 338.0 L 130.5 335.0 L 127.5 336.0 L 119.5 336.0 L 107.0 336.5 L 99.5 337.0 L 94.5 338.0 L 92.5 338.0 L 84.0 338.5 L 68.5 341.0 Q 65.3 339.3 67.0 332.5 L 66.0 317.5 Q 67.5 312.0 65.0 310.5 L 66.0 305.5 L 65.0 301.5 L 65.0 292.5 L 64.0 260.5 L 63.5 251.0 L 63.0 207.5 L 64.0 204.5 L 64.0 198.5 L 64.0 172.5 L 63.0 168.5 L 63.0 166.5 L 64.0 134.5 L 63.0 129.5 L 63.0 116.5 L 64.0 112.5 L 64.5 104.0 L 91.5 95.0 L 109.5 91.0 L 126.0 89.5 L 147.5 88.0 L 211.5 84.0 L 213.5 85.0 Q 215.0 82.5 220.5 84.0 L 237.5 83.0 L 277.5 81.0 L 289.0 79.5 L 307.5 79.0 L 327.0 78.5 L 331.5 78.0 L 369.5 75.0 L 382.5 74.0 L 400.5 73.0 L 423.5 72.0 L 425.5 72.0 Q 432.3 73.3 435.5 71.0 L 437.5 71.0 L 445.5 71.0 L 449.5 70.0 Z" desc="l 0 p 8" fill="#fbe5b3" opacity="1.0" stroke="orange" stroke-width="2"/>
  <path d="M 35.5 72.0 L 38.5 73.0 L 41.5 72.0 L 48.5 72.0 Q 50.8 72.8 50.0 76.5 L 51.0 81.5 L 51.0 83.5 L 50.5 85.0 L 36.5 84.0 L 33.5 85.0 L 25.5 85.0 L 25.0 81.5 L 28.5 73.0 Q 34.0 74.5 35.5 72.0 Z" desc="l 0 p 9" fill="#fbe5b3" opacity="1.0" stroke="orange" stroke-width="1"/>
  <path d="M 42.5 88.0 L 51.5 89.0 L 56.5 90.0 L 61.0 93.5 L 60.5 96.0 L 53.5 94.0 L 46.0 92.5 L 32.5 92.0 L 22.5 94.0 L 22.0 92.5 L 26.5 90.0 L 34.5 89.0 Q 40.8 90.8 42.5 88.0 Z" desc="l 0 p 10" fill="#fbe5b3" opacity="1.0" stroke="orange" stroke-width="1"/>
  <path d="M 391.5 89.0 L 436.0 89.5 L 447.5 90.0 L 456.5 90.0 L 461.5 91.0 L 470.0 94.5 L 480.0 103.5 Q 488.2 110.8 486.0 128.5 Q 488.3 129.8 487.0 134.5 L 489.5 156.0 L 490.5 165.0 L 491.0 182.5 L 495.0 223.5 L 496.0 230.5 L 497.0 244.5 L 498.0 260.5 L 499.0 288.5 Q 492.7 302.7 480.5 311.0 L 465.0 315.5 L 455.0 317.5 L 448.5 318.0 Q 438.4 316.4 432.5 319.0 L 430.5 318.0 Q 429.3 320.3 424.5 319.0 L 407.5 319.0 L 404.5 318.0 L 399.5 319.0 L 387.5 319.0 L 382.5 318.0 L 370.5 318.0 L 320.5 318.0 L 309.5 320.0 L 304.0 321.5 L 300.5 328.0 L 295.5 331.0 Q 292.0 333.5 284.5 332.0 L 275.0 324.5 L 273.5 321.0 L 219.5 324.0 L 196.0 325.5 L 175.5 326.0 L 171.5 325.0 Q 170.0 327.5 164.5 326.0 L 148.5 327.0 L 140.0 327.5 L 132.5 329.0 L 128.5 328.0 L 113.5 326.0 L 104.5 324.0 L 100.5 322.0 Q 92.8 318.8 88.0 312.5 L 84.0 305.5 L 82.5 300.0 L 81.5 294.0 L 81.0 283.5 L 81.0 252.5 L 80.0 190.5 L 79.0 141.5 L 80.0 136.5 L 79.0 132.5 L 86.5 122.0 Q 95.7 110.2 113.5 107.0 L 119.5 106.0 L 129.5 104.0 L 192.5 100.0 Q 201.2 97.2 214.5 99.0 L 253.0 98.5 L 261.5 98.0 L 265.5 97.0 L 279.5 95.0 L 292.0 94.5 L 298.5 94.0 L 302.5 93.0 L 304.5 93.0 L 307.5 94.0 L 310.5 93.0 L 317.5 93.0 L 343.5 92.0 L 362.5 91.0 Q 368.8 92.8 370.5 90.0 L 372.5 91.0 Q 373.8 88.8 378.5 90.0 L 387.5 90.0 L 391.5 89.0 Z" desc="l 14 p 1" fill="#fbe5b3" opacity="1.0" stroke="orange" stroke-width="2"/>
  <path d="M 400.5 93.0 L 453.5 94.0 L 455.5 93.0 Q 463.7 94.3 468.5 99.0 L 479.0 108.5 L 482.0 115.5 L 483.0 123.5 L 483.0 131.5 L 484.0 136.5 L 486.0 163.5 L 489.0 182.5 Q 486.5 184.0 488.0 189.5 L 489.0 192.5 L 489.0 201.5 L 492.0 226.5 L 492.5 239.0 L 494.0 247.5 L 496.0 284.5 Q 490.6 297.1 480.5 305.0 Q 475.6 309.1 467.5 310.0 L 456.5 312.0 L 450.5 313.0 Q 447.0 315.5 439.5 314.0 L 427.5 314.0 L 422.5 315.0 L 419.5 314.0 L 412.5 314.0 L 383.5 314.0 L 381.5 314.0 L 369.5 315.0 L 365.5 314.0 L 356.5 314.0 L 320.5 314.0 L 315.5 315.0 L 306.5 316.0 L 299.5 307.0 L 292.5 304.0 L 286.5 303.0 L 283.5 304.0 Q 278.8 303.3 278.0 306.5 L 273.5 317.0 L 263.5 316.0 L 258.5 318.0 Q 257.0 315.5 251.5 317.0 L 247.5 318.0 L 241.0 318.5 L 229.5 319.0 L 206.5 320.0 Q 201.0 322.5 191.5 321.0 L 159.5 322.0 L 143.5 323.0 L 130.5 324.0 L 127.5 323.0 L 121.5 323.0 L 119.5 323.0 Q 101.8 323.2 94.0 313.5 Q 87.5 306.0 85.0 294.5 L 85.0 287.5 L 84.0 283.5 L 84.0 247.5 L 83.5 165.0 L 83.0 144.5 L 86.0 132.5 Q 85.8 127.3 89.0 125.5 L 93.5 120.0 L 100.5 115.0 Q 106.6 110.6 116.5 110.0 L 129.5 108.0 L 134.5 107.0 L 159.5 106.0 L 178.5 105.0 L 189.5 104.0 L 199.5 103.0 L 223.5 103.0 L 244.5 102.0 L 255.0 101.5 L 263.0 100.5 L 275.5 99.0 L 288.5 98.0 L 299.5 97.0 L 301.5 97.0 L 315.5 97.0 Q 320.3 98.3 321.5 96.0 L 324.5 97.0 L 326.5 97.0 L 332.5 96.0 L 334.5 96.0 L 362.5 95.0 L 381.5 94.0 L 394.5 94.0 Q 399.3 95.3 400.5 93.0 Z" desc="l 0 p 11" fill="white" opacity="1.0" stroke="orange" stroke-width="2"/>
  <path d="M 36.5 96.0 L 46.5 98.0 L 48.5 97.0 L 54.5 99.0 L 60.0 101.5 L 60.0 192.5 L 59.0 241.5 L 60.0 245.5 L 60.0 257.5 L 61.0 290.5 L 62.0 309.5 Q 59.5 311.0 61.0 316.5 Q 63.3 317.8 62.0 322.5 L 63.0 336.5 Q 61.8 339.3 60.5 337.0 L 54.5 335.0 L 51.5 333.0 L 44.0 331.5 L 31.5 331.0 L 9.5 339.0 L 9.0 329.5 L 10.0 325.5 L 10.5 318.0 L 11.0 306.5 L 12.0 287.5 L 11.0 284.5 L 11.0 275.5 Q 13.3 274.3 12.0 269.5 L 12.0 260.5 L 13.0 255.5 L 12.0 252.5 L 13.0 249.5 L 13.0 241.5 Q 10.5 240.0 12.0 234.5 L 13.0 230.5 L 13.0 218.5 L 14.0 187.5 L 15.0 168.5 L 16.0 144.5 L 16.5 134.0 L 18.0 121.5 Q 16.7 111.2 19.0 104.5 Q 18.3 99.8 21.5 99.0 L 36.5 96.0 Z" desc="l 0 p 12" fill="#fbe5b3" opacity="1.0" stroke="orange" stroke-width="2"/>
  <path d="M 282.5 308.0 Q 296.5 305.5 300.0 313.5 L 301.0 319.5 L 298.5 323.0 L 297.0 323.5 L 294.5 327.0 L 285.5 328.0 L 278.0 322.5 Q 276.7 315.7 279.0 312.5 L 282.5 308.0 Z" desc="l 0 p 13" fill="#fbe5b3" opacity="1.0" stroke="orange" stroke-width="2"/>
  <path d="M 552.5 315.0 L 561.5 316.0 L 572.5 317.0 L 584.0 321.5 L 585.0 326.5 Q 583.1 330.1 577.5 330.0 L 574.5 326.0 L 570.5 324.0 L 565.5 323.0 L 550.5 321.0 L 539.0 323.5 Q 534.3 323.3 533.0 326.5 Q 532.0 330.0 526.5 329.0 Q 524.0 328.0 525.0 323.5 L 536.5 318.0 Q 538.8 315.3 544.5 316.0 Q 550.8 317.8 552.5 315.0 Z" desc="l 0 p 14" fill="#fbe5b3" opacity="1.0" stroke="orange" stroke-width="1"/>
  <path d="M 550.5 326.0 L 562.5 327.0 Q 571.0 327.0 575.0 331.5 L 576.0 355.5 L 572.5 357.0 L 569.5 356.0 L 563.5 356.0 L 538.5 356.0 L 535.5 357.0 Q 533.1 354.9 534.0 349.5 L 534.0 332.5 L 541.5 328.0 Q 547.6 328.6 550.5 326.0 Z" desc="l 0 p 15" fill="#fbe5b3" opacity="1.0" stroke="orange" stroke-width="1"/>
  <path d="M 27.5 336.0 L 40.5 336.0 L 47.5 337.0 L 52.5 338.0 L 60.0 343.5 L 55.5 347.0 L 53.5 344.0 L 51.0 344.5 L 50.0 347.5 Q 52.3 348.8 51.0 353.5 L 51.0 370.5 L 48.5 371.0 L 41.5 369.0 L 32.5 367.0 L 18.5 371.0 L 18.0 367.5 L 19.0 365.5 L 19.0 363.5 L 19.0 353.5 Q 19.8 347.7 16.5 346.0 L 14.0 346.5 L 13.5 348.0 L 10.0 346.5 Q 9.3 342.8 11.5 342.0 L 27.5 336.0 Z" desc="l 0 p 16" fill="#fbe5b3" opacity="1.0" stroke="orange" stroke-width="1"/>
  <path d="M 545.5 359.0 L 552.5 360.0 Q 554.0 357.5 559.5 359.0 L 577.5 359.0 L 587.0 362.5 L 585.5 365.0 L 573.0 368.5 L 563.5 369.0 L 536.5 369.0 Q 535.0 365.5 533.5 368.0 Q 529.5 368.5 529.0 365.5 L 532.5 361.0 L 539.0 360.5 L 545.5 359.0 Z" desc="l 0 p 17" fill="#fbe5b3" opacity="1.0" stroke="orange" stroke-width="1"/>
  <path d="M 32.5 372.0 L 42.5 373.0 L 50.0 376.5 L 45.0 378.5 L 42.5 384.0 L 38.5 385.0 L 29.5 385.0 L 25.0 381.5 Q 25.8 377.8 23.5 377.0 L 19.5 378.0 L 19.0 376.5 L 32.5 372.0 Z" desc="l 0 p 18" fill="#fbe5b3" opacity="1.0" stroke="orange" stroke-width="1"/>
</svg>
