<svg width="1024" height="1024" xmlns="http://www.w3.org/2000/svg" desc="Created by KTab" version="1.2">
	<path stroke="orange" stroke-width="5" fill="none" opacity="1.0" d="M 692.0 200.23085463760208 L 332.0 200.23085463760208 L 152.0 512.0 L 332.0 823.7691453623979 L 692.0 823.7691453623979 L 872.0 512.0 Z"/>
	<circle cx="872.0" cy="512.0" r="3" fill="none" stroke="red" stroke-width="2"/>
	<circle cx="152.0" cy="512.0" r="3" fill="none" stroke="red" stroke-width="2"/>
	<circle cx="692.0" cy="823.7691453623979" r="3" fill="none" stroke="red" stroke-width="2"/>
	<circle cx="332.0" cy="823.7691453623979" r="3" fill="none" stroke="red" stroke-width="2"/>
	<circle cx="721.9999999999989" cy="771.8076211353332" r="3" fill="none" stroke="red" stroke-width="2"/>
	<circle cx="751.9999999999982" cy="719.8460969082685" r="3" fill="none" stroke="red" stroke-width="2"/>
	<circle cx="781.9999999999974" cy="667.8845726812035" r="3" fill="none" stroke="red" stroke-width="2"/>
	<circle cx="812.0" cy="615.923048454133" r="3" fill="none" stroke="red" stroke-width="2"/>
	<circle cx="841.9999999999986" cy="563.9615242270687" r="3" fill="none" stroke="red" stroke-width="2"/>
	<circle cx="302.0000000000024" cy="771.807621135336" r="3" fill="none" stroke="red" stroke-width="2"/>
	<circle cx="271.9999999999886" cy="719.8460969082456" r="3" fill="none" stroke="red" stroke-width="2"/>
	<circle cx="241.99999999999187" cy="667.8845726811851" r="3" fill="none" stroke="red" stroke-width="2"/>
	<circle cx="211.99999999999704" cy="615.9230484541274" r="3" fill="none" stroke="red" stroke-width="2"/>
	<circle cx="181.99999999999878" cy="563.9615242270642" r="3" fill="none" stroke="red" stroke-width="2"/>
	<path stroke="orange" stroke-width="5" fill="white" opacity="1.0" d="M 181.99999999999878 563.9615242270642 L 841.9999999999986 563.9615242270687 L 872.0 512.0 L 152.0 512.0 Z"/>
	<path stroke="orange" stroke-width="5" fill="red" opacity="1.0" d="M 211.99999999999704 615.9230484541274 L 812.0 615.923048454133 L 841.9999999999986 563.9615242270687 L 181.99999999999878 563.9615242270642 Z"/>
	<path stroke="orange" stroke-width="5" fill="white" opacity="1.0" d="M 241.99999999999187 667.8845726811851 L 781.9999999999974 667.8845726812035 L 812.0 615.923048454133 L 211.99999999999704 615.9230484541274 Z"/>
	<path stroke="orange" stroke-width="5" fill="red" opacity="1.0" d="M 271.9999999999886 719.8460969082456 L 751.9999999999982 719.8460969082685 L 781.9999999999974 667.8845726812035 L 241.99999999999187 667.8845726811851 Z"/>
	<path stroke="orange" stroke-width="5" fill="white" opacity="1.0" d="M 302.0000000000024 771.807621135336 L 721.9999999999989 771.8076211353332 L 751.9999999999982 719.8460969082685 L 271.9999999999886 719.8460969082456 Z"/>
	<path stroke="orange" stroke-width="5" fill="red" opacity="1.0" d="M 332.0 823.7691453623979 L 692.0 823.7691453623979 L 721.9999999999989 771.8076211353332 L 302.0000000000024 771.807621135336 Z"/>
	<circle cx="692.0" cy="200.23085463760208" r="3" fill="none" stroke="red" stroke-width="2"/>
	<circle cx="717.714285714289" cy="244.76930397509312" r="3" fill="none" stroke="red" stroke-width="2"/>
	<circle cx="743.4285714285736" cy="289.3077533125768" r="3" fill="none" stroke="red" stroke-width="2"/>
	<circle cx="769.1428571428606" cy="333.8462026500643" r="3" fill="none" stroke="red" stroke-width="2"/>
	<circle cx="794.8571428571502" cy="378.3846519875565" r="3" fill="none" stroke="red" stroke-width="2"/>
	<circle cx="820.5714285714348" cy="422.92310132503997" r="3" fill="none" stroke="red" stroke-width="2"/>
	<circle cx="846.2857142857181" cy="467.46155066252095" r="3" fill="none" stroke="red" stroke-width="2"/>
	<circle cx="332.0" cy="200.23085463760208" r="3" fill="none" stroke="red" stroke-width="2"/>
	<circle cx="512.0" cy="512.0" r="3" fill="none" stroke="red" stroke-width="2"/>
	<circle cx="512.0" cy="200.23085463760208" r="3" fill="none" stroke="red" stroke-width="2"/>
	<path d="M 512.0 512.0 L 512.0 200.23085463760208" stroke="orange" stroke-width="5"/>
	<path stroke="orange" stroke-width="5" fill="blue" opacity="0.4" d="M 512.0 512.0 L 512.0 200.23085463760208 L 332.0 200.23085463760208 L 152.0 512.0 Z"/>
	<circle cx="512.0" cy="244.76930397508798" r="3" fill="none" stroke="red" stroke-width="2"/>
	<circle cx="512.0" cy="289.30775331257365" r="3" fill="none" stroke="red" stroke-width="2"/>
	<circle cx="512.0" cy="333.846202650058" r="3" fill="none" stroke="red" stroke-width="2"/>
	<circle cx="512.0" cy="378.3846519875469" r="3" fill="none" stroke="red" stroke-width="2"/>
	<circle cx="512.0000000000001" cy="422.9231013250362" r="3" fill="none" stroke="red" stroke-width="2"/>
	<circle cx="511.9999999999999" cy="467.46155066252027" r="3" fill="none" stroke="red" stroke-width="2"/>
	<path stroke="orange" stroke-width="5" fill="red" opacity="1.0" d="M 872.0 512.0 L 846.2857142857181 467.46155066252095 L 511.9999999999999 467.46155066252027 L 512.0 512.0 Z"/>
</svg>