<svg width="1024" height="1024" xmlns="http://www.w3.org/2000/svg" desc="Created by KTab" version="1.2">
	<path stroke="orange" stroke-width="5" fill="white" d="M 692.0 200.23085463760208 L 332.0 200.23085463760208 L 152.0 512.0 L 332.0 823.7691453623979 L 692.0 823.7691453623979 L 872.0 512.0 Z"/>
	<circle cx="332.0" cy="823.7691453623979" r="3" fill="none" stroke="red" stroke-width="2"/>
	<circle cx="302.0000000000024" cy="771.807621135336" r="3" fill="none" stroke="red" stroke-width="2"/>
	<path stroke="orange" stroke-width="5" fill="white" d="M 181.99999999999878 563.9615242270642 L 841.9999999999986 563.9615242270687 L 872.0 512.0 L 152.0 512.0 Z"/>
	<path stroke="orange" stroke-width="5" fill="red" d="M 211.99999999999704 615.9230484541274 L 812.0 615.923048454133 L 841.9999999999986 563.9615242270687 L 181.99999999999878 563.9615242270642 Z"/>
	<path stroke="orange" stroke-width="5" fill="white" d="M 241.99999999999187 667.8845726811851 L 781.9999999999974 667.8845726812035 L 812.0 615.923048454133 L 211.99999999999704 615.9230484541274 Z"/>
	<path stroke="orange" stroke-width="5" fill="red" d="M 271.9999999999886 719.8460969082456 L 751.9999999999982 719.8460969082685 L 781.9999999999974 667.8845726812035 L 241.99999999999187 667.8845726811851 Z"/>
	<path stroke="orange" stroke-width="5" fill="white" d="M 302.0000000000024 771.807621135336 L 721.9999999999989 771.8076211353332 L 751.9999999999982 719.8460969082685 L 271.9999999999886 719.8460969082456 Z"/>
	<path stroke="orange" stroke-width="5" fill="red" d="M 332.0 823.7691453623979 L 692.0 823.7691453623979 L 721.9999999999989 771.8076211353332 L 302.0000000000024 771.807621135336 Z"/>
	<circle cx="692.0" cy="200.23085463760208" r="3" fill="none" stroke="red" stroke-width="2"/>
	<circle cx="717.714285714289" cy="244.76930397509312" r="3" fill="none" stroke="red" stroke-width="2"/>
	<circle cx="743.4285714285736" cy="289.3077533125768" r="3" fill="none" stroke="red" stroke-width="2"/>
	<circle cx="769.1428571428606" cy="333.8462026500643" r="3" fill="none" stroke="red" stroke-width="2"/>
	<circle cx="794.8571428571502" cy="378.3846519875565" r="3" fill="none" stroke="red" stroke-width="2"/>
	<circle cx="820.5714285714348" cy="422.92310132503997" r="3" fill="none" stroke="red" stroke-width="2"/>
	<circle cx="846.2857142857181" cy="467.46155066252095" r="3" fill="none" stroke="red" stroke-width="2"/>
	<circle cx="332.0" cy="200.23085463760208" r="3" fill="none" stroke="red" stroke-width="2"/>
	<circle cx="512.0" cy="512.0" r="3" fill="none" stroke="red" stroke-width="2"/>
	<circle cx="512.0" cy="200.23085463760208" r="3" fill="none" stroke="red" stroke-width="2"/>
	<path stroke="orange" stroke-width="5" fill="blue" d="M 512.0 512.0 L 512.0 200.23085463760208 L 332.0 200.23085463760208 L 152.0 512.0 Z"/>
	<circle cx="512.0" cy="244.76930397508798" r="3" fill="none" stroke="red" stroke-width="2"/>
	<circle cx="512.0" cy="289.30775331257365" r="3" fill="none" stroke="red" stroke-width="2"/>
	<circle cx="512.0" cy="333.846202650058" r="3" fill="none" stroke="red" stroke-width="2"/>
	<circle cx="512.0" cy="378.3846519875469" r="3" fill="none" stroke="red" stroke-width="2"/>
	<circle cx="512.0000000000001" cy="422.9231013250362" r="3" fill="none" stroke="red" stroke-width="2"/>
	<circle cx="511.9999999999999" cy="467.46155066252027" r="3" fill="none" stroke="red" stroke-width="2"/>
	<path stroke="orange" stroke-width="5" fill="red" d="M 872.0 512.0 L 846.2857142857181 467.46155066252095 L 511.9999999999999 467.46155066252027 L 512.0 512.0 Z"/>
	<path stroke="orange" stroke-width="5" fill="white" d="M 846.2857142857181 467.46155066252095 L 820.5714285714348 422.92310132503997 L 512.0000000000001 422.9231013250362 L 511.9999999999999 467.46155066252027 Z"/>
	<path stroke="orange" stroke-width="5" fill="red" d="M 820.5714285714348 422.92310132503997 L 794.8571428571502 378.3846519875565 L 512.0 378.3846519875469 L 512.0000000000001 422.9231013250362 Z"/>
	<path stroke="orange" stroke-width="5" fill="white" d="M 794.8571428571502 378.3846519875565 L 769.1428571428606 333.8462026500643 L 512.0 333.846202650058 L 512.0 378.3846519875469 Z"/>
	<path stroke="orange" stroke-width="5" fill="red" d="M 769.1428571428606 333.8462026500643 L 743.4285714285736 289.3077533125768 L 512.0 289.30775331257365 L 512.0 333.846202650058 Z"/>
	<path stroke="orange" stroke-width="5" fill="white" d="M 743.4285714285736 289.3077533125768 L 717.714285714289 244.76930397509312 L 512.0 244.76930397508798 L 512.0 289.30775331257365 Z"/>
	<path stroke="orange" stroke-width="5" fill="red" d="M 717.714285714289 244.76930397509312 L 692.0 200.23085463760208 L 512.0 200.23085463760208 L 512.0 244.76930397508798 Z"/>
	<circle cx="306.2857142857139" cy="244.7693039750879" r="3" fill="none" stroke="red" stroke-width="2"/>
	<circle cx="280.57142857142765" cy="289.30775331257416" r="3" fill="none" stroke="red" stroke-width="2"/>
	<circle cx="254.8571428571446" cy="333.8462026500552" r="3" fill="none" stroke="red" stroke-width="2"/>
	<circle cx="229.1428571428579" cy="378.38465198754227" r="3" fill="none" stroke="red" stroke-width="2"/>
	<circle cx="203.42857142857213" cy="422.9231013250281" r="3" fill="none" stroke="red" stroke-width="2"/>
	<circle cx="177.71428571428646" cy="467.46155066251333" r="3" fill="none" stroke="red" stroke-width="2"/>
	<path stroke="orange" stroke-width="1" fill="white" d="M 228.36363636383393 457.3316805326705 L 226.08933882012482 464.3312486415834 L 218.72955736762086 464.331248641582 L 224.68374563758198 468.6572196394621 L 222.4094480938743 475.6567877483707 L 228.3636363638316 471.33081675049647 L 234.31782463378752 475.6567877483726 L 232.04352709008208 468.6572196394632 L 237.99771536004468 464.3312486415852 L 230.6379339075407 464.33124864158407 Z"/>
	<path stroke="orange" stroke-width="1" fill="white" d="M 258.75324675354926 457.33168053267093 L 256.4789492098415 464.331248641583 L 249.11916775733863 464.33124864158384 L 255.07335602729975 468.6572196394605 L 252.7990584835925 475.65678774837113 L 258.75324675355097 471.3308167504942 L 264.70743502351036 475.65678774836977 L 262.4331374798014 468.65721963945975 L 268.3873257497616 464.33124864158157 L 261.0275442972586 464.3312486415824 Z"/>
	<path stroke="orange" stroke-width="1" fill="white" d="M 289.14285714339866 457.3316805326713 L 286.86855959968915 464.3312486415831 L 279.5087781471859 464.3312486415819 L 285.46296641714616 468.65721963946083 L 283.1886688734374 475.6567877483703 L 289.14285714339627 471.3308167504954 L 295.0970454133539 475.6567877483723 L 292.8227478696474 468.65721963946197 L 298.7769361396091 464.3312486415851 L 291.41715468710584 464.33124864158384 Z"/>
	<path stroke="orange" stroke-width="1" fill="white" d="M 319.53246753430795 457.3316805326719 L 317.25816999059793 464.3312486415827 L 309.8983885380955 464.33124864158145 L 315.85257680805483 468.65721963945924 L 313.5782792643449 475.6567877483697 L 319.5324675343057 471.33081675049397 L 325.48665580426496 475.65678774837164 L 323.2123582605574 468.6572196394604 L 329.16654653051813 464.33124864158464 L 321.80676507801564 464.33124864158344 Z"/>
	<path stroke="orange" stroke-width="1" fill="white" d="M 349.92207792410653 457.3316805326728 L 347.64778038039856 464.33124864158515 L 340.2879989278953 464.3312486415855 L 346.24218719785654 468.657219639463 L 343.96788965414925 475.6567877483731 L 349.9220779241074 471.3308167504968 L 355.87626619406575 475.65678774837244 L 353.6019686503577 468.6572196394627 L 359.5561569203185 464.33124864158447 L 352.1963754678153 464.331248641585 Z"/>
	<path stroke="orange" stroke-width="1" fill="white" d="M 380.3116883140894 457.33168053267343 L 378.03739077038244 464.33124864158737 L 370.67760931787797 464.3312486415881 L 376.63179758784077 468.6572196394673 L 374.3575000441356 475.6567877483759 L 380.31168831409065 471.33081675050073 L 386.2658765840467 475.6567877483749 L 383.9915790403401 468.6572196394666 L 389.9457673103022 464.3312486415863 L 382.58598585779765 464.33124864158697 Z"/>
	<path stroke="orange" stroke-width="1" fill="white" d="M 410.701298700763 457.33168053267394 L 408.42700115705674 464.3312486415879 L 401.0672197045524 464.3312486415894 L 407.0214079745155 468.65721963946766 L 404.7471104308108 475.6567877483768 L 410.70129870076585 471.33081675050073 L 416.6554869707226 475.6567877483745 L 414.38118942701504 468.65721963946623 L 420.3353776969765 464.33124864158555 L 412.9755962444721 464.331248641587 Z"/>
	<path stroke="orange" stroke-width="1" fill="white" d="M 441.0909090894426 457.3316805326745 L 438.81661154573106 464.33124864158304 L 431.4568300932302 464.3312486415812 L 437.4110183631873 468.6572196394572 L 435.1367208194746 475.65678774836925 L 441.09090908943904 471.33081675049254 L 447.0450973594013 475.6567877483723 L 444.7707998156921 468.65721963945913 L 450.7249880856515 464.3312486415861 L 443.3652066331506 464.33124864158424 Z"/>
	<path stroke="orange" stroke-width="1" fill="white" d="M 471.48051947944214 457.33168053267525 L 469.2062219357365 464.3312486415892 L 461.84644048323247 464.3312486415915 L 467.8006287531958 468.6572196394687 L 465.5263312094915 475.6567877483784 L 471.4805194794467 471.3308167505013 L 477.4347077494047 475.65678774837454 L 475.1604102056959 468.65721963946623 L 481.11459847565635 464.33124864158526 L 473.7548170231523 464.3312486415877 Z"/>
	<path stroke="orange" stroke-width="1" fill="white" d="M 223.33640552995323 412.96918427434457 L 221.10161191379697 419.84717179576745 L 213.8696678562378 419.8471717957664 L 219.72043350117127 424.098001858204 L 217.48563988501442 430.97598937962874 L 223.33640552995143 426.72515931719096 L 229.18717117488725 430.9759893796302 L 226.95237755873225 424.09800185820495 L 232.80314320366682 419.84717179576893 L 225.57119914610766 419.847171795768 Z"/>
	<path stroke="orange" stroke-width="1" fill="white" d="M 253.19815668202742 412.96918427434537 L 250.96336306587153 419.84717179576853 L 243.73141900831203 419.8471717957678 L 249.58218465324592 424.0980018582057 L 247.34739103708964 430.9759893796301 L 253.1981566820258 426.7251593171926 L 259.04892232696113 430.97598937963147 L 256.81412871080636 424.0980018582065 L 262.66489435574124 419.84717179576995 L 255.43295029818174 419.8471717957691 Z"/>
	<path stroke="orange" stroke-width="1" fill="white" d="M 283.0599078341675 412.9691842743463 L 280.82511421800945 419.84717179576774 L 273.59317016045105 419.8471717957653 L 279.4439358053828 424.09800185820285 L 277.2091421892235 430.97598937962806 L 283.059907834163 426.7251593171907 L 288.9106734790996 430.9759893796319 L 286.67587986294495 424.09800185820524 L 292.52664550787944 419.84717179577154 L 285.29470145032104 419.8471717957692 Z"/>
	<path stroke="orange" stroke-width="1" fill="white" d="M 312.9216589861997 412.969184274347 L 310.6868653700459 419.84717179577206 L 303.45492131248534 419.84717179577274 L 309.30568695742136 424.09800185821086 L 307.07089334126795 430.9759893796346 L 312.92165898620107 426.7251593171968 L 318.772424631135 430.97598937963346 L 316.5376310149803 424.0980018582102 L 322.38839665991543 419.8471717957709 L 315.1564526023549 419.8471717957716 Z"/>
	<path stroke="orange" stroke-width="1" fill="white" d="M 342.78341013819744 412.96918427434787 L 340.5486165220429 419.8471717957723 L 333.3166724644826 419.8471717957725 L 339.16743810941796 424.0980018582107 L 336.93264449326364 430.97598937963454 L 342.78341013819767 426.725159317197 L 348.63417578313187 430.9759893796343 L 346.39938216697726 424.09800185821064 L 352.2501478119125 419.84717179577217 L 345.0182037543522 419.8471717957723 Z"/>
	<path stroke="orange" stroke-width="1" fill="white" d="M 372.6451612902026 412.96918427434866 L 370.41036767404785 419.8471717957728 L 363.17842361648786 419.84717179577285 L 369.0291892614228 424.09800185821075 L 366.794395645268 430.9759893796349 L 372.64516129020274 426.7251593171971 L 378.49592693513745 430.97598937963477 L 376.26113331898256 424.0980018582107 L 382.1118989639175 419.84717179577274 L 374.8799549063575 419.8471717957728 Z"/>
	<path stroke="orange" stroke-width="1" fill="white" d="M 402.50691244234577 412.96918427434935 L 400.27211882619156 419.8471717957744 L 393.0401747686309 419.8471717957746 L 398.8909404135668 424.09800185821325 L 396.6561467974131 430.9759893796367 L 402.5069124423462 426.72515931719937 L 408.3576780872797 430.97598937963625 L 406.1228844711255 424.098001858213 L 411.9736501160611 419.84717179577393 L 404.7417060585004 419.8471717957742 Z"/>
	<path stroke="orange" stroke-width="1" fill="white" d="M 432.3686635944371 412.96918427434997 L 430.13386997827996 419.8471717957719 L 422.9019259207213 419.8471717957703 L 428.7526915656538 424.09800185820757 L 426.5178979494956 430.9759893796328 L 432.3686635944341 426.72515931719505 L 438.2194292393707 430.9759893796354 L 435.98463562321547 424.0980018582093 L 441.8354012681499 419.8471717957745 L 434.6034572105912 419.8471717957729 Z"/>
	<path stroke="orange" stroke-width="1" fill="white" d="M 462.23041474664007 412.96918427435116 L 459.9956211304856 419.8471717957755 L 452.7636770729255 419.8471717957758 L 458.61444271786075 424.0980018582137 L 456.3796491017064 430.9759893796377 L 462.23041474664063 426.7251593171999 L 468.0811803915753 430.97598937963727 L 465.84638677542034 424.09800185821337 L 471.6971524203552 419.847171795775 L 464.4652083627951 419.84717179577535 Z"/>
	<path stroke="orange" stroke-width="1" fill="white" d="M 492.09216589857857 412.9691842743517 L 489.857372282421 419.84717179577336 L 482.6254282248625 419.84717179577143 L 488.4761938697946 424.09800185820876 L 486.2414002536359 430.97598937963403 L 492.09216589857493 426.72515931719647 L 497.94293154351146 430.9759893796372 L 495.7081379273565 424.09800185821086 L 501.558903572291 419.84717179577655 L 494.32695951473244 419.8471717957746 Z"/>
	<path stroke="orange" stroke-width="1" fill="white" d="M 248.65024630546137 368.63095740624635 L 246.46040543445403 375.37059460398007 L 239.37393151596595 375.37059460397955 L 245.1070093462177 379.535919464023 L 242.9171684752109 386.275556661755 L 248.6502463054606 382.11023180171395 L 254.38332413570967 386.2755566617557 L 252.19348326470373 379.5359194640235 L 257.9265610949559 375.3705946039807 L 250.84008717646788 375.3705946039803 Z"/>
	<path stroke="orange" stroke-width="1" fill="white" d="M 277.91133004933084 368.6309574062468 L 275.72148917832374 375.3705946039809 L 268.63501525983526 375.37059460398046 L 274.3680930900874 379.53591946402446 L 272.1782522190812 386.275556661756 L 277.9113300493301 382.1102318017153 L 283.64440787957835 386.2755566617566 L 281.4545670085729 379.53591946402497 L 287.1876448388255 375.3705946039816 L 280.10117092033715 375.37059460398126 Z"/>
	<path stroke="orange" stroke-width="1" fill="white" d="M 307.1724137931564 368.63095740624726 L 304.9825729221504 375.3705946039824 L 297.8960990036612 375.3705946039827 L 303.6291768339146 379.53591946402713 L 301.4393359629099 386.27555666175806 L 307.1724137931569 382.11023180171753 L 312.9054916234042 386.2755566617576 L 310.71565075239903 379.5359194640269 L 316.44872858265205 375.370594603982 L 309.36225466416295 375.3705946039823 Z"/>
	<path stroke="orange" stroke-width="1" fill="white" d="M 336.43349753707173 368.6309574062478 L 334.2436566660643 375.37059460397995 L 327.15718274757745 375.37059460398024 L 332.8902605778281 379.5359194640214 L 330.7004197068202 386.27555666175493 L 336.4334975370721 382.11023180171225 L 342.16657536732436 386.2755566617546 L 339.97673449631606 379.53591946402116 L 345.70981232656635 375.37059460397967 L 338.6233384080796 375.37059460397984 Z"/>
	<path stroke="orange" stroke-width="1" fill="white" d="M 365.69458128085233 368.6309574062482 L 363.5047404098447 375.3705946039803 L 356.4182664913581 375.3705946039804 L 362.15134432160846 379.53591946402133 L 359.9615034506003 386.27555666175505 L 365.6945812808527 382.11023180171225 L 371.4276591111052 386.2755566617548 L 369.23781824009666 379.5359194640212 L 374.9708960703469 375.37059460397995 L 367.8844221518603 375.3705946039802 Z"/>
	<path stroke="orange" stroke-width="1" fill="white" d="M 394.9556650247983 368.6309574062488 L 392.7658241537929 375.3705946039852 L 385.67935023530276 375.37059460398547 L 391.41242806555726 379.5359194640313 L 389.22258719455397 386.2755566617611 L 394.95566502479886 382.11023180172145 L 400.68874285504415 386.2755566617606 L 398.4989019840403 379.53591946403094 L 404.2319798142944 375.37059460398467 L 397.14550589580426 375.370594603985 Z"/>
	<path stroke="orange" stroke-width="1" fill="white" d="M 424.21674876862863 368.6309574062491 L 422.02690789761834 375.3705946039783 L 414.9404339791335 375.37059460397677 L 420.6735118093808 379.53591946401656 L 418.4836709383685 386.2755566617518 L 424.2167487686257 382.11023180170866 L 429.94982659888103 386.2755566617543 L 427.75998572787176 379.5359194640181 L 433.4930635581208 375.37059460398086 L 426.40658963963597 375.37059460397927 Z"/>
	<path stroke="orange" stroke-width="1" fill="white" d="M 453.4778325123395 368.63095740624954 L 451.2879916413332 375.37059460398234 L 444.2015177228463 375.37059460398365 L 449.93459555309767 379.53591946402406 L 447.74475468209107 386.27555666175783 L 453.4778325123421 382.11023180171435 L 459.2109103425946 386.2755566617557 L 457.02106947158546 379.53591946402275 L 462.7541473018353 375.3705946039801 L 455.66767338334836 375.3705946039815 Z"/>
	<path stroke="orange" stroke-width="1" fill="white" d="M 482.73891625616113 368.6309574062502 L 480.54907538515226 375.37059460398035 L 473.4626014666671 375.37059460398007 L 479.1956792969155 379.5359194640193 L 477.005838425905 386.27555666175454 L 482.7389162561607 382.1102318017107 L 488.4719940864159 386.275556661755 L 486.2821532154059 379.5359194640196 L 492.01523104565473 375.37059460398075 L 484.9287571271695 375.3705946039805 Z"/>
	<path stroke="orange" stroke-width="1" fill="white" d="M 273.9047619047297 324.32239312627 L 271.76653344483185 330.90318365601485 L 264.84708079718024 330.9031836560148 L 270.44503558090287 334.9703358762399 L 268.3068071210044 341.5511264059865 L 273.9047619047297 337.4839741857595 L 279.50271668845477 341.5511264059865 L 277.3644882285564 334.97033587624 L 282.96244301227904 330.9031836560149 L 276.0429903646275 330.9031836560149 Z"/>
	<path stroke="orange" stroke-width="1" fill="white" d="M 302.4761904760733 324.3223931262703 L 300.3379620161747 330.9031836560143 L 293.4185093685236 330.90318365601377 L 299.01646415224525 334.9703358762386 L 296.87823569234564 341.55112640598554 L 302.4761904760722 337.48397418575854 L 308.0741452597982 341.55112640598645 L 305.93591679989964 334.9703358762391 L 311.53387158362193 330.90318365601524 L 304.6144189359709 330.9031836560146 Z"/>
	<path stroke="orange" stroke-width="1" fill="white" d="M 331.0476190474873 324.32239312627064 L 328.90939058758784 330.9031836560145 L 321.9899379399367 330.9031836560131 L 327.58789272365794 334.9703358762388 L 325.44966426375765 341.5511264059853 L 331.04761904748455 337.4839741857591 L 336.6455738312098 341.5511264059877 L 334.5073453713122 334.97033587624014 L 340.10530015503514 330.90318365601684 L 333.185847507384 330.9031836560154 Z"/>
	<path stroke="orange" stroke-width="1" fill="white" d="M 359.6190476190883 324.3223931262708 L 357.4808191591908 330.9031836560153 L 350.56136651153963 330.9031836560159 L 356.15932129526203 334.97033587624 L 354.0210928353637 341.5511264059872 L 359.6190476190894 337.4839741857594 L 365.2170024028157 341.5511264059863 L 363.07877394291626 334.97033587623946 L 368.6767287266381 330.90318365601445 L 361.7572760789869 330.903183656015 Z"/>
	<path stroke="orange" stroke-width="1" fill="white" d="M 388.1904761903228 324.3223931262713 L 386.05224773042426 330.903183656016 L 379.1327950827727 330.9031836560152 L 384.7307498664948 334.9703358762408 L 382.5925214065957 341.55112640598725 L 388.1904761903215 337.48397418576076 L 393.78843097404615 341.5511264059884 L 391.6502025141485 334.9703358762416 L 397.2481572978715 330.9031836560171 L 390.32870465021995 330.90318365601644 Z"/>
	<path stroke="orange" stroke-width="1" fill="white" d="M 416.7619047618515 324.32239312627166 L 414.6236763019533 330.90318365601655 L 407.7042236543016 330.9031836560161 L 413.3021784380241 334.97033587624173 L 411.16394997812546 341.55112640598804 L 416.7619047618506 337.4839741857616 L 422.3598595455751 341.55112640598884 L 420.22163108567736 334.97033587624236 L 425.8195858694005 330.90318365601735 L 418.9001332217487 330.9031836560169 Z"/>
	<path stroke="orange" stroke-width="1" fill="white" d="M 445.3333333333552 324.3223931262718 L 443.19510487345855 330.9031836560185 L 436.2756522258057 330.9031836560188 L 441.8736070095301 334.9703358762454 L 439.7353785496339 341.55112640599066 L 445.3333333333561 337.4839741857645 L 450.9312881170787 341.55112640599 L 448.7930596571817 334.97033587624503 L 454.3910144409055 330.9031836560177 L 447.47156179325265 330.9031836560182 Z"/>
	<path stroke="orange" stroke-width="1" fill="white" d="M 473.90476190470815 324.32239312627223 L 471.766533444813 330.90318365602064 L 464.84708079715887 330.90318365602184 L 470.44503558088513 334.9703358762495 L 468.3068071209914 341.55112640599367 L 473.90476190471054 337.48397418576803 L 479.50271668843095 341.5511264059917 L 477.3644882285349 334.9703358762484 L 482.9624430122597 330.90318365601865 L 476.04299036460566 330.90318365601996 Z"/>
	<path stroke="orange" stroke-width="1" fill="white" d="M 299.08571428567814 280.0506104554643 L 297.00735622266086 286.4471388503701 L 290.28164824915046 286.4471388503713 L 295.72286029892393 290.40041080842514 L 293.64450223590615 296.79693920333233 L 299.08571428568035 292.84366724527496 L 304.5269263354562 296.7969392033304 L 302.4485682724361 290.4004108084238 L 307.8897803222081 286.4471388503681 L 301.16407234869774 286.44713885036924 Z"/>
	<path stroke="orange" stroke-width="1" fill="white" d="M 326.8571428570306 280.05061045546415 L 324.7787847940132 286.4471388503716 L 318.05307682050125 286.44713885037163 L 323.4942888702759 290.40041080842855 L 321.4159308072592 296.79693920333375 L 326.85714285703085 292.8436672452787 L 332.2983549068025 296.7969392033335 L 330.2199968437856 290.40041080842855 L 335.6612088935601 286.4471388503714 L 328.93550092004824 286.4471388503715 Z"/>
	<path stroke="orange" stroke-width="1" fill="white" d="M 354.62857142835566 280.050610455464 L 352.5502133653376 286.4471388503706 L 345.8245053918261 286.4471388503703 L 351.2657174415999 290.40041080842684 L 349.1873593785822 296.79693920333244 L 354.6285714283551 292.8436672452773 L 360.0697834781276 296.7969392033329 L 357.9914254151104 290.4004108084272 L 363.43263746488464 286.4471388503711 L 356.70692949137316 286.44713885037083 Z"/>
	<path stroke="orange" stroke-width="1" fill="white" d="M 382.399999999773 280.0506104554641 L 380.321641936754 286.44713885036987 L 373.5959339632431 286.44713885036896 L 379.03714601301596 290.4004108084252 L 376.9587879499969 296.7969392033312 L 382.39999999977135 292.843667245276 L 387.8412120495448 296.79693920333256 L 385.7628539865274 290.400410808426 L 391.2040660363012 286.44713885037123 L 384.47835806279033 286.4471388503704 Z"/>
	<path stroke="orange" stroke-width="1" fill="white" d="M 410.17142857121655 280.05061045546404 L 408.0930705081975 286.44713885037004 L 401.3673625346865 286.44713885036896 L 406.80857458445945 290.4004108084255 L 404.73021652144047 296.79693920333136 L 410.1714285712147 292.8436672452764 L 415.61264062098746 296.79693920333307 L 413.5342825579705 290.4004108084266 L 418.9754946077447 286.4471388503717 L 412.2497866342336 286.4471388503707 Z"/>
	<path stroke="orange" stroke-width="1" fill="white" d="M 437.9428571424963 280.05061045546404 L 435.8644990794757 286.44713885036816 L 429.13879110596594 286.44713885036623 L 434.5800031557369 290.4004108084216 L 432.50164509271536 296.79693920332863 L 437.9428571424928 292.84366724527314 L 443.38406919226793 296.7969392033317 L 441.3057111292499 290.40041080842354 L 446.7469231790231 286.4471388503711 L 440.02121520551333 286.4471388503693 Z"/>
	<path stroke="orange" stroke-width="1" fill="white" d="M 465.71428571399423 280.050610455464 L 463.6359276509765 286.44713885037083 L 456.91021967746485 286.44713885037083 L 462.351431727239 290.4004108084274 L 460.2730736642217 296.7969392033329 L 465.7142857139942 292.84366724527763 L 471.15549776376656 296.7969392033329 L 469.0771397007494 290.4004108084274 L 474.5183517505235 286.44713885037095 L 467.7926437770119 286.4471388503709 Z"/>
	<path stroke="orange" stroke-width="1" fill="white" d="M 493.4857142858176 280.0506104554638 L 491.40735622279897 286.4471388503706 L 484.6816482492872 286.4471388503695 L 490.12286029906096 290.4004108084271 L 488.0445022360429 296.79693920333216 L 493.4857142858156 292.8436672452779 L 498.9269263355869 296.79693920333386 L 496.84856827257096 290.40041080842826 L 502.28978032234596 286.44713885037237 L 495.5640723488342 286.4471388503713 Z"/>
	<path stroke="orange" stroke-width="1" fill="white" d="M 351.00621118022895 235.8252045962285 L 348.99813575702075 242.00542526764178 L 342.4998671835729 242.00542526764173 L 347.75707689350475 245.8250117005498 L 345.7490014702963 252.00523237196367 L 351.00621118022883 248.18564593905518 L 356.2634208901614 252.00523237196373 L 354.25534546695303 245.82501170054982 L 359.51255517688486 242.00542526764184 L 353.0142866034371 242.00542526764178 Z"/>
	<path stroke="orange" stroke-width="1" fill="white" d="M 377.8385093168321 235.82520459622847 L 375.83043389362473 242.0054252676431 L 369.33216532017605 242.00542526764337 L 374.5893750301091 245.82501170055252 L 372.58129960690235 252.0052323719654 L 377.83850931683264 248.18564593905754 L 383.0957190267634 252.0052323719649 L 381.087643603556 245.82501170055218 L 386.3448533134888 242.00542526764252 L 379.84658474004 242.0054252676429 Z"/>
	<path stroke="orange" stroke-width="1" fill="white" d="M 404.6708074536268 235.82520459622853 L 402.66273203041857 242.00542526764139 L 396.1644634569712 242.00542526764156 L 401.4216731669026 245.82501170054888 L 399.41359774369386 252.0052323719633 L 404.67080745362716 248.1856459390542 L 409.92801716356064 252.00523237196302 L 407.91994174035153 245.82501170054869 L 413.1771514502828 242.0054252676411 L 406.6788828768354 242.0054252676413 Z"/>
	<path stroke="orange" stroke-width="1" fill="white" d="M 431.50310559030913 235.82520459622833 L 429.49503016709923 242.00542526763948 L 422.99676159365293 242.00542526763857 L 428.2539713035825 245.82501170054513 L 426.2458958803712 252.0052323719605 L 431.5031055903075 248.18564593905117 L 436.7603153002428 252.00523237196188 L 434.7522398770331 245.82501170054599 L 440.0094495869636 242.00542526764085 L 433.51118101351744 242.00542526764002 Z"/>
	<path stroke="orange" stroke-width="1" fill="white" d="M 458.3354037268819 235.8252045962283 L 456.32732830367365 242.0054252676433 L 449.8290597302242 242.00542526764218 L 455.08626944015725 245.82501170055346 L 453.0781940169501 252.00523237196518 L 458.3354037268798 248.18564593905907 L 463.5926134368082 252.00523237196694 L 461.5845380136031 245.82501170055457 L 466.8417477235375 242.00542526764508 L 460.34347915008806 242.005425267644 Z"/>
	<path stroke="orange" stroke-width="1" fill="white" d="M 485.16770186331723 235.82520459622847 L 483.15962644011034 242.00542526764133 L 476.6613578666633 242.00542526764318 L 481.9185675765953 245.82501170054857 L 479.91049215338757 252.00523237196398 L 485.16770186332076 248.18564593905316 L 490.424911573256 252.00523237196097 L 488.4168361500448 245.82501170054675 L 493.67404585997457 242.0054252676384 L 487.17577728652765 242.00542526764022 Z"/>
</svg>