<svg width="1024" height="1024" xmlns="http://www.w3.org/2000/svg" desc="Created by KTab" version="1.2">
	<path stroke="orange" stroke-width="5" fill="none" d="M 692.0 200.23085463760208 L 332.0 200.23085463760208 L 152.0 512.0 L 332.0 823.7691453623979 L 692.0 823.7691453623979 L 872.0 512.0 Z"/>
	<circle cx="872.0" cy="512.0" r="3" fill="none" stroke="red" stroke-width="2"/>
	<circle cx="152.0" cy="512.0" r="3" fill="none" stroke="red" stroke-width="2"/>
	<circle cx="692.0" cy="823.7691453623979" r="3" fill="none" stroke="red" stroke-width="2"/>
	<circle cx="332.0" cy="823.7691453623979" r="3" fill="none" stroke="red" stroke-width="2"/>
	<circle cx="721.9999999999989" cy="771.8076211353332" r="3" fill="none" stroke="red" stroke-width="2"/>
	<circle cx="751.9999999999982" cy="719.8460969082685" r="3" fill="none" stroke="red" stroke-width="2"/>
	<circle cx="781.9999999999974" cy="667.8845726812035" r="3" fill="none" stroke="red" stroke-width="2"/>
	<circle cx="812.0" cy="615.923048454133" r="3" fill="none" stroke="red" stroke-width="2"/>
	<circle cx="841.9999999999986" cy="563.9615242270687" r="3" fill="none" stroke="red" stroke-width="2"/>
	<circle cx="302.0000000000024" cy="771.807621135336" r="3" fill="none" stroke="red" stroke-width="2"/>
	<circle cx="271.9999999999886" cy="719.8460969082456" r="3" fill="none" stroke="red" stroke-width="2"/>
	<circle cx="241.99999999999187" cy="667.8845726811851" r="3" fill="none" stroke="red" stroke-width="2"/>
	<circle cx="211.99999999999704" cy="615.9230484541274" r="3" fill="none" stroke="red" stroke-width="2"/>
	<circle cx="181.99999999999878" cy="563.9615242270642" r="3" fill="none" stroke="red" stroke-width="2"/>
	<path stroke="orange" stroke-width="5" fill="white" d="M 181.99999999999878 563.9615242270642 L 841.9999999999986 563.9615242270687 L 872.0 512.0 L 152.0 512.0 Z"/>
	<path stroke="orange" stroke-width="5" fill="red" d="M 211.99999999999704 615.9230484541274 L 812.0 615.923048454133 L 841.9999999999986 563.9615242270687 L 181.99999999999878 563.9615242270642 Z"/>
	<path stroke="orange" stroke-width="5" fill="white" d="M 241.99999999999187 667.8845726811851 L 781.9999999999974 667.8845726812035 L 812.0 615.923048454133 L 211.99999999999704 615.9230484541274 Z"/>
	<path stroke="orange" stroke-width="5" fill="red" d="M 271.9999999999886 719.8460969082456 L 751.9999999999982 719.8460969082685 L 781.9999999999974 667.8845726812035 L 241.99999999999187 667.8845726811851 Z"/>
	<path stroke="orange" stroke-width="5" fill="white" d="M 302.0000000000024 771.807621135336 L 721.9999999999989 771.8076211353332 L 751.9999999999982 719.8460969082685 L 271.9999999999886 719.8460969082456 Z"/>
	<path stroke="orange" stroke-width="5" fill="red" d="M 332.0 823.7691453623979 L 692.0 823.7691453623979 L 721.9999999999989 771.8076211353332 L 302.0000000000024 771.807621135336 Z"/>
	<circle cx="692.0" cy="200.23085463760208" r="3" fill="none" stroke="red" stroke-width="2"/>
	<circle cx="717.714285714289" cy="244.76930397509312" r="3" fill="none" stroke="red" stroke-width="2"/>
	<circle cx="743.4285714285736" cy="289.3077533125768" r="3" fill="none" stroke="red" stroke-width="2"/>
	<circle cx="769.1428571428606" cy="333.8462026500643" r="3" fill="none" stroke="red" stroke-width="2"/>
	<circle cx="794.8571428571502" cy="378.3846519875565" r="3" fill="none" stroke="red" stroke-width="2"/>
	<circle cx="820.5714285714348" cy="422.92310132503997" r="3" fill="none" stroke="red" stroke-width="2"/>
	<circle cx="846.2857142857181" cy="467.46155066252095" r="3" fill="none" stroke="red" stroke-width="2"/>
	<circle cx="332.0" cy="200.23085463760208" r="3" fill="none" stroke="red" stroke-width="2"/>
	<circle cx="512.0" cy="512.0" r="3" fill="none" stroke="red" stroke-width="2"/>
	<circle cx="512.0" cy="200.23085463760208" r="3" fill="none" stroke="red" stroke-width="2"/>
	<path d="M 512.0 512.0 L 512.0 200.23085463760208" stroke="orange" stroke-width="5"/>
	<path stroke="orange" stroke-width="5" fill="blue" d="M 512.0 512.0 L 512.0 200.23085463760208 L 332.0 200.23085463760208 L 152.0 512.0 Z"/>
	<circle cx="512.0" cy="244.76930397508798" r="3" fill="none" stroke="red" stroke-width="2"/>
	<circle cx="512.0" cy="289.30775331257365" r="3" fill="none" stroke="red" stroke-width="2"/>
	<circle cx="512.0" cy="333.846202650058" r="3" fill="none" stroke="red" stroke-width="2"/>
	<circle cx="512.0" cy="378.3846519875469" r="3" fill="none" stroke="red" stroke-width="2"/>
	<circle cx="512.0000000000001" cy="422.9231013250362" r="3" fill="none" stroke="red" stroke-width="2"/>
	<circle cx="511.9999999999999" cy="467.46155066252027" r="3" fill="none" stroke="red" stroke-width="2"/>
	<path stroke="orange" stroke-width="5" fill="red" d="M 872.0 512.0 L 846.2857142857181 467.46155066252095 L 511.9999999999999 467.46155066252027 L 512.0 512.0 Z"/>
	<path stroke="orange" stroke-width="5" fill="white" d="M 846.2857142857181 467.46155066252095 L 820.5714285714348 422.92310132503997 L 512.0000000000001 422.9231013250362 L 511.9999999999999 467.46155066252027 Z"/>
	<path stroke="orange" stroke-width="5" fill="red" d="M 820.5714285714348 422.92310132503997 L 794.8571428571502 378.3846519875565 L 512.0 378.3846519875469 L 512.0000000000001 422.9231013250362 Z"/>
	<path stroke="orange" stroke-width="5" fill="white" d="M 794.8571428571502 378.3846519875565 L 769.1428571428606 333.8462026500643 L 512.0 333.846202650058 L 512.0 378.3846519875469 Z"/>
	<path stroke="orange" stroke-width="5" fill="red" d="M 769.1428571428606 333.8462026500643 L 743.4285714285736 289.3077533125768 L 512.0 289.30775331257365 L 512.0 333.846202650058 Z"/>
	<path stroke="orange" stroke-width="5" fill="white" d="M 743.4285714285736 289.3077533125768 L 717.714285714289 244.76930397509312 L 512.0 244.76930397508798 L 512.0 289.30775331257365 Z"/>
	<path stroke="orange" stroke-width="5" fill="red" d="M 717.714285714289 244.76930397509312 L 692.0 200.23085463760208 L 512.0 200.23085463760208 L 512.0 244.76930397508798 Z"/>
	<circle cx="306.2857142857139" cy="244.7693039750879" r="3" fill="none" stroke="red" stroke-width="2"/>
	<circle cx="280.57142857142765" cy="289.30775331257416" r="3" fill="none" stroke="red" stroke-width="2"/>
	<circle cx="254.8571428571446" cy="333.8462026500552" r="3" fill="none" stroke="red" stroke-width="2"/>
	<circle cx="229.1428571428579" cy="378.38465198754227" r="3" fill="none" stroke="red" stroke-width="2"/>
	<circle cx="203.42857142857213" cy="422.9231013250281" r="3" fill="none" stroke="red" stroke-width="2"/>
	<circle cx="177.71428571428646" cy="467.46155066251333" r="3" fill="none" stroke="red" stroke-width="2"/>
	<circle cx="501.87012986938544" cy="467.4615506625199" r="3" fill="none" stroke="red" stroke-width="2"/>
	<circle cx="491.7402597394771" cy="467.4615506625198" r="3" fill="none" stroke="red" stroke-width="2"/>
	<circle cx="481.6103896098688" cy="467.46155066251936" r="3" fill="none" stroke="red" stroke-width="2"/>
	<circle cx="471.48051947944543" cy="467.46155066251936" r="3" fill="none" stroke="red" stroke-width="2"/>
	<circle cx="461.35064934933166" cy="467.4615506625191" r="3" fill="none" stroke="red" stroke-width="2"/>
	<circle cx="451.22077921931134" cy="467.4615506625188" r="3" fill="none" stroke="red" stroke-width="2"/>
	<circle cx="441.09090908944006" cy="467.4615506625186" r="3" fill="none" stroke="red" stroke-width="2"/>
	<circle cx="430.96103896032037" cy="467.46155066251845" r="3" fill="none" stroke="red" stroke-width="2"/>
	<circle cx="420.83116883062155" cy="467.4615506625182" r="3" fill="none" stroke="red" stroke-width="2"/>
	<circle cx="410.70129870076505" cy="467.46155066251805" r="3" fill="none" stroke="red" stroke-width="2"/>
	<circle cx="400.5714285712546" cy="467.46155066251765" r="3" fill="none" stroke="red" stroke-width="2"/>
	<circle cx="390.44155844314184" cy="467.4615506625176" r="3" fill="none" stroke="red" stroke-width="2"/>
	<circle cx="380.31168831409036" cy="467.46155066251754" r="3" fill="none" stroke="red" stroke-width="2"/>
	<circle cx="370.1818181836485" cy="467.4615506625173" r="3" fill="none" stroke="red" stroke-width="2"/>
	<circle cx="360.05194805341546" cy="467.46155066251686" r="3" fill="none" stroke="red" stroke-width="2"/>
	<circle cx="349.92207792410704" cy="467.4615506625169" r="3" fill="none" stroke="red" stroke-width="2"/>
	<circle cx="339.7922077945216" cy="467.4615506625167" r="3" fill="none" stroke="red" stroke-width="2"/>
	<circle cx="329.6623376651968" cy="467.46155066251634" r="3" fill="none" stroke="red" stroke-width="2"/>
	<circle cx="319.5324675343063" cy="467.461550662516" r="3" fill="none" stroke="red" stroke-width="2"/>
	<circle cx="309.40259740410045" cy="467.461550662516" r="3" fill="none" stroke="red" stroke-width="2"/>
	<circle cx="299.27272727366926" cy="467.4615506625158" r="3" fill="none" stroke="red" stroke-width="2"/>
	<circle cx="289.142857143397" cy="467.46155066251544" r="3" fill="none" stroke="red" stroke-width="2"/>
	<circle cx="279.012987013916" cy="467.46155066251526" r="3" fill="none" stroke="red" stroke-width="2"/>
	<circle cx="268.88311688380213" cy="467.46155066251515" r="3" fill="none" stroke="red" stroke-width="2"/>
	<circle cx="258.75324675355046" cy="467.46155066251504" r="3" fill="none" stroke="red" stroke-width="2"/>
	<circle cx="248.62337662356686" cy="467.46155066251487" r="3" fill="none" stroke="red" stroke-width="2"/>
	<circle cx="238.49350649396536" cy="467.4615506625146" r="3" fill="none" stroke="red" stroke-width="2"/>
	<circle cx="228.36363636383226" cy="467.4615506625146" r="3" fill="none" stroke="red" stroke-width="2"/>
	<circle cx="218.23376623385718" cy="467.46155066251424" r="3" fill="none" stroke="red" stroke-width="2"/>
	<circle cx="208.10389610391746" cy="467.4615506625139" r="3" fill="none" stroke="red" stroke-width="2"/>
	<circle cx="197.97402597393807" cy="467.4615506625139" r="3" fill="none" stroke="red" stroke-width="2"/>
	<circle cx="187.84415584409453" cy="467.4615506625135" r="3" fill="none" stroke="red" stroke-width="2"/>
	<path stroke="orange" stroke-width="1" fill="white" d="M 228.36363636383393 457.3316805326705 L 226.08933882012482 464.3312486415834 L 218.72955736762086 464.331248641582 L 224.68374563758198 468.6572196394621 L 222.4094480938743 475.6567877483707 L 228.3636363638316 471.33081675049647 L 234.31782463378752 475.6567877483726 L 232.04352709008208 468.6572196394632 L 237.99771536004468 464.3312486415852 L 230.6379339075407 464.33124864158407 Z"/>
	<path stroke="orange" stroke-width="1" fill="white" d="M 258.75324675354926 457.33168053267093 L 256.4789492098415 464.331248641583 L 249.11916775733863 464.33124864158384 L 255.07335602729975 468.6572196394605 L 252.7990584835925 475.65678774837113 L 258.75324675355097 471.3308167504942 L 264.70743502351036 475.65678774836977 L 262.4331374798014 468.65721963945975 L 268.3873257497616 464.33124864158157 L 261.0275442972586 464.3312486415824 Z"/>
	<path stroke="orange" stroke-width="1" fill="white" d="M 289.14285714339866 457.3316805326713 L 286.86855959968915 464.3312486415831 L 279.5087781471859 464.3312486415819 L 285.46296641714616 468.65721963946083 L 283.1886688734374 475.6567877483703 L 289.14285714339627 471.3308167504954 L 295.0970454133539 475.6567877483723 L 292.8227478696474 468.65721963946197 L 298.7769361396091 464.3312486415851 L 291.41715468710584 464.33124864158384 Z"/>
	<path stroke="orange" stroke-width="1" fill="white" d="M 319.53246753430795 457.3316805326719 L 317.25816999059793 464.3312486415827 L 309.8983885380955 464.33124864158145 L 315.85257680805483 468.65721963945924 L 313.5782792643449 475.6567877483697 L 319.5324675343057 471.33081675049397 L 325.48665580426496 475.65678774837164 L 323.2123582605574 468.6572196394604 L 329.16654653051813 464.33124864158464 L 321.80676507801564 464.33124864158344 Z"/>
	<path stroke="orange" stroke-width="1" fill="white" d="M 349.92207792410653 457.3316805326728 L 347.64778038039856 464.33124864158515 L 340.2879989278953 464.3312486415855 L 346.24218719785654 468.657219639463 L 343.96788965414925 475.6567877483731 L 349.9220779241074 471.3308167504968 L 355.87626619406575 475.65678774837244 L 353.6019686503577 468.6572196394627 L 359.5561569203185 464.33124864158447 L 352.1963754678153 464.331248641585 Z"/>
	<path stroke="orange" stroke-width="1" fill="white" d="M 380.3116883140894 457.33168053267343 L 378.03739077038244 464.33124864158737 L 370.67760931787797 464.3312486415881 L 376.63179758784077 468.6572196394673 L 374.3575000441356 475.6567877483759 L 380.31168831409065 471.33081675050073 L 386.2658765840467 475.6567877483749 L 383.9915790403401 468.6572196394666 L 389.9457673103022 464.3312486415863 L 382.58598585779765 464.33124864158697 Z"/>
</svg>