<svg width="1024" height="1024" xmlns="http://www.w3.org/2000/svg" desc="Created by KTab" version="1.2">
	<path stroke="red" stroke-width="5" fill="none" opacity="1.0" d="M 692.0 200.23085463760208 L 332.0 200.23085463760208 L 152.0 512.0 L 332.0 823.7691453623979 L 692.0 823.7691453623979 L 872.0 512.0 Z"/>
	<circle cx="872.0" cy="512.0" r="3" fill="none" stroke="blue" stroke-width="2"/>
	<circle cx="152.0" cy="512.0" r="3" fill="none" stroke="blue" stroke-width="2"/>
	<circle cx="692.0" cy="200.23085463760208" r="3" fill="none" stroke="blue" stroke-width="2"/>
	<circle cx="332.0" cy="200.23085463760208" r="3" fill="none" stroke="blue" stroke-width="2"/>
	<circle cx="512.0" cy="512.0" r="3" fill="none" stroke="blue" stroke-width="2"/>
	<circle cx="512.0" cy="200.23085463760208" r="3" fill="none" stroke="blue" stroke-width="2"/>
	<path d="M 512.0 512.0 L 512.0 200.23085463760208" stroke="blue" stroke-width="1"/>
	<circle cx="512.0" cy="324.93851278255926" r="3" fill="none" stroke="blue" stroke-width="2"/>
	<circle cx="512.0" cy="512.0" r="3" fill="none" stroke="blue" stroke-width="2"/>
	<circle cx="512.0" cy="512.0" r="187.06148721744074" fill="none" stroke="gray" stroke-width="2" stroke-dashoffset="0.0" stroke-dasharray="1175.3419880237857,0.0"/>
	<path d="M 512.0 0.0 L 512.0 1024.0" stroke="blue" stroke-width="1"/>
	<circle cx="512.0" cy="324.9385127825592" r="3" fill="none" stroke="blue" stroke-width="2"/>
	<circle cx="512.0" cy="699.0614872174408" r="3" fill="none" stroke="blue" stroke-width="2"/>
	<path d="M 1024.0 512.0000000000001 L 0.0 512.0000000000001" stroke="blue" stroke-width="1"/>
	<circle cx="324.9385127825592" cy="512.0000000000001" r="3" fill="none" stroke="blue" stroke-width="2"/>
	<circle cx="699.0614872174408" cy="512.0000000000001" r="3" fill="none" stroke="blue" stroke-width="2"/>
	<circle cx="418.4692563912795" cy="349.99999999999824" r="3" fill="none" stroke="blue" stroke-width="2"/>
	<circle cx="418.4692563912797" cy="674.0000000000018" r="3" fill="none" stroke="blue" stroke-width="2"/>
	<path d="M 418.4692563912795 349.99999999999824 L 418.4692563912797 674.0000000000018" stroke="blue" stroke-width="1"/>
	<circle cx="418.4692563912796" cy="512.0000000000002" r="3" fill="none" stroke="blue" stroke-width="2"/>
	<circle cx="627.6103570864826" cy="512.0000000000001" r="3" fill="none" stroke="blue" stroke-width="2"/>
</svg>