<svg width="1024" height="1024" xmlns="http://www.w3.org/2000/svg" desc="Created by KTab" version="1.2">
	<path stroke="orange" stroke-width="5" fill="red" opacity="1.0" d="M 692.0 200.23085463760208 L 332.0 200.23085463760208 L 152.0 512.0 L 332.0 823.7691453623979 L 692.0 823.7691453623979 L 872.0 512.0 Z"/>
	<circle cx="872.0" cy="512.0" r="3" fill="none" stroke="blue" stroke-width="2"/>
	<circle cx="152.0" cy="512.0" r="3" fill="none" stroke="blue" stroke-width="2"/>
	<circle cx="692.0" cy="200.23085463760208" r="3" fill="none" stroke="blue" stroke-width="2"/>
	<circle cx="332.0" cy="200.23085463760208" r="3" fill="none" stroke="blue" stroke-width="2"/>
	<circle cx="512.0" cy="512.0" r="3" fill="none" stroke="blue" stroke-width="2"/>
	<circle cx="512.0" cy="200.23085463760208" r="3" fill="none" stroke="blue" stroke-width="2"/>
	<path d="M 512.0 512.0 L 512.0 200.23085463760208" stroke="blue" stroke-width="1"/>
	<circle cx="478.25" cy="492.51442841485016" r="3" fill="none" stroke="blue" stroke-width="2"/>
	<path d="M 1024.0 807.6033378250893 L 0.0 216.39666217491163" stroke="blue" stroke-width="1"/>
	<circle cx="444.4999999999998" cy="473.028856829701" r="3" fill="none" stroke="blue" stroke-width="2"/>
	<circle cx="410.7499999999999" cy="453.54328524455116" r="3" fill="none" stroke="blue" stroke-width="2"/>
	<circle cx="377.00000000000045" cy="434.05771365940063" r="3" fill="none" stroke="blue" stroke-width="2"/>
	<circle cx="343.2500000000007" cy="414.5721420742509" r="3" fill="none" stroke="blue" stroke-width="2"/>
	<path d="M 669.6409152160288 0.0 L 0.0 850.5581978528" stroke="blue" stroke-width="1"/>
	<path d="M 718.7318243069334 0.0 L 0.0 912.9120269252871" stroke="blue" stroke-width="1"/>
	<circle cx="512.0" cy="262.58468371008" r="3" fill="none" stroke="blue" stroke-width="2"/>
	<circle cx="377.00000000000045" cy="434.05771365940063" r="38.97114317029957" fill="none" stroke="gray" stroke-width="2" stroke-dashoffset="0.0" stroke-dasharray="244.86291417161834,0.0"/>
	<circle cx="401.10714285714334" cy="403.4375297398798" r="3" fill="none" stroke="blue" stroke-width="2"/>
	<path d="M 410.7499999999999 453.54328524455116 L 401.10714285714334 403.4375297398798" stroke="blue" stroke-width="1"/>
	<circle cx="405.92857142857156" cy="428.49040749221547" r="3" fill="none" stroke="blue" stroke-width="2"/>
	<circle cx="405.92857142857156" cy="428.49040749221547" r="29.459415181858557" fill="none" stroke="gray" stroke-width="2" stroke-dashoffset="0.0" stroke-dasharray="185.09896462875693,0.0"/>
	<path d="M 1024.0 309.5425056041817 L 0.0 506.6113974875574" stroke="blue" stroke-width="1"/>
</svg>