<svg width="1024" height="1024" xmlns="http://www.w3.org/2000/svg" desc="Created by KTab" version="1.2">
	<path stroke="red" stroke-width="5" fill="none" opacity="1.0" d="M 692.0 200.23085463760208 L 332.0 200.23085463760208 L 152.0 512.0 L 332.0 823.7691453623979 L 692.0 823.7691453623979 L 872.0 512.0 Z"/>
	<circle cx="872.0" cy="512.0" r="3" fill="none" stroke="blue" stroke-width="2"/>
	<circle cx="152.0" cy="512.0" r="3" fill="none" stroke="blue" stroke-width="2"/>
	<circle cx="692.0" cy="200.23085463760208" r="3" fill="none" stroke="blue" stroke-width="2"/>
	<circle cx="332.0" cy="200.23085463760208" r="3" fill="none" stroke="blue" stroke-width="2"/>
	<circle cx="512.0" cy="512.0" r="3" fill="none" stroke="blue" stroke-width="2"/>
	<circle cx="512.0" cy="200.23085463760208" r="3" fill="none" stroke="blue" stroke-width="2"/>
	<path d="M 512.0 512.0 L 512.0 200.23085463760208" stroke="blue" stroke-width="1"/>
	<circle cx="478.25" cy="492.51442841485016" r="3" fill="none" stroke="blue" stroke-width="2"/>
	<path d="M 1024.0 807.6033378250893 L 0.0 216.39666217491163" stroke="blue" stroke-width="1"/>
	<circle cx="444.4999999999998" cy="473.028856829701" r="3" fill="none" stroke="blue" stroke-width="2"/>
	<circle cx="410.7499999999999" cy="453.54328524455116" r="3" fill="none" stroke="blue" stroke-width="2"/>
	<circle cx="377.00000000000045" cy="434.05771365940063" r="3" fill="none" stroke="blue" stroke-width="2"/>
	<circle cx="343.2500000000007" cy="414.5721420742509" r="3" fill="none" stroke="blue" stroke-width="2"/>
	<path d="M 669.6409152160288 0.0 L 0.0 850.5581978528" stroke="blue" stroke-width="1"/>
	<path d="M 718.7318243069334 0.0 L 0.0 912.9120269252871" stroke="blue" stroke-width="1"/>
	<circle cx="512.0" cy="262.58468371008" r="3" fill="none" stroke="blue" stroke-width="2"/>
	<path d="M 767.8227333978474 0.0 L 0.0 975.2658559977507" stroke="blue" stroke-width="1"/>
	<circle cx="512.0" cy="324.93851278255926" r="3" fill="none" stroke="blue" stroke-width="2"/>
	<path d="M 816.9136424886921 0.0 L 10.722721147684638 1024.0" stroke="blue" stroke-width="1"/>
	<circle cx="512.0" cy="387.29234185502696" r="3" fill="none" stroke="blue" stroke-width="2"/>
	<circle cx="444.4999999999998" cy="473.028856829701" r="38.971143170299584" fill="none" stroke="gray" stroke-width="2" stroke-dashoffset="0.0" stroke-dasharray="244.86291417161843,0.0"/>
	<circle cx="468.60714285714056" cy="442.4086729101779" r="3" fill="none" stroke="blue" stroke-width="2"/>
	<path d="M 478.25 492.51442841485016 L 468.60714285714056 442.4086729101779" stroke="blue" stroke-width="1"/>
	<circle cx="478.25" cy="492.51442841485016" r="51.02520385624723" fill="none" stroke="gray" stroke-width="2" stroke-dashoffset="0.0" stroke-dasharray="320.6008111654158,0.0"/>
	<circle cx="468.60714285714056" cy="442.4086729101779" r="51.02520385624723" fill="none" stroke="gray" stroke-width="2" stroke-dashoffset="0.0" stroke-dasharray="320.6008111654158,0.0"/>
</svg>