<svg width="1024" height="1024" xmlns="http://www.w3.org/2000/svg" desc="Created by KTab" version="1.2">
	<path stroke="orange" stroke-width="5" fill="red" opacity="1.0" d="M 692.0 200.23085463760208 L 332.0 200.23085463760208 L 152.0 512.0 L 332.0 823.7691453623979 L 692.0 823.7691453623979 L 872.0 512.0 Z"/>
	<circle cx="872.0" cy="512.0" r="3" fill="none" stroke="blue" stroke-width="2"/>
	<circle cx="152.0" cy="512.0" r="3" fill="none" stroke="blue" stroke-width="2"/>
	<circle cx="692.0" cy="200.23085463760208" r="3" fill="none" stroke="blue" stroke-width="2"/>
	<circle cx="332.0" cy="200.23085463760208" r="3" fill="none" stroke="blue" stroke-width="2"/>
	<circle cx="512.0" cy="512.0" r="3" fill="none" stroke="blue" stroke-width="2"/>
	<circle cx="512.0" cy="200.23085463760208" r="3" fill="none" stroke="blue" stroke-width="2"/>
	<path d="M 512.0 512.0 L 512.0 200.23085463760208" stroke="blue" stroke-width="1"/>
	<circle cx="478.25" cy="492.51442841485016" r="3" fill="none" stroke="blue" stroke-width="2"/>
	<path d="M 1024.0 807.6033378250893 L 0.0 216.39666217491163" stroke="blue" stroke-width="1"/>
	<circle cx="444.4999999999998" cy="473.028856829701" r="3" fill="none" stroke="blue" stroke-width="2"/>
	<circle cx="410.7499999999999" cy="453.54328524455116" r="3" fill="none" stroke="blue" stroke-width="2"/>
	<circle cx="377.00000000000045" cy="434.05771365940063" r="3" fill="none" stroke="blue" stroke-width="2"/>
	<circle cx="343.2500000000007" cy="414.5721420742509" r="3" fill="none" stroke="blue" stroke-width="2"/>
	<path d="M 669.6409152160288 0.0 L 0.0 850.5581978528" stroke="blue" stroke-width="1"/>
	<circle cx="343.2500000000007" cy="414.5721420742509" r="38.97114317029947" fill="none" stroke="gray" stroke-width="2" stroke-dashoffset="0.0" stroke-dasharray="244.86291417161772,0.0"/>
	<circle cx="367.357142857144" cy="383.95195815472897" r="3" fill="none" stroke="blue" stroke-width="2"/>
	<path d="M 377.00000000000045 434.05771365940063 L 367.357142857144 383.95195815472897" stroke="blue" stroke-width="1"/>
</svg>