<svg xmlns="http://www.w3.org/2000/svg" desc="Created by KTab - Version 1.1.2" height="360" version="1.1" width="360">
  <path d="M 141.5 10.0 L 164.5 10.0 L 177.5 11.0 Q 182.8 9.8 184.0 12.5 L 189.5 14.0 L 194.5 15.0 Q 203.4 16.6 209.0 21.5 Q 214.9 22.1 216.5 27.0 Q 217.8 24.8 219.0 27.5 L 223.5 32.0 L 225.0 32.5 L 225.5 34.0 L 229.0 35.5 L 235.0 41.5 L 249.5 63.0 L 251.0 63.5 L 257.0 77.5 Q 254.5 79.0 258.0 80.5 L 265.0 100.5 L 267.0 104.5 Q 269.3 105.8 268.0 110.5 Q 266.8 115.3 269.0 116.5 L 271.0 119.5 L 270.0 122.5 L 272.0 123.5 L 273.0 127.5 L 272.0 130.5 L 273.5 131.0 L 273.5 129.0 L 277.0 136.5 Q 275.8 141.3 278.0 142.5 L 279.5 147.0 L 281.0 147.5 L 281.5 152.0 L 283.0 151.5 L 285.5 160.0 L 289.0 167.5 L 287.0 168.5 L 287.5 170.0 L 289.0 170.5 L 291.0 174.5 L 293.0 183.5 L 297.0 199.5 L 299.0 207.5 L 304.0 215.5 L 309.0 222.5 L 310.0 229.5 L 311.0 241.5 L 311.0 243.5 L 310.0 247.5 L 311.0 249.5 L 311.0 251.5 L 310.0 257.5 Q 310.6 262.1 308.0 263.5 Q 304.3 264.3 305.0 269.5 L 304.0 273.5 L 300.5 277.0 L 290.5 279.0 Q 286.3 278.3 285.5 281.0 L 279.5 284.0 Q 274.0 284.5 272.0 288.5 L 271.5 293.0 L 267.0 293.5 L 264.5 298.0 L 263.0 298.5 L 261.5 303.0 L 260.0 303.5 L 259.5 305.0 L 244.5 308.0 L 234.0 303.5 L 233.5 299.0 L 231.0 298.5 L 233.0 297.5 L 233.0 295.5 L 231.5 292.0 Q 230.3 294.3 229.0 291.5 L 230.0 288.5 L 228.0 287.5 L 227.5 284.0 L 226.0 284.5 L 227.0 279.5 Q 226.3 275.3 229.0 274.5 L 226.0 273.5 L 225.0 266.5 Q 227.5 265.0 226.0 259.5 Q 224.5 254.0 227.0 252.5 L 228.0 249.5 L 231.0 243.5 L 232.0 239.5 Q 231.5 235.5 234.5 235.0 L 238.0 228.5 Q 237.3 223.8 239.5 222.0 L 241.0 222.5 L 242.0 218.5 L 244.0 215.5 L 245.0 212.5 L 246.0 206.5 Q 244.8 199.3 249.5 198.0 L 255.0 195.5 Q 258.0 192.5 258.0 186.5 L 259.0 176.5 L 260.0 160.5 L 256.5 154.0 L 255.0 154.5 L 254.5 156.0 L 251.5 151.0 L 248.5 143.0 L 244.5 127.0 L 243.0 126.5 L 240.0 117.5 L 238.5 112.0 L 235.0 104.5 L 235.5 103.0 L 233.0 100.5 L 230.5 95.0 L 227.5 84.0 L 226.0 83.5 L 225.0 80.5 L 221.0 76.5 L 203.5 56.0 L 201.0 55.5 L 200.5 54.0 L 194.5 53.0 L 192.5 54.0 L 181.5 52.0 Q 177.8 48.7 169.5 50.0 L 168.5 54.0 L 167.0 53.5 L 165.5 51.0 Q 163.2 48.3 157.5 49.0 L 141.0 53.5 L 140.5 55.0 L 138.5 54.0 L 129.0 59.5 L 128.5 61.0 L 126.0 61.5 L 125.5 63.0 L 121.0 64.5 L 120.5 66.0 L 118.0 67.5 L 114.0 75.5 L 110.5 87.0 L 109.0 87.5 L 107.5 96.0 L 106.0 96.5 L 105.5 102.0 L 104.0 101.5 L 101.0 114.5 Q 101.8 118.3 99.5 119.0 L 92.0 135.5 L 93.0 135.5 L 93.5 134.0 L 94.0 135.5 L 92.5 139.0 L 91.0 139.5 Q 92.3 144.3 90.0 145.5 L 88.0 153.5 L 88.5 155.0 Q 83.8 154.3 83.0 157.5 L 82.0 160.5 L 81.0 165.5 L 82.0 170.5 L 82.5 176.0 L 84.5 182.0 Q 88.3 183.7 87.5 190.0 L 89.0 190.5 Q 87.8 195.3 90.0 196.5 L 94.5 201.0 L 99.0 206.5 L 100.0 210.5 Q 99.4 215.6 102.5 217.0 Q 104.8 218.8 104.0 223.5 Q 106.1 230.9 111.5 235.0 L 113.0 235.5 L 113.5 238.0 L 115.0 238.5 L 117.5 247.0 L 118.0 255.5 L 118.0 265.5 L 119.0 271.5 L 116.5 276.0 L 114.0 276.5 L 111.5 281.0 L 106.0 283.5 L 105.0 291.5 L 100.5 297.0 L 92.0 299.5 L 83.5 301.0 Q 81.2 303.7 75.5 303.0 L 69.5 296.0 L 60.0 293.5 L 63.0 292.5 L 52.0 285.5 L 43.0 277.5 L 33.0 259.5 Q 35.5 258.0 32.0 256.5 L 30.0 251.5 L 29.0 247.5 L 28.0 234.5 Q 30.3 233.3 29.0 228.5 Q 29.5 222.0 33.0 218.5 L 38.5 210.0 Q 46.2 201.2 48.5 187.0 L 54.0 163.5 L 54.0 161.5 L 60.0 140.5 L 62.0 130.5 L 73.0 92.5 L 73.0 90.5 L 74.0 86.5 L 74.0 84.5 Q 75.5 73.5 82.0 67.5 L 94.0 47.5 Q 98.6 33.1 109.5 25.0 L 115.5 23.0 L 125.5 18.0 L 141.5 10.0 Z" desc="l 15 p 0" fill="rgb(0,0,0)" opacity="1.0" stroke="rgb(0,0,0)" stroke-width="1"/>
  <path d="M 157.5 49.0 Q 164.8 48.2 167.0 52.5 L 167.5 54.0 L 169.0 53.5 L 169.5 50.0 Q 177.2 48.8 181.0 51.5 L 193.5 54.0 L 197.5 53.0 L 201.0 54.5 L 201.5 56.0 Q 205.5 55.5 206.0 58.5 L 220.5 76.0 L 224.5 80.0 L 226.5 84.0 L 228.0 84.5 L 230.0 94.5 L 236.0 103.5 L 236.0 105.5 L 243.5 127.0 L 245.0 127.5 Q 245.7 138.3 249.5 146.0 L 251.5 151.0 L 254.5 156.0 L 255.5 154.0 L 257.0 154.5 Q 261.5 159.0 260.0 169.5 L 259.0 172.5 L 259.0 180.5 L 258.0 188.5 L 254.5 196.0 Q 248.8 197.3 246.0 201.5 L 246.0 207.5 L 245.0 211.5 L 244.0 215.5 Q 240.6 217.6 240.5 223.0 L 239.0 222.5 L 238.0 226.5 L 235.0 234.5 L 226.5 248.0 L 225.0 248.5 L 223.0 263.5 L 224.0 265.5 L 223.0 268.5 L 225.0 279.5 L 224.0 283.5 L 223.5 291.0 L 219.0 294.5 L 212.5 305.0 L 187.0 321.5 L 185.5 324.0 L 183.5 324.0 Q 179.7 326.7 171.5 325.0 L 164.0 320.5 L 163.5 319.0 Q 159.3 319.8 158.5 317.0 L 153.0 314.5 L 147.0 310.5 L 148.5 310.0 L 149.5 312.0 L 155.5 314.0 L 150.5 308.0 L 149.0 307.5 L 148.5 306.0 L 143.0 303.5 L 141.5 301.0 L 136.0 297.5 L 135.5 296.0 Q 130.5 296.5 130.0 292.5 L 128.5 290.0 L 124.0 286.5 L 123.5 283.0 L 122.0 282.5 L 121.5 281.0 L 118.0 278.5 L 117.0 276.5 L 118.0 274.5 L 117.5 273.0 L 119.0 273.5 Q 117.3 267.3 120.0 265.5 L 119.0 263.5 L 120.0 260.5 L 119.0 256.5 L 118.5 247.0 L 117.0 246.5 L 114.5 238.0 L 113.0 237.5 L 112.5 235.0 L 108.0 231.5 L 104.0 223.5 Q 104.8 218.2 102.0 216.5 Q 99.4 215.1 100.0 210.5 L 99.0 206.5 L 95.0 201.5 L 90.5 197.0 Q 87.6 195.4 88.5 190.0 L 87.0 189.5 Q 88.3 184.8 86.0 183.5 L 84.0 180.5 Q 81.4 177.6 82.0 171.5 L 81.0 161.5 L 85.5 155.0 L 89.0 154.5 L 87.5 152.0 L 89.0 152.5 Q 87.8 147.8 90.0 146.5 L 91.5 139.0 L 93.0 138.5 L 92.0 133.5 L 99.5 119.0 L 101.0 115.5 L 104.5 101.0 L 106.0 101.5 L 106.5 96.0 L 108.0 95.5 Q 106.9 89.4 109.5 87.0 L 111.0 86.5 L 114.0 75.5 Q 114.9 68.9 119.5 66.0 L 121.0 65.5 L 121.5 64.0 L 126.0 62.5 L 126.5 61.0 L 129.0 60.5 L 129.5 59.0 L 139.5 54.0 L 141.0 54.5 L 141.5 53.0 L 157.5 49.0 Z" desc="l 1 p 0" fill="rgb(255,127,0)" opacity="1.0" stroke="rgb(255,127,0)" stroke-width="1"/>
  <path d="M 231.5 241.0 L 231.0 242.5 L 228.0 249.5 L 227.0 252.5 L 226.0 257.5 Q 227.3 264.3 225.0 267.5 L 226.5 274.0 L 229.0 274.5 Q 225.3 276.3 227.0 283.5 L 228.5 288.0 L 230.0 288.5 L 229.0 291.5 L 233.0 293.5 L 232.0 296.5 L 232.5 298.0 L 231.0 298.5 L 234.0 299.5 L 234.5 304.0 Q 239.0 307.5 246.5 308.0 L 260.0 304.5 L 260.5 303.0 L 262.0 302.5 L 263.5 298.0 L 265.0 297.5 L 267.5 293.0 L 272.0 292.5 Q 271.0 286.0 275.5 285.0 L 273.0 288.5 L 274.5 292.0 L 276.5 293.0 Q 278.0 289.5 279.5 292.0 L 294.5 299.0 L 309.0 306.5 Q 311.5 312.0 310.0 321.5 L 310.0 358.5 L 302.5 360.0 L 289.5 360.0 L 236.5 360.0 L 26.5 360.0 Q 24.3 359.3 25.0 355.5 L 25.0 346.5 L 25.0 310.5 L 26.0 306.5 Q 25.3 302.8 27.5 302.0 L 36.5 298.0 L 46.5 295.0 L 57.5 289.0 L 63.0 292.5 L 60.0 293.5 L 66.5 295.0 L 72.0 298.5 L 75.5 303.0 L 81.5 302.0 L 93.5 299.0 Q 100.1 298.6 103.0 294.5 Q 107.0 291.0 106.5 283.0 L 112.0 280.5 L 114.5 276.0 L 117.0 275.5 L 118.5 272.0 L 119.0 273.5 L 118.0 275.5 L 119.5 278.0 L 118.0 277.5 L 120.5 281.0 L 122.0 281.5 L 122.5 283.0 L 124.0 283.5 Q 123.3 289.3 127.5 290.0 L 130.0 291.5 L 133.5 296.0 L 136.0 296.5 L 136.5 298.0 L 143.0 302.5 L 143.5 304.0 L 149.0 306.5 L 149.5 308.0 L 157.0 314.5 Q 154.8 315.8 157.5 317.0 L 164.0 319.5 L 165.5 322.0 L 169.0 323.5 Q 172.6 326.9 181.5 325.0 L 184.5 323.0 Q 185.8 325.3 187.0 322.5 L 188.5 320.0 L 192.0 318.5 L 197.5 315.0 L 213.0 304.5 Q 216.2 296.2 222.5 291.0 L 224.0 290.5 Q 222.8 282.3 225.0 277.5 L 223.0 266.5 L 224.0 264.5 L 223.0 262.5 L 225.5 248.0 L 227.0 247.5 L 231.5 241.0 Z" desc="l 11 p 0" fill="rgb(127,0,0)" opacity="1.0" stroke="rgb(127,0,0)" stroke-width="1"/>
  <path d="M 118.5 247.0 L 120.0 262.5 L 119.0 264.5 L 119.0 266.5 L 118.5 270.0 L 118.5 247.0 Z" desc="l 11 p 1" fill="rgb(127,0,0)" opacity="1.0" stroke="rgb(127,0,0)" stroke-width="1"/>
</svg>
