<svg xmlns="http://www.w3.org/2000/svg" desc="Created by KTab - Version 1.1.2" height="360" version="1.1" width="360">
  <path d="M 149.5 0.0 L 159.5 1.0 L 167.0 4.5 L 177.5 9.0 L 181.5 11.0 L 186.5 12.0 Q 195.3 10.2 198.5 14.0 L 213.0 20.5 L 216.5 26.0 L 229.0 33.5 L 242.0 44.5 L 242.5 46.0 L 245.0 47.5 L 245.5 51.0 Q 249.3 50.3 250.0 52.5 L 250.5 54.0 L 254.0 55.5 L 256.0 64.5 L 259.0 74.5 L 258.0 76.5 L 261.0 80.5 Q 263.3 81.8 262.0 86.5 L 263.0 96.5 Q 265.6 104.4 264.0 116.5 L 262.0 117.5 L 259.0 134.5 L 258.0 139.5 L 256.0 146.5 L 255.0 150.5 L 253.5 154.0 L 252.0 154.5 Q 252.8 160.3 250.5 163.0 L 247.5 174.0 L 243.5 176.0 Q 240.1 172.4 242.0 163.5 Q 243.4 153.6 240.0 148.5 L 238.0 131.5 L 237.0 123.5 Q 238.0 118.5 235.0 117.5 L 233.0 108.5 L 232.0 104.5 L 229.5 101.0 L 226.0 99.5 Q 225.8 94.8 222.5 93.0 L 218.5 92.0 L 216.5 93.0 Q 214.3 88.3 208.5 87.0 L 206.0 87.5 L 205.5 90.0 L 202.5 89.0 L 200.5 89.0 L 198.0 88.5 L 196.5 85.0 L 187.5 80.0 L 185.5 81.0 Q 184.0 78.5 182.5 82.0 Q 178.5 82.5 178.0 79.5 L 177.5 78.0 L 166.5 79.0 L 158.5 75.0 Q 157.3 71.8 151.5 73.0 L 144.5 78.0 L 141.5 77.0 L 136.5 80.0 Q 135.0 77.5 133.5 81.0 L 117.5 81.0 Q 111.5 79.5 110.0 82.5 L 109.5 84.0 L 103.5 88.0 Q 98.5 87.5 98.0 91.5 L 95.0 99.5 Q 91.8 101.8 93.0 108.5 Q 94.8 114.8 92.0 116.5 L 90.0 121.5 L 90.5 123.0 L 88.0 125.5 L 87.5 127.0 L 86.0 127.5 Q 87.3 134.3 85.0 137.5 L 85.0 139.5 L 84.0 154.5 L 85.0 159.5 L 81.5 161.0 L 76.5 149.0 Q 73.0 148.0 74.0 142.5 L 70.0 130.5 L 71.0 128.5 L 69.5 125.0 L 68.0 125.5 L 66.5 116.0 L 66.0 108.5 L 66.0 84.5 L 74.0 67.5 L 73.0 64.5 L 76.5 57.0 L 80.0 54.5 L 81.5 51.0 L 85.0 46.5 L 92.5 38.0 L 103.0 31.5 L 104.0 28.5 L 107.5 25.0 L 117.0 20.5 L 122.5 18.0 Q 127.9 18.9 130.0 16.5 L 131.0 12.5 L 130.0 10.5 L 131.0 7.5 L 129.5 5.0 L 132.5 7.0 L 134.5 7.0 L 143.5 9.0 L 150.0 5.5 L 149.5 0.0 Z" desc="l 2 p 0" fill="rgb(0,0,0)" opacity="1.0" stroke="rgb(0,0,0)" stroke-width="1"/>
  <path d="M 151.5 73.0 Q 156.3 71.8 157.5 74.0 L 161.5 76.0 L 165.5 78.0 Q 167.3 80.8 173.5 79.0 L 177.5 78.0 L 180.5 82.0 L 184.5 80.0 L 186.5 81.0 L 188.5 80.0 L 198.0 86.5 L 198.5 89.0 L 201.5 90.0 L 203.5 89.0 L 205.5 90.0 L 206.5 87.0 L 209.5 88.0 L 213.0 89.5 L 217.5 93.0 L 219.5 92.0 L 225.0 95.5 L 226.5 100.0 L 231.0 102.5 L 233.0 107.5 L 235.0 117.5 Q 238.0 118.5 237.0 123.5 L 238.0 130.5 L 240.0 148.5 Q 243.4 153.6 242.0 163.5 Q 240.1 172.4 243.5 176.0 L 248.0 173.5 L 249.5 166.0 L 252.5 154.0 L 253.0 159.5 Q 249.6 167.1 251.0 179.5 L 248.0 193.5 Q 244.7 195.7 244.5 201.0 Q 245.2 209.7 240.0 212.5 L 235.0 218.5 L 232.0 228.5 L 229.0 234.5 L 223.5 247.0 L 221.0 251.5 L 220.0 257.5 L 229.0 268.5 L 230.0 272.5 L 233.0 279.5 L 230.5 281.0 L 229.5 279.0 Q 226.5 280.5 229.5 282.0 L 232.0 282.5 L 230.5 285.0 L 229.0 285.5 L 231.0 286.5 L 229.0 287.5 Q 229.8 291.8 227.0 292.5 L 223.5 298.0 L 222.0 298.5 L 216.5 308.0 L 213.0 309.5 L 207.0 316.5 L 207.0 318.5 L 206.5 320.0 L 204.0 321.5 L 201.5 327.0 L 198.0 328.5 L 197.0 330.5 L 197.0 332.5 L 195.5 336.0 L 191.5 342.0 L 181.0 347.5 L 180.5 349.0 L 179.0 349.5 L 178.5 352.0 L 174.5 350.0 L 172.0 351.5 L 171.5 350.0 L 166.0 352.5 L 165.5 354.0 L 164.5 352.0 L 162.5 357.0 L 161.0 356.5 L 162.0 352.5 L 160.0 353.5 L 159.5 355.0 L 155.5 352.0 L 155.0 353.5 L 158.0 357.5 L 156.5 357.0 L 153.5 358.0 L 153.0 356.5 L 155.0 355.5 L 154.5 354.0 L 151.0 356.5 L 150.5 358.0 L 149.0 355.5 L 149.0 353.5 L 148.5 352.0 L 145.5 353.0 L 144.5 351.0 L 141.5 352.0 L 135.5 352.0 L 133.0 350.5 L 133.5 349.0 L 127.5 347.0 Q 126.0 349.5 124.5 346.0 L 119.0 342.5 L 117.0 339.5 L 116.0 335.5 Q 116.8 330.8 114.5 329.0 L 113.0 328.5 L 111.5 320.0 L 109.0 318.5 Q 109.6 313.9 107.0 312.5 L 107.5 311.0 L 106.0 310.5 L 107.0 305.5 L 104.0 303.5 L 102.5 301.0 L 101.0 301.5 L 100.5 297.0 L 99.0 296.5 L 97.0 291.5 L 98.0 289.5 L 97.0 286.5 L 97.0 277.5 L 99.0 269.5 L 99.0 267.5 L 103.0 259.5 L 104.0 252.5 L 98.0 236.5 L 94.0 229.5 L 88.5 216.0 L 87.0 209.5 L 85.5 206.0 L 80.0 200.5 Q 74.7 194.3 74.0 183.5 L 71.0 164.5 L 70.0 152.5 L 69.5 145.0 L 68.0 135.5 L 69.0 131.5 L 69.5 125.0 L 71.0 129.5 L 70.0 131.5 L 72.0 135.5 L 73.5 142.0 Q 72.9 147.1 76.0 148.5 L 81.5 161.0 L 85.0 159.5 L 84.0 151.5 L 85.0 146.5 Q 83.3 140.3 86.0 138.5 L 85.0 136.5 L 86.0 133.5 L 86.5 127.0 L 88.0 126.5 L 91.0 122.5 L 90.0 120.5 L 92.0 116.5 Q 94.5 115.0 93.0 109.5 Q 91.6 102.1 95.0 99.5 Q 97.6 98.1 97.0 93.5 L 101.5 88.0 Q 105.3 88.8 106.0 86.5 L 110.0 83.5 L 111.5 81.0 L 127.5 81.0 Q 134.0 82.5 135.5 79.0 Q 137.0 81.5 138.5 78.0 L 143.5 77.0 L 145.0 77.5 L 147.5 75.0 L 151.5 73.0 Z" desc="l 1 p 0" fill="rgb(255,127,0)" opacity="1.0" stroke="rgb(255,127,0)" stroke-width="1"/>
  <path d="M 98.5 269.0 L 99.0 272.5 Q 95.4 277.9 97.0 288.5 L 98.0 290.5 L 98.0 292.5 L 99.5 297.0 L 101.0 297.5 L 101.5 302.0 Q 102.8 299.8 104.0 302.5 L 104.5 304.0 L 107.0 305.5 L 108.0 309.5 L 106.0 309.5 L 106.5 311.0 L 108.0 311.5 L 108.0 313.5 L 110.5 320.0 L 112.0 320.5 Q 110.9 326.6 113.5 329.0 L 115.0 329.5 L 116.0 334.5 Q 115.0 339.0 117.5 340.0 L 121.5 345.0 L 126.5 348.0 L 128.5 348.0 L 134.0 349.5 L 133.5 351.0 Q 136.7 353.3 143.5 352.0 L 145.0 351.5 L 145.5 353.0 L 148.5 352.0 L 150.0 354.5 L 149.0 356.5 L 151.0 357.5 L 153.5 354.0 L 155.0 353.5 L 154.5 352.0 L 151.5 354.0 L 153.5 351.0 L 159.5 355.0 L 161.5 352.0 L 162.0 354.5 L 161.0 356.5 L 162.5 357.0 L 164.5 352.0 L 165.5 354.0 L 166.5 352.0 L 171.5 350.0 L 172.5 352.0 Q 174.0 348.5 175.5 351.0 L 178.5 352.0 L 179.5 349.0 L 181.0 348.5 L 181.5 347.0 L 192.0 341.5 L 195.5 336.0 L 197.0 332.5 Q 194.5 331.0 198.0 329.5 L 199.5 327.0 L 202.0 326.5 L 205.5 320.0 L 207.0 319.5 L 208.0 317.5 Q 205.8 316.3 208.5 315.0 L 213.0 310.5 L 214.5 308.0 L 218.0 306.5 L 222.5 298.0 L 224.0 297.5 Q 223.5 293.0 227.0 292.5 Q 229.8 291.3 229.5 287.0 L 231.0 286.5 L 229.0 285.5 L 231.0 284.5 L 232.5 281.0 L 234.0 281.5 L 236.5 285.0 L 245.5 288.0 Q 255.9 290.1 262.0 296.5 L 262.5 298.0 L 265.5 297.0 L 285.0 307.5 L 298.0 317.5 L 300.5 333.0 L 301.0 359.5 L 159.5 360.0 L 157.5 360.0 L 33.0 359.5 L 33.0 325.5 L 33.0 316.5 Q 32.3 310.8 36.5 310.0 L 51.5 303.0 L 67.5 297.0 L 78.0 291.5 Q 86.8 288.3 92.0 281.5 L 98.5 269.0 Z" desc="l 3 p 0" fill="rgb(127,127,127)" opacity="1.0" stroke="rgb(127,127,127)" stroke-width="1"/>
</svg>
